<?xml version="1.0" standalone="no"?>
<!DOCTYPE svg PUBLIC "-//W3C//DTD SVG 20010904//EN"
 "http://www.w3.org/TR/2001/REC-SVG-20010904/DTD/svg10.dtd">
<svg version="1.0" xmlns="http://www.w3.org/2000/svg"
 width="276.000000pt" height="276.000000pt" viewBox="0 0 276.000000 276.000000"
 preserveAspectRatio="xMidYMid meet">
<metadata>
Created by potrace 1.11, written by Peter Selinger 2001-2013
</metadata>
<g transform="translate(0.000000,276.000000) scale(0.100000,-0.100000)"
fill="#000000" stroke="none">
<path d="M0 1380 l0 -1380 1380 0 1380 0 0 1380 0 1380 -1380 0 -1380 0 0
-1380z m1128 1155 c204 -30 379 -103 551 -230 l64 -47 -54 -54 c-29 -30 -57
-54 -61 -54 -4 0 -38 21 -75 47 -166 114 -341 172 -545 180 l-128 6 0 77 c0
42 3 80 7 83 11 12 139 8 241 -8z m-21 -346 c264 -41 513 -232 627 -481 45
-97 64 -169 75 -272 20 -204 -36 -422 -151 -582 l-32 -45 -59 59 -58 59 40 64
c22 35 52 100 67 144 25 71 28 94 28 210 1 150 -13 208 -76 325 -93 174 -247
297 -433 345 -100 25 -96 28 -93 -71 l3 -87 65 -22 c70 -23 126 -50 134 -63 3
-5 -21 -34 -53 -66 l-58 -58 -31 16 c-65 34 -62 50 -62 -314 0 -326 0 -330 20
-330 52 0 137 63 189 141 63 95 74 235 26 330 l-17 32 60 60 60 59 26 -44 c40
-69 57 -126 63 -218 16 -242 -137 -456 -374 -525 l-53 -16 0 -83 c0 -58 4 -85
13 -89 31 -12 192 46 290 104 l37 23 55 -54 c30 -30 54 -59 52 -64 -5 -14
-140 -93 -208 -121 -35 -14 -102 -34 -149 -44 l-85 -18 -3 -86 -3 -87 33 0
c48 0 186 35 275 70 233 89 458 308 559 540 146 336 104 741 -105 1019 -23 30
-41 60 -41 66 0 6 24 35 54 64 l53 53 35 -44 c92 -113 172 -271 212 -419 117
-433 -4 -874 -323 -1182 -225 -217 -517 -337 -817 -337 l-94 0 0 1024 0 1025
38 3 c47 4 109 0 189 -13z"/>
</g>
</svg>
