<?xml version="1.0" encoding="utf-8"?>
<!-- Generator: Adobe Illustrator 16.0.3, SVG Export Plug-In . SVG Version: 6.00 Build 0)  -->
<!DOCTYPE svg PUBLIC "-//W3C//DTD SVG 1.1//EN" "http://www.w3.org/Graphics/SVG/1.1/DTD/svg11.dtd">
<svg version="1.1" id="Layer_1" xmlns="http://www.w3.org/2000/svg" xmlns:xlink="http://www.w3.org/1999/xlink" x="0px" y="0px"
	 width="312.285px" height="81.276px" viewBox="239.857 247.026 312.285 81.276"
	 enable-background="new 239.857 247.026 312.285 81.276" xml:space="preserve">
<path fill="#FFC425" d="M265.232,261.083l4.126-4.126c-7.129-6.181-16.425-9.931-26.602-9.931c-0.976,0-1.94,0.047-2.899,0.115v5.82
	c0.957-0.079,1.922-0.13,2.899-0.13C251.317,252.832,259.161,255.942,265.232,261.083 M283.394,287.664
	c0-10.177-3.749-19.472-9.931-26.602l-4.126,4.126c5.142,6.07,8.252,13.915,8.252,22.476c0,18.228-14.077,33.221-31.93,34.703
	v-5.832c5.836-0.58,11.167-2.879,15.466-6.398l-4.152-4.151c-3.21,2.497-7.087,4.163-11.314,4.698v-5.864
	c8.234-1.385,14.514-8.527,14.514-17.156c0-3.761-1.204-7.234-3.231-10.08l-4.195,4.194c1.022,1.728,1.62,3.736,1.62,5.886
	c0,5.398-3.708,9.935-8.708,11.23v-22.456c1.058,0.277,2.062,0.69,2.983,1.234l4.195-4.193c-2.097-1.494-4.536-2.535-7.178-2.983
	v-5.852c11.437,1.436,20.319,11.199,20.319,23.02c0,5.357-1.841,10.283-4.9,14.216l4.152,4.152
	c4.095-5.004,6.553-11.398,6.553-18.369c0-16.032-12.995-29.027-29.027-29.027c-0.978,0-1.945,0.051-2.899,0.146v69.405
	c0.959,0.067,1.923,0.115,2.899,0.115C265.201,328.303,283.394,310.109,283.394,287.664"/>
<path fill="#FFC425" d="M535.854,280.684v-13.999h3.948c1.039,0,1.99,0.171,2.854,0.514c0.862,0.343,1.604,0.824,2.224,1.443
	c0.619,0.618,1.094,1.354,1.426,2.205c0.332,0.853,0.498,1.798,0.498,2.837v0.066c0,1.018-0.166,1.952-0.498,2.803
	c-0.332,0.853-0.807,1.588-1.426,2.206c-0.62,0.619-1.359,1.096-2.224,1.427c-0.862,0.332-1.813,0.498-2.854,0.498H535.854z
	 M530.746,285.294h9.056c1.836,0,3.505-0.299,5.009-0.896c1.505-0.598,2.804-1.415,3.898-2.455c1.095-1.039,1.941-2.267,2.538-3.683
	c0.597-1.415,0.896-2.94,0.896-4.577v-0.066c0-1.636-0.299-3.157-0.896-4.561c-0.597-1.405-1.443-2.627-2.538-3.666
	c-1.096-1.039-2.395-1.853-3.898-2.438c-1.503-0.585-3.173-0.879-5.009-0.879h-9.056V285.294z M509.913,280.684v-13.999h3.946
	c1.041,0,1.991,0.171,2.854,0.514c0.863,0.343,1.604,0.824,2.223,1.443c0.619,0.618,1.097,1.354,1.427,2.205
	c0.332,0.853,0.498,1.798,0.498,2.837v0.066c0,1.018-0.166,1.952-0.498,2.803c-0.33,0.853-0.808,1.588-1.427,2.206
	c-0.618,0.619-1.358,1.096-2.223,1.427c-0.861,0.332-1.812,0.498-2.854,0.498H509.913z M504.804,285.294h9.057
	c1.836,0,3.506-0.299,5.011-0.896c1.503-0.598,2.803-1.415,3.896-2.455c1.095-1.039,1.94-2.267,2.537-3.683
	c0.599-1.415,0.896-2.94,0.896-4.577v-0.066c0-1.636-0.299-3.157-0.896-4.561c-0.597-1.405-1.442-2.627-2.537-3.666
	c-1.095-1.039-2.395-1.853-3.896-2.438c-1.505-0.586-3.175-0.879-5.011-0.879h-9.057V285.294z M483.971,280.684v-13.999h3.948
	c1.039,0,1.989,0.171,2.854,0.514c0.861,0.343,1.604,0.824,2.223,1.443c0.619,0.618,1.095,1.354,1.427,2.205
	c0.332,0.853,0.497,1.798,0.497,2.837v0.066c0,1.018-0.165,1.952-0.497,2.803c-0.332,0.853-0.808,1.588-1.427,2.206
	c-0.619,0.619-1.36,1.096-2.223,1.427c-0.863,0.332-1.813,0.498-2.854,0.498H483.971z M478.861,285.294h9.058
	c1.835,0,3.505-0.299,5.009-0.896c1.504-0.598,2.804-1.415,3.898-2.455c1.095-1.039,1.94-2.267,2.537-3.683
	c0.598-1.415,0.896-2.94,0.896-4.577v-0.066c0-1.636-0.298-3.157-0.896-4.561c-0.597-1.405-1.442-2.627-2.537-3.666
	c-1.096-1.039-2.396-1.853-3.898-2.438s-3.174-0.879-5.009-0.879h-9.058V285.294z M446.686,285.294h17.647v-4.545h-12.606v-4.876
	h10.947v-4.545h-10.947v-4.711h12.44v-4.544h-17.481V285.294L446.686,285.294z M427.809,273.385v-6.7h5.076
	c1.26,0,2.244,0.276,2.952,0.833c0.708,0.556,1.062,1.389,1.062,2.501v0.065c0,1-0.339,1.801-1.013,2.401
	c-0.675,0.6-1.642,0.899-2.901,0.899L427.809,273.385L427.809,273.385z M422.699,285.294h5.108v-7.431h3.948h0.065l4.977,7.431
	h5.971l-5.672-8.293c1.481-0.553,2.683-1.421,3.601-2.604s1.377-2.714,1.377-4.595v-0.065c0-2.212-0.664-3.981-1.991-5.309
	c-1.57-1.569-3.826-2.354-6.767-2.354h-10.617V285.294L422.699,285.294z M403.029,280.401c-0.863-0.387-1.609-0.912-2.239-1.576
	c-0.632-0.663-1.117-1.438-1.46-2.322c-0.343-0.884-0.515-1.825-0.515-2.819v-0.066c0-0.995,0.172-1.929,0.515-2.803
	s0.818-1.643,1.426-2.307c0.607-0.663,1.344-1.183,2.206-1.559s1.804-0.564,2.819-0.564c1.039,0,1.985,0.194,2.838,0.581
	c0.851,0.388,1.592,0.912,2.222,1.575c0.63,0.664,1.117,1.438,1.46,2.323c0.342,0.884,0.515,1.824,0.515,2.819v0.066
	c0,0.995-0.173,1.929-0.515,2.803c-0.343,0.874-0.817,1.644-1.427,2.306c-0.608,0.664-1.338,1.184-2.188,1.559
	c-0.853,0.377-1.798,0.564-2.836,0.564C404.831,280.981,403.891,280.788,403.029,280.401 M410.742,284.747
	c1.514-0.631,2.817-1.493,3.914-2.588c1.095-1.095,1.951-2.366,2.569-3.815c0.619-1.447,0.931-3.002,0.931-4.66v-0.066
	c0-1.659-0.306-3.212-0.912-4.661c-0.609-1.448-1.461-2.709-2.555-3.782c-1.096-1.071-2.396-1.924-3.898-2.554
	s-3.15-0.946-4.941-0.946c-1.793,0-3.444,0.316-4.961,0.946c-1.515,0.63-2.819,1.493-3.914,2.587
	c-1.095,1.095-1.951,2.367-2.57,3.815c-0.62,1.448-0.93,3.003-0.93,4.661v0.066c0,1.658,0.305,3.212,0.912,4.661
	c0.608,1.448,1.46,2.709,2.555,3.781c1.095,1.073,2.394,1.924,3.897,2.555c1.504,0.63,3.151,0.945,4.942,0.945
	C407.574,285.692,409.227,285.377,410.742,284.747 M375.296,285.294h16.687v-4.644h-11.577v-18.577h-5.109V285.294z
	 M358.245,273.783v-7.099h3.947c1.282,0,2.295,0.298,3.035,0.895c0.74,0.597,1.111,1.471,1.111,2.621v0.066
	c0,0.995-0.354,1.83-1.061,2.505c-0.708,0.675-1.704,1.012-2.986,1.012H358.245z M353.136,285.294h5.109v-6.966h3.881
	c1.305,0,2.526-0.171,3.666-0.515c1.139-0.343,2.134-0.856,2.985-1.542c0.851-0.686,1.521-1.537,2.007-2.556
	c0.486-1.017,0.729-2.199,0.729-3.549v-0.065c0-1.195-0.205-2.284-0.613-3.269c-0.409-0.983-0.995-1.83-1.759-2.538
	c-0.763-0.707-1.691-1.255-2.786-1.642c-1.095-0.387-2.339-0.58-3.731-0.58h-9.488V285.294L353.136,285.294z M327.095,285.294h5.806
	l5.241-7.962l5.208,7.962h5.972l-8.095-11.876l7.764-11.345h-5.807l-4.909,7.53l-4.876-7.53h-5.972l7.763,11.411L327.095,285.294z
	 M306.627,285.294h17.648v-4.545h-12.606v-4.876h10.948v-4.545h-10.948v-4.711h12.44v-4.544h-17.482V285.294L306.627,285.294z"/>
<path fill="#FFEABE" d="M534.816,315.059h13.262v-1.895h-11.212v-6.333h9.914v-1.896h-9.914v-6.15h11.082v-1.895h-13.132V315.059z
	 M521.002,315.137c0.686-0.156,1.315-0.373,1.896-0.648c0.578-0.276,1.124-0.61,1.635-1c0.511-0.389,0.999-0.825,1.466-1.311
	l-1.349-1.324c-0.866,0.83-1.748,1.478-2.647,1.935c-0.898,0.459-1.973,0.688-3.219,0.688c-1.003,0-1.935-0.193-2.79-0.584
	c-0.856-0.39-1.6-0.921-2.231-1.597c-0.631-0.674-1.125-1.465-1.479-2.375c-0.354-0.908-0.532-1.89-0.532-2.946v-0.051
	c0-1.039,0.178-2.012,0.532-2.92c0.354-0.91,0.849-1.701,1.479-2.375c0.633-0.676,1.375-1.203,2.231-1.584
	c0.855-0.379,1.787-0.57,2.79-0.57c1.246,0,2.313,0.234,3.206,0.701c0.89,0.467,1.726,1.064,2.504,1.789l1.401-1.504
	c-0.45-0.432-0.917-0.826-1.401-1.182c-0.485-0.354-1.012-0.656-1.583-0.908c-0.57-0.25-1.189-0.445-1.855-0.584
	c-0.666-0.137-1.413-0.207-2.244-0.207c-1.332,0-2.562,0.246-3.686,0.74c-1.125,0.492-2.095,1.168-2.908,2.023
	c-0.812,0.857-1.447,1.855-1.905,2.998c-0.459,1.143-0.688,2.354-0.688,3.633v0.053c0,1.297,0.229,2.518,0.688,3.659
	c0.458,1.144,1.094,2.133,1.905,2.973c0.813,0.841,1.773,1.502,2.881,1.984c1.107,0.484,2.318,0.729,3.635,0.729
	C519.562,315.371,520.319,315.293,521.002,315.137 M485.336,315.059h1.998v-14.896l11.731,14.896h1.635V296.89h-1.998v14.561
	l-11.444-14.561h-1.922V315.059z M460.551,315.059h13.264v-1.895h-11.213v-6.333h9.914v-1.896h-9.914v-6.15h11.082v-1.895h-13.133
	V315.059z M437.09,306.156v-7.371h5.619c1.475,0,2.619,0.316,3.436,0.949c0.814,0.631,1.224,1.508,1.224,2.633v0.053
	c0,0.588-0.117,1.111-0.353,1.57c-0.234,0.459-0.559,0.848-0.975,1.168c-0.418,0.318-0.912,0.566-1.484,0.738
	c-0.571,0.174-1.195,0.26-1.873,0.26H437.09L437.09,306.156z M435.039,315.059h2.051V308h5.139h0.053l5.269,7.059h2.519l-5.58-7.424
	c0.709-0.137,1.366-0.35,1.973-0.635c0.605-0.285,1.129-0.648,1.569-1.09c0.441-0.441,0.783-0.961,1.025-1.559
	c0.242-0.596,0.363-1.266,0.363-2.01v-0.053c0-0.727-0.121-1.393-0.363-1.998s-0.59-1.133-1.039-1.582
	c-0.57-0.572-1.293-1.018-2.168-1.338c-0.873-0.32-1.873-0.48-2.995-0.48h-7.812v18.168H435.039z M410.254,315.059h13.262v-1.895
	h-11.211v-6.333h9.914v-1.896h-9.914v-6.15h11.082v-1.895h-13.133V315.059z M386.091,315.059h2.05v-7.916h9.837v-1.895h-9.837
	v-6.463h11.006v-1.895h-13.056V315.059z M359.028,315.059h1.998v-14.896l11.73,14.896h1.635V296.89h-1.998v14.561l-11.445-14.561
	h-1.92V315.059L359.028,315.059z M338,312.879c-0.874-0.398-1.631-0.934-2.271-1.609c-0.64-0.676-1.137-1.467-1.491-2.375
	c-0.355-0.908-0.532-1.881-0.532-2.919v-0.051c0-1.039,0.177-2.008,0.532-2.908c0.354-0.898,0.844-1.686,1.466-2.361
	c0.623-0.676,1.372-1.207,2.245-1.596c0.874-0.389,1.83-0.584,2.868-0.584s1.993,0.199,2.867,0.598
	c0.874,0.396,1.632,0.934,2.271,1.607c0.64,0.676,1.138,1.467,1.492,2.375c0.354,0.908,0.532,1.881,0.532,2.92v0.053
	c0,1.039-0.178,2.008-0.532,2.908s-0.843,1.688-1.466,2.36c-0.623,0.677-1.371,1.207-2.245,1.597
	c-0.874,0.391-1.83,0.584-2.868,0.584S338.874,313.277,338,312.879 M344.605,314.604c1.141-0.51,2.118-1.192,2.932-2.049
	c0.812-0.856,1.445-1.854,1.895-2.998c0.45-1.143,0.676-2.336,0.676-3.583c0.017-0.018,0.017-0.033,0-0.051
	c0-1.246-0.222-2.436-0.662-3.57c-0.441-1.133-1.069-2.127-1.882-2.984c-0.813-0.855-1.787-1.535-2.921-2.037
	c-1.133-0.502-2.392-0.752-3.775-0.752s-2.647,0.256-3.789,0.766c-1.143,0.512-2.12,1.193-2.934,2.049
	c-0.812,0.857-1.444,1.857-1.894,2.998c-0.45,1.143-0.675,2.336-0.675,3.582v0.053c0,1.246,0.221,2.436,0.662,3.57
	c0.44,1.133,1.067,2.127,1.881,2.983c0.812,0.854,1.787,1.535,2.92,2.037s2.392,0.754,3.776,0.754
	C342.199,315.371,343.463,315.115,344.605,314.604 M318.567,315.137c0.683-0.156,1.314-0.373,1.895-0.648
	c0.579-0.276,1.124-0.61,1.635-1c0.511-0.389,0.999-0.825,1.466-1.311l-1.35-1.324c-0.865,0.83-1.747,1.478-2.646,1.935
	c-0.9,0.459-1.973,0.688-3.219,0.688c-1.004,0-1.934-0.193-2.79-0.584c-0.855-0.39-1.601-0.921-2.231-1.597
	c-0.632-0.674-1.125-1.465-1.479-2.375c-0.354-0.908-0.531-1.89-0.531-2.946v-0.051c0-1.039,0.177-2.012,0.531-2.92
	c0.354-0.91,0.848-1.701,1.479-2.375c0.631-0.676,1.376-1.203,2.231-1.584c0.856-0.379,1.786-0.57,2.79-0.57
	c1.246,0,2.314,0.234,3.205,0.701c0.892,0.467,1.727,1.064,2.505,1.789l1.401-1.504c-0.45-0.432-0.917-0.826-1.401-1.182
	c-0.484-0.354-1.012-0.656-1.583-0.908c-0.57-0.25-1.189-0.445-1.855-0.584c-0.666-0.137-1.415-0.207-2.245-0.207
	c-1.333,0-2.562,0.246-3.685,0.74c-1.125,0.492-2.095,1.168-2.907,2.023c-0.814,0.857-1.45,1.855-1.908,2.998
	s-0.688,2.354-0.688,3.633v0.053c0,1.297,0.23,2.518,0.688,3.659c0.458,1.144,1.094,2.133,1.908,2.973
	c0.812,0.841,1.772,1.502,2.881,1.984c1.106,0.484,2.318,0.729,3.633,0.729C317.127,315.371,317.883,315.293,318.567,315.137"/>
<rect x="239.857" y="247.026" fill="none" width="312.285" height="81.276"/>
</svg>
