<?xml version="1.0" encoding="utf-8"?>
<!-- Generator: Adobe Illustrator 15.1.0, SVG Export Plug-In . SVG Version: 6.00 Build 0)  -->
<!DOCTYPE svg PUBLIC "-//W3C//DTD SVG 1.1//EN" "http://www.w3.org/Graphics/SVG/1.1/DTD/svg11.dtd">
<svg version="1.1" id="Layer_1" xmlns="http://www.w3.org/2000/svg" xmlns:xlink="http://www.w3.org/1999/xlink" x="0px" y="0px"
	 width="1455px" height="390.631px" viewBox="0 0 1455 390.631" enable-background="new 0 0 1455 390.631" xml:space="preserve">
<path fill="#99D7EC" d="M278.548,378.885l0.008-0.008L278.548,378.885z"/>
<g>
	<defs>
		<polyline id="SVGID_1_" points="1449.093,2 4.938,2 4.938,386 1449.093,386 		"/>
	</defs>
	<clipPath id="SVGID_2_">
		<use xlink:href="#SVGID_1_"  overflow="visible"/>
	</clipPath>
	<path clip-path="url(#SVGID_2_)" fill="none" stroke="#462E26" stroke-width="4.493" stroke-miterlimit="10" d="M278.556,378.877
		l-0.008,0.008L278.556,378.877z"/>
	<path clip-path="url(#SVGID_2_)" fill="#99D7EC" d="M286.059,233.182c-27.388,47.438-53.761,80.37-76.468,102.788
		c34.776,34.337,60.966,43.979,68.965,42.906c0,0,38.555-0.609,93.604-95.982c48.136-83.386,39.859-119.604,37.017-127.382v0.024
		c-3.08-7.503-24.969-24.86-72.736-37.339C328.276,148.225,312.999,186.505,286.059,233.182 M409.167,155.492
		c0-0.008-0.008-0.015-0.008-0.022C409.159,155.477,409.167,155.484,409.167,155.492 M409.177,155.507
		c-0.01-0.007-0.01-0.007-0.01-0.016C409.167,155.5,409.167,155.5,409.177,155.507"/>
	<path clip-path="url(#SVGID_2_)" fill="#99D7EC" d="M286.059,233.182c-27.388,47.438-53.761,80.37-76.468,102.788
		c34.776,34.337,60.966,43.979,68.965,42.906c0,0,38.555-0.609,93.604-95.982c48.136-83.386,39.859-119.604,37.017-127.382v0.024
		c-3.08-7.503-24.969-24.86-72.736-37.339C328.276,148.225,312.999,186.505,286.059,233.182 M409.167,155.492
		c0-0.008-0.008-0.015-0.008-0.022C409.159,155.477,409.167,155.484,409.167,155.492 M409.177,155.507
		c-0.01-0.007-0.01-0.007-0.01-0.016C409.167,155.5,409.167,155.5,409.177,155.507"/>
	<path clip-path="url(#SVGID_2_)" fill="none" stroke="#007FC3" stroke-width="4.493" stroke-miterlimit="10" d="M286.059,233.182
		c-27.388,47.438-53.761,80.37-76.468,102.788c34.776,34.337,60.966,43.979,68.965,42.906c0,0,38.555-0.609,93.604-95.982
		c48.136-83.386,39.859-119.604,37.017-127.382v0.024c-3.08-7.503-24.969-24.86-72.736-37.339
		C328.276,148.225,312.999,186.505,286.059,233.182 M409.167,155.492c0-0.008-0.008-0.015-0.008-0.022
		C409.159,155.477,409.167,155.484,409.167,155.492 M409.177,155.507c-0.01-0.007-0.01-0.007-0.01-0.016
		C409.167,155.5,409.167,155.5,409.177,155.507"/>
	<path clip-path="url(#SVGID_2_)" fill="#99D7EC" d="M210.299,335.97c34.143,33.6,58.726,42.484,66.974,42.484
		c0.445,0,0.854-0.015,1.227-0.068c0.43-0.016,39.023-1.828,93.235-95.734c20.418-35.389,33.052-66.289,37.555-91.856
		c3.586-20.354,0.814-31.288-0.57-35.074c-3.208-7.826-25.581-24.745-71.93-36.926c-9.478,34.665-26.403,73.227-50.303,114.627
		C262.271,275.383,236.63,309.889,210.299,335.97 M277.273,379.438c-8.425,0-33.477-9.009-68.028-43.122l-0.354-0.353l0.354-0.354
		c26.399-26.058,52.1-60.609,76.384-102.682c23.971-41.52,40.902-80.163,50.335-114.868l0.129-0.469l0.476,0.123
		c46.926,12.255,69.682,29.529,73.044,37.579h0.008l0.022,0.079c3.335,9.161,10.483,45.412-37.055,127.777
		c-15.721,27.232-40.214,63.889-67.585,83.902c-16.46,12.03-26.034,12.311-26.443,12.318
		C278.21,379.422,277.756,379.438,277.273,379.438"/>
	<path clip-path="url(#SVGID_2_)" fill="none" stroke="#007FC3" stroke-width="4.493" stroke-miterlimit="10" d="M210.299,335.97
		c34.143,33.6,58.726,42.484,66.974,42.484c0.445,0,0.854-0.015,1.227-0.068c0.43-0.016,39.023-1.828,93.235-95.734
		c20.418-35.389,33.052-66.289,37.555-91.856c3.586-20.354,0.814-31.288-0.57-35.074c-3.208-7.826-25.581-24.745-71.93-36.926
		c-9.478,34.665-26.403,73.227-50.303,114.627C262.271,275.383,236.63,309.889,210.299,335.97 M277.273,379.438
		c-8.425,0-33.477-9.009-68.028-43.122l-0.354-0.353l0.354-0.354c26.399-26.058,52.1-60.609,76.384-102.682
		c23.971-41.52,40.902-80.163,50.335-114.868l0.129-0.469l0.476,0.123c46.926,12.255,69.682,29.529,73.044,37.579h0.008l0.022,0.079
		c3.335,9.161,10.483,45.412-37.055,127.777c-15.721,27.232-40.214,63.889-67.585,83.902c-16.46,12.03-26.034,12.311-26.443,12.318
		C278.21,379.422,277.756,379.438,277.273,379.438"/>
	<path clip-path="url(#SVGID_2_)" fill="#99D7EC" d="M10.721,153.849c0,0-18.744,33.69,36.309,129.045
		c55.058,95.361,93.598,95.983,93.598,95.983s0.004,0,0.022,0.008c0.346,0.069,6.138,1.151,56.326,3.771
		c4.306,0.222,8.453,0.376,12.52,0.484c35.032,0.909,60.512-2.229,69.052-4.255l0.016-0.008c-8.003,1.06-34.192-8.574-68.969-42.907
		c-22.7-22.418-49.068-55.342-76.455-102.784c-27.097-46.932-42.384-85.376-50.517-115.465
		C35.321,129.702,13.799,146.371,10.721,153.849"/>
	<path clip-path="url(#SVGID_2_)" fill="#99D7EC" d="M10.721,153.849c0,0-18.744,33.69,36.309,129.045
		c55.058,95.361,93.598,95.983,93.598,95.983s0.004,0,0.022,0.008c0.346,0.069,6.138,1.151,56.326,3.771
		c4.306,0.222,8.453,0.376,12.52,0.484c35.032,0.909,60.512-2.229,69.052-4.255l0.016-0.008c-8.003,1.06-34.192-8.574-68.969-42.907
		c-22.7-22.418-49.068-55.342-76.455-102.784c-27.097-46.932-42.384-85.376-50.517-115.465
		C35.321,129.702,13.799,146.371,10.721,153.849"/>
	<path clip-path="url(#SVGID_2_)" fill="none" stroke="#FFFFFF" stroke-miterlimit="10" d="M10.721,153.849
		c0,0-18.744,33.69,36.309,129.045c55.058,95.361,93.598,95.983,93.598,95.983s0.004,0,0.022,0.008
		c0.346,0.069,6.138,1.151,56.326,3.771c4.306,0.222,8.453,0.376,12.52,0.484c35.032,0.909,60.512-2.229,69.052-4.255l0.016-0.008
		c-8.003,1.06-34.192-8.574-68.969-42.907c-22.7-22.418-49.068-55.342-76.455-102.784c-27.097-46.932-42.384-85.376-50.517-115.465
		C35.321,129.702,13.799,146.371,10.721,153.849"/>
	<path clip-path="url(#SVGID_2_)" fill="#99D7EC" d="M82.265,118.322c-45.879,11.698-67.952,28.099-71.089,35.718
		c-0.207,0.387-17.934,34.706,36.282,128.608c54.217,93.901,92.798,95.714,93.179,95.722c0.063,0.008,0.149,0.023,0.205,0.046
		c0.122,0.02,5.714,1.106,56.158,3.74c4.164,0.219,8.25,0.38,12.504,0.477c4.164,0.107,8.348,0.169,12.449,0.169
		c25.319,0,43.572-2.055,52.502-3.617c-10.404-1.667-33.915-11.974-65.21-42.869c-26.459-26.127-52.202-60.737-76.534-102.876
		C108.697,191.849,91.729,153.125,82.265,118.322 M221.96,383.792c-4.113,0-8.308-0.053-12.476-0.161
		c-4.262-0.104-8.363-0.258-12.535-0.477c-49.667-2.592-55.86-3.687-56.399-3.794c-0.326,0-9.908-0.284-26.364-12.311
		c-27.372-20.013-51.861-56.67-67.585-83.902c-15.72-27.233-35.225-66.768-38.861-100.477c-2.186-20.267,2.356-28.716,2.548-29.062
		c1.841-4.479,9.158-10.69,19.554-16.566c9.453-5.343,26.262-13.116,52.647-19.798c0.268-0.071,0.53,0.09,0.601,0.345
		c9.417,34.852,26.396,73.657,50.469,115.354c24.287,42.063,49.984,76.615,76.376,102.673
		c34.323,33.888,59.053,42.838,67.333,42.838c0.445,0,0.854-0.03,1.223-0.076c0.26-0.027,0.507,0.134,0.555,0.398
		c0.047,0.239-0.083,0.455-0.283,0.554c-0.032,0.016-0.063,0.023-0.091,0.03C272.196,380.896,252.037,383.792,221.96,383.792"/>
	<path clip-path="url(#SVGID_2_)" fill="none" stroke="#007FC3" stroke-width="4.493" stroke-miterlimit="10" d="M82.265,118.322
		c-45.879,11.698-67.952,28.099-71.089,35.718c-0.207,0.387-17.934,34.706,36.282,128.608
		c54.217,93.901,92.798,95.714,93.179,95.722c0.063,0.008,0.149,0.023,0.205,0.046c0.122,0.02,5.714,1.106,56.158,3.74
		c4.164,0.219,8.25,0.38,12.504,0.477c4.164,0.107,8.348,0.169,12.449,0.169c25.319,0,43.572-2.055,52.502-3.617
		c-10.404-1.667-33.915-11.974-65.21-42.869c-26.459-26.127-52.202-60.737-76.534-102.876
		C108.697,191.849,91.729,153.125,82.265,118.322 M221.96,383.792c-4.113,0-8.308-0.053-12.476-0.161
		c-4.262-0.104-8.363-0.258-12.535-0.477c-49.667-2.592-55.86-3.687-56.399-3.794c-0.326,0-9.908-0.284-26.364-12.311
		c-27.372-20.013-51.861-56.67-67.585-83.902c-15.72-27.233-35.225-66.768-38.861-100.477c-2.186-20.267,2.356-28.716,2.548-29.062
		c1.841-4.479,9.158-10.69,19.554-16.566c9.453-5.343,26.262-13.116,52.647-19.798c0.268-0.071,0.53,0.09,0.601,0.345
		c9.417,34.852,26.396,73.657,50.469,115.354c24.287,42.063,49.984,76.615,76.376,102.673
		c34.323,33.888,59.053,42.838,67.333,42.838c0.445,0,0.854-0.03,1.223-0.076c0.26-0.027,0.507,0.134,0.555,0.398
		c0.047,0.239-0.083,0.455-0.283,0.554c-0.032,0.016-0.063,0.023-0.091,0.03C272.196,380.896,252.037,383.792,221.96,383.792"/>
	<path clip-path="url(#SVGID_2_)" fill="#99D7EC" d="M79.688,37.761c0,0-3.082,3.209-31.447,46.914
		c-7.52,11.572-13.845,22.036-19.079,31.217c-10.508,18.434-16.55,31.65-18.43,37.925c0,0.008-0.008,0.023-0.008,0.032
		c3.077-7.471,24.595-24.148,71.893-36.128c30.747-7.794,72.36-13.602,126.979-13.602c54.393,0,95.999,6.027,126.84,14.077
		c47.766,12.479,69.656,29.837,72.735,37.339c0-0.017-0.009-0.047-0.017-0.063c-1.876-6.228-8.104-19.952-18.599-38.54
		c-5.398-9.586-11.917-20.434-19.597-32.262c-28.362-43.697-31.442-46.91-31.442-46.91S319.712,4.703,209.602,4.703
		C99.491,4.707,79.688,37.761,79.688,37.761"/>
	<path clip-path="url(#SVGID_2_)" fill="#99D7EC" d="M79.688,37.761c0,0-3.082,3.209-31.447,46.914
		c-7.52,11.572-13.845,22.036-19.079,31.217c-10.508,18.434-16.55,31.65-18.43,37.925c0,0.008-0.008,0.023-0.008,0.032
		c3.077-7.471,24.595-24.148,71.893-36.128c30.747-7.794,72.36-13.602,126.979-13.602c54.393,0,95.999,6.027,126.84,14.077
		c47.766,12.479,69.656,29.837,72.735,37.339c0-0.017-0.009-0.047-0.017-0.063c-1.876-6.228-8.104-19.952-18.599-38.54
		c-5.398-9.586-11.917-20.434-19.597-32.262c-28.362-43.697-31.442-46.91-31.442-46.91S319.712,4.703,209.602,4.703
		C99.491,4.707,79.688,37.761,79.688,37.761"/>
	<path clip-path="url(#SVGID_2_)" fill="none" stroke="#007FC3" stroke-miterlimit="10" d="M79.688,37.761
		c0,0-3.082,3.209-31.447,46.914c-7.52,11.572-13.845,22.036-19.079,31.217c-10.508,18.434-16.55,31.65-18.43,37.925
		c0,0.008-0.008,0.023-0.008,0.032c3.077-7.471,24.595-24.148,71.893-36.128c30.747-7.794,72.36-13.602,126.979-13.602
		c54.393,0,95.999,6.027,126.84,14.077c47.766,12.479,69.656,29.837,72.735,37.339c0-0.017-0.009-0.047-0.017-0.063
		c-1.876-6.228-8.104-19.952-18.599-38.54c-5.398-9.586-11.917-20.434-19.597-32.262c-28.362-43.697-31.442-46.91-31.442-46.91
		S319.712,4.703,209.602,4.703C99.491,4.707,79.688,37.761,79.688,37.761"/>
	<path clip-path="url(#SVGID_2_)" fill="#99D7EC" d="M209.598,103.625c48.431,0,91.166,4.746,126.972,14.093
		c40.858,10.674,63.397,25.148,70.762,34.034c-2.682-6.935-8.194-18.606-17.203-34.567c-5.882-10.427-12.472-21.279-19.588-32.237
		c-27.776-42.81-31.241-46.694-31.378-46.844c-0.259-0.409-21.12-32.905-129.557-32.905c-108.434,0-129.287,32.496-129.486,32.818
		c-0.198,0.237-3.668,4.117-31.457,46.931c-6.956,10.707-13.371,21.206-19.064,31.197c-8.974,15.737-14.43,27.241-17.053,34.005
		c7.257-8.633,29.514-22.666,69.956-32.901C118.134,108.209,160.899,103.625,209.598,103.625 M409.177,156.032
		c-0.194,0-0.378-0.123-0.454-0.307c-1.392-3.396-7.218-9.524-19.401-16.566c-9.563-5.529-26.519-13.562-53-20.482
		c-35.735-9.331-78.368-14.062-126.724-14.062c-48.615,0-91.298,4.57-126.86,13.587c-46.202,11.706-68.413,28.192-71.562,35.839
		c-0.09,0.217-0.326,0.338-0.551,0.293c-0.232-0.048-0.401-0.244-0.401-0.485c0-0.071,0.021-0.153,0.044-0.217
		c2.206-7.373,9.111-21.585,18.461-37.99c5.702-10.009,12.126-20.515,19.09-31.242c28.068-43.245,31.378-46.851,31.508-46.98
		c0.139-0.248,5.175-8.407,23.822-16.636c17.12-7.56,49.477-16.575,106.444-16.575c31.441,0,75.434,2.873,106.455,16.575
		c18.637,8.233,23.675,16.389,23.882,16.727c0.063,0.045,3.362,3.651,31.427,46.897c7.131,10.974,13.729,21.842,19.619,32.285
		c11.03,19.533,16.842,32.693,18.617,38.555c0.061,0.083,0.09,0.177,0.09,0.282C409.684,155.808,409.444,156.006,409.177,156.032"/>
	<path clip-path="url(#SVGID_2_)" fill="none" stroke="#007FC3" stroke-width="4.493" stroke-miterlimit="10" d="M209.598,103.625
		c48.431,0,91.166,4.746,126.972,14.093c40.858,10.674,63.397,25.148,70.762,34.034c-2.682-6.935-8.194-18.606-17.203-34.567
		c-5.882-10.427-12.472-21.279-19.588-32.237c-27.776-42.81-31.241-46.694-31.378-46.844c-0.259-0.409-21.12-32.905-129.557-32.905
		c-108.434,0-129.287,32.496-129.486,32.818c-0.198,0.237-3.668,4.117-31.457,46.931c-6.956,10.707-13.371,21.206-19.064,31.197
		c-8.974,15.737-14.43,27.241-17.053,34.005c7.257-8.633,29.514-22.666,69.956-32.901
		C118.134,108.209,160.899,103.625,209.598,103.625 M409.177,156.032c-0.194,0-0.378-0.123-0.454-0.307
		c-1.392-3.396-7.218-9.524-19.401-16.566c-9.563-5.529-26.519-13.562-53-20.482c-35.735-9.331-78.368-14.062-126.724-14.062
		c-48.615,0-91.298,4.57-126.86,13.587c-46.202,11.706-68.413,28.192-71.562,35.839c-0.09,0.217-0.326,0.338-0.551,0.293
		c-0.232-0.048-0.401-0.244-0.401-0.485c0-0.071,0.021-0.153,0.044-0.217c2.206-7.373,9.111-21.585,18.461-37.99
		c5.702-10.009,12.126-20.515,19.09-31.242c28.068-43.245,31.378-46.851,31.508-46.98c0.139-0.248,5.175-8.407,23.822-16.636
		c17.12-7.56,49.477-16.575,106.444-16.575c31.441,0,75.434,2.873,106.455,16.575c18.637,8.233,23.675,16.389,23.882,16.727
		c0.063,0.045,3.362,3.651,31.427,46.897c7.131,10.974,13.729,21.842,19.619,32.285c11.03,19.533,16.842,32.693,18.617,38.555
		c0.061,0.083,0.09,0.177,0.09,0.282C409.684,155.808,409.444,156.006,409.177,156.032z"/>
</g>
<g>
	<g>
		<rect x="642.229" y="264.273" fill="#99D7EC" width="6.942" height="61.094"/>
		<rect x="642.229" y="264.273" fill="#99D7EC" width="6.942" height="61.094"/>
		<path fill="#99D7EC" d="M699.29,318.441c-2.488,2.91-5.222,4.953-8.183,6.111c-2.965,1.16-6.405,1.744-10.322,1.752
			c-3.264,0-6.198-0.521-8.801-1.566c-2.619-1.045-4.834-2.465-6.639-4.238c-1.812-1.775-3.207-3.871-4.189-6.299
			c-0.976-2.426-1.467-5.008-1.475-7.748c0-2.91,0.534-5.592,1.59-8.049c1.064-2.451,2.546-4.555,4.439-6.312
			c1.893-1.752,4.159-3.111,6.758-4.086c2.611-0.969,5.457-1.451,8.544-1.459c2.899-0.008,5.576,0.43,8.006,1.32
			c2.427,0.883,4.528,2.174,6.279,3.871s3.103,3.764,4.055,6.205c0.952,2.457,1.428,5.246,1.428,8.363l0.007,2.027l-33.638,0.045
			c0.123,1.613,0.557,3.166,1.298,4.648c0.744,1.48,1.708,2.764,2.895,3.869c1.19,1.113,2.58,1.975,4.185,2.627
			c1.605,0.639,3.349,0.961,5.246,0.961c3.026-0.008,5.576-0.492,7.649-1.461c2.081-0.975,3.947-2.402,5.606-4.301L699.29,318.441z
			 M693.308,303.012c-0.123-3.232-1.283-5.812-3.483-7.756c-2.2-1.936-5.222-2.896-9.082-2.896c-3.852,0.008-6.961,0.977-9.338,2.92
			c-2.366,1.941-3.787,4.531-4.263,7.764L693.308,303.012z"/>
		<path fill="#99D7EC" d="M699.29,318.441c-2.488,2.91-5.222,4.953-8.183,6.111c-2.965,1.16-6.405,1.744-10.322,1.752
			c-3.264,0-6.198-0.521-8.801-1.566c-2.619-1.045-4.834-2.465-6.639-4.238c-1.812-1.775-3.207-3.871-4.189-6.299
			c-0.976-2.426-1.467-5.008-1.475-7.748c0-2.91,0.534-5.592,1.59-8.049c1.064-2.451,2.546-4.555,4.439-6.312
			c1.893-1.752,4.159-3.111,6.758-4.086c2.611-0.969,5.457-1.451,8.544-1.459c2.899-0.008,5.576,0.43,8.006,1.32
			c2.427,0.883,4.528,2.174,6.279,3.871s3.103,3.764,4.055,6.205c0.952,2.457,1.428,5.246,1.428,8.363l0.007,2.027l-33.638,0.045
			c0.123,1.613,0.557,3.166,1.298,4.648c0.744,1.48,1.708,2.764,2.895,3.869c1.19,1.113,2.58,1.975,4.185,2.627
			c1.605,0.639,3.349,0.961,5.246,0.961c3.026-0.008,5.576-0.492,7.649-1.461c2.081-0.975,3.947-2.402,5.606-4.301L699.29,318.441z
			 M693.308,303.012c-0.123-3.232-1.283-5.812-3.483-7.756c-2.2-1.936-5.222-2.896-9.082-2.896c-3.852,0.008-6.961,0.977-9.338,2.92
			c-2.366,1.941-3.787,4.531-4.263,7.764L693.308,303.012z"/>
		<path fill="#99D7EC" d="M710.111,292.322c2.135-1.99,4.662-3.465,7.595-4.408c2.941-0.945,5.914-1.422,8.939-1.422
			c6.167-0.008,10.622,1.307,13.356,3.939c2.727,2.635,4.092,6.652,4.1,12.035l0.023,16.242c0,1.076,0.062,2.197,0.186,3.357
			c0.114,1.166,0.268,2.219,0.445,3.195l-6.675,0.006c-0.237-0.859-0.376-1.82-0.399-2.871c-0.029-1.053-0.053-1.982-0.053-2.789
			h-0.178c-1.367,1.943-3.195,3.533-5.476,4.785c-2.273,1.229-5.022,1.867-8.225,1.867c-2.135,0.008-4.132-0.238-6.005-0.723
			c-1.867-0.484-3.502-1.199-4.892-2.135c-1.39-0.938-2.512-2.111-3.341-3.518c-0.83-1.398-1.245-3.02-1.252-4.838
			c0-3.135,0.891-5.592,2.665-7.357c1.773-1.781,3.986-3.104,6.627-3.979c2.635-0.861,5.484-1.398,8.533-1.629
			c3.057-0.215,5.859-0.33,8.409-0.33h2.674v-1.129c-0.008-2.742-0.914-4.822-2.727-6.213c-1.813-1.412-4.339-2.104-7.604-2.104
			c-2.258,0.008-4.47,0.346-6.628,1.029c-2.166,0.676-4.078,1.713-5.737,3.117L710.111,292.322z M730.232,307.09
			c-4.447,0.008-7.979,0.568-10.583,1.713c-2.611,1.137-3.917,2.994-3.909,5.576c0,2.373,0.883,4.055,2.626,5.053
			c1.751,0.99,3.932,1.49,6.543,1.49c2.02-0.008,3.779-0.324,5.292-0.938c1.521-0.621,2.772-1.451,3.779-2.473
			c1.014-1.021,1.774-2.229,2.311-3.602c0.539-1.375,0.83-2.842,0.893-4.4v-2.428L730.232,307.09z"/>
		<path fill="#99D7EC" d="M710.111,292.322c2.135-1.99,4.662-3.465,7.595-4.408c2.941-0.945,5.914-1.422,8.939-1.422
			c6.167-0.008,10.622,1.307,13.356,3.939c2.727,2.635,4.092,6.652,4.1,12.035l0.023,16.242c0,1.076,0.062,2.197,0.186,3.357
			c0.114,1.166,0.268,2.219,0.445,3.195l-6.675,0.006c-0.237-0.859-0.376-1.82-0.399-2.871c-0.029-1.053-0.053-1.982-0.053-2.789
			h-0.178c-1.367,1.943-3.195,3.533-5.476,4.785c-2.273,1.229-5.022,1.867-8.225,1.867c-2.135,0.008-4.132-0.238-6.005-0.723
			c-1.867-0.484-3.502-1.199-4.892-2.135c-1.39-0.938-2.512-2.111-3.341-3.518c-0.83-1.398-1.245-3.02-1.252-4.838
			c0-3.135,0.891-5.592,2.665-7.357c1.773-1.781,3.986-3.104,6.627-3.979c2.635-0.861,5.484-1.398,8.533-1.629
			c3.057-0.215,5.859-0.33,8.409-0.33h2.674v-1.129c-0.008-2.742-0.914-4.822-2.727-6.213c-1.813-1.412-4.339-2.104-7.604-2.104
			c-2.258,0.008-4.47,0.346-6.628,1.029c-2.166,0.676-4.078,1.713-5.737,3.117L710.111,292.322z M730.232,307.09
			c-4.447,0.008-7.979,0.568-10.583,1.713c-2.611,1.137-3.917,2.994-3.909,5.576c0,2.373,0.883,4.055,2.626,5.053
			c1.751,0.99,3.932,1.49,6.543,1.49c2.02-0.008,3.779-0.324,5.292-0.938c1.521-0.621,2.772-1.451,3.779-2.473
			c1.014-1.021,1.774-2.229,2.311-3.602c0.539-1.375,0.83-2.842,0.893-4.4v-2.428L730.232,307.09z"/>
		<path fill="#99D7EC" d="M790.551,318.494h-0.178c-1.299,2.158-3.356,3.979-6.174,5.461c-2.818,1.49-6.09,2.234-9.822,2.234
			c-2.903,0.008-5.631-0.49-8.188-1.482c-2.549-0.998-4.761-2.381-6.627-4.162c-1.874-1.773-3.342-3.879-4.41-6.297
			c-1.074-2.42-1.611-5.062-1.611-7.918c-0.008-2.857,0.521-5.498,1.59-7.926c1.068-2.42,2.542-4.523,4.446-6.312
			c1.89-1.775,4.186-3.156,6.89-4.17c2.695-1,5.666-1.498,8.931-1.506c3.019,0,5.79,0.568,8.317,1.697
			c2.519,1.121,4.73,2.703,6.635,4.754l0.178-0.008l-0.039-28.762l6.943-0.008l0.068,61.086l-6.941,0.008L790.551,318.494z
			 M790.543,306.291c-0.008-1.988-0.347-3.832-1.029-5.529c-0.684-1.697-1.683-3.18-2.988-4.439
			c-1.305-1.266-2.864-2.266-4.668-2.986c-1.82-0.738-3.856-1.092-6.1-1.084c-2.25,0-4.292,0.361-6.097,1.098
			c-1.813,0.723-3.356,1.729-4.671,2.996c-1.297,1.268-2.287,2.75-2.971,4.447c-0.676,1.697-1.021,3.547-1.014,5.537
			c0,1.996,0.346,3.832,1.029,5.529c0.684,1.689,1.674,3.18,2.986,4.445c1.299,1.262,2.857,2.26,4.67,2.98
			c1.812,0.73,3.848,1.092,6.105,1.084c2.234,0,4.277-0.361,6.083-1.1c1.812-0.721,3.355-1.727,4.669-2.986
			c1.306-1.275,2.297-2.758,2.973-4.455C790.204,310.131,790.543,308.281,790.543,306.291"/>
		<path fill="#99D7EC" d="M790.551,318.494h-0.178c-1.299,2.158-3.356,3.979-6.174,5.461c-2.818,1.49-6.09,2.234-9.822,2.234
			c-2.903,0.008-5.631-0.49-8.188-1.482c-2.549-0.998-4.761-2.381-6.627-4.162c-1.874-1.773-3.342-3.879-4.41-6.297
			c-1.074-2.42-1.611-5.062-1.611-7.918c-0.008-2.857,0.521-5.498,1.59-7.926c1.068-2.42,2.542-4.523,4.446-6.312
			c1.89-1.775,4.186-3.156,6.89-4.17c2.695-1,5.666-1.498,8.931-1.506c3.019,0,5.79,0.568,8.317,1.697
			c2.519,1.121,4.73,2.703,6.635,4.754l0.178-0.008l-0.039-28.762l6.943-0.008l0.068,61.086l-6.941,0.008L790.551,318.494z
			 M790.543,306.291c-0.008-1.988-0.347-3.832-1.029-5.529c-0.684-1.697-1.683-3.18-2.988-4.439
			c-1.305-1.266-2.864-2.266-4.668-2.986c-1.82-0.738-3.856-1.092-6.1-1.084c-2.25,0-4.292,0.361-6.097,1.098
			c-1.813,0.723-3.356,1.729-4.671,2.996c-1.297,1.268-2.287,2.75-2.971,4.447c-0.676,1.697-1.021,3.547-1.014,5.537
			c0,1.996,0.346,3.832,1.029,5.529c0.684,1.689,1.674,3.18,2.986,4.445c1.299,1.262,2.857,2.26,4.67,2.98
			c1.812,0.73,3.848,1.092,6.105,1.084c2.234,0,4.277-0.361,6.083-1.1c1.812-0.721,3.355-1.727,4.669-2.986
			c1.306-1.275,2.297-2.758,2.973-4.455C790.204,310.131,790.543,308.281,790.543,306.291z"/>
		<path fill="#99D7EC" d="M808.467,272.576c0-1.244,0.492-2.318,1.467-3.232c0.976-0.922,2.182-1.383,3.603-1.383
			c1.429,0,2.626,0.453,3.601,1.367c0.984,0.922,1.476,1.996,1.476,3.232c0,1.352-0.476,2.451-1.413,3.318
			c-0.952,0.861-2.174,1.289-3.656,1.289c-1.482,0.008-2.703-0.42-3.64-1.281C808.943,275.025,808.475,273.92,808.467,272.576
			 M810.088,287.361l6.942-0.008l0.046,37.807l-6.942,0.008L810.088,287.361z"/>
		<path fill="#99D7EC" d="M808.467,272.576c0-1.244,0.492-2.318,1.467-3.232c0.976-0.922,2.182-1.383,3.603-1.383
			c1.429,0,2.626,0.453,3.601,1.367c0.984,0.922,1.476,1.996,1.476,3.232c0,1.352-0.476,2.451-1.413,3.318
			c-0.952,0.861-2.174,1.289-3.656,1.289c-1.482,0.008-2.703-0.42-3.64-1.281C808.943,275.025,808.475,273.92,808.467,272.576z
			 M810.088,287.361l6.942-0.008l0.046,37.807l-6.942,0.008L810.088,287.361z"/>
		<path fill="#99D7EC" d="M829.939,296.307c0-1.721-0.068-3.348-0.184-4.854c-0.123-1.504-0.184-2.879-0.184-4.115l6.58-0.008
			c0.008,1.029,0.031,2.043,0.092,3.07c0.062,1.021,0.086,2.066,0.086,3.15h0.184c0.469-0.914,1.137-1.805,1.998-2.666
			c0.859-0.867,1.889-1.635,3.062-2.311c1.184-0.676,2.52-1.213,4.01-1.621c1.482-0.398,3.072-0.607,4.809-0.607
			c2.711-0.006,5.084,0.377,7.072,1.121c1.98,0.754,3.633,1.799,4.938,3.143c1.307,1.352,2.273,2.979,2.896,4.885
			c0.621,1.912,0.936,4.008,0.943,6.266l0.023,23.355l-6.943,0.006l-0.031-22.707c0-3.18-0.768-5.684-2.318-7.512
			s-3.947-2.742-7.211-2.742c-2.25,0.008-4.193,0.361-5.814,1.061c-1.635,0.713-2.971,1.703-4.008,3.002s-1.805,2.834-2.312,4.609
			c-0.498,1.781-0.752,3.746-0.744,5.896l0.023,18.424l-6.943,0.008L829.939,296.307z"/>
		<path fill="#99D7EC" d="M829.939,296.307c0-1.721-0.068-3.348-0.184-4.854c-0.123-1.504-0.184-2.879-0.184-4.115l6.58-0.008
			c0.008,1.029,0.031,2.043,0.092,3.07c0.062,1.021,0.086,2.066,0.086,3.15h0.184c0.469-0.914,1.137-1.805,1.998-2.666
			c0.859-0.867,1.889-1.635,3.062-2.311c1.184-0.676,2.52-1.213,4.01-1.621c1.482-0.398,3.072-0.607,4.809-0.607
			c2.711-0.006,5.084,0.377,7.072,1.121c1.98,0.754,3.633,1.799,4.938,3.143c1.307,1.352,2.273,2.979,2.896,4.885
			c0.621,1.912,0.936,4.008,0.943,6.266l0.023,23.355l-6.943,0.006l-0.031-22.707c0-3.18-0.768-5.684-2.318-7.512
			s-3.947-2.742-7.211-2.742c-2.25,0.008-4.193,0.361-5.814,1.061c-1.635,0.713-2.971,1.703-4.008,3.002s-1.805,2.834-2.312,4.609
			c-0.498,1.781-0.752,3.746-0.744,5.896l0.023,18.424l-6.943,0.008L829.939,296.307z"/>
		<path fill="#99D7EC" d="M920.086,323.355c0.008,6.896-1.928,12.135-5.805,15.721c-3.887,3.588-9.502,5.383-16.852,5.398
			c-4.092,0-7.785-0.537-11.082-1.604c-3.293-1.076-6.42-2.936-9.383-5.568l4.969-5.176c2.195,2.158,4.531,3.777,6.988,4.875
			c2.465,1.1,5.299,1.66,8.502,1.652c3.078,0,5.645-0.422,7.693-1.26c2.043-0.836,3.656-1.975,4.832-3.402
			c1.182-1.428,2.02-3.057,2.496-4.893c0.461-1.834,0.707-3.748,0.707-5.736l-0.008-4.846h-0.178
			c-1.658,2.428-3.832,4.201-6.49,5.338c-2.664,1.137-5.398,1.713-8.186,1.713c-3.256,0-6.252-0.477-8.986-1.443
			c-2.727-0.969-5.068-2.312-7.027-4.033c-1.957-1.721-3.479-3.771-4.545-6.137c-1.068-2.373-1.605-4.953-1.605-7.756
			c-0.008-3.072,0.521-5.844,1.582-8.324c1.068-2.482,2.564-4.57,4.492-6.268c1.92-1.697,4.248-3.01,6.975-3.932
			c2.725-0.914,5.752-1.375,9.076-1.391c1.422,0,2.842,0.146,4.27,0.438c1.422,0.301,2.805,0.752,4.133,1.383
			c1.336,0.607,2.543,1.391,3.609,2.334c1.068,0.945,1.959,2.027,2.682,3.266h0.176l-0.008-6.469l6.943-0.008L920.086,323.355z
			 M883.592,306.176c0,1.943,0.391,3.732,1.158,5.375c0.777,1.637,1.828,3.066,3.172,4.279c1.33,1.213,2.889,2.174,4.67,2.863
			c1.783,0.707,3.688,1.053,5.699,1.045c2.373,0,4.477-0.375,6.312-1.137c1.836-0.752,3.395-1.766,4.67-3.033
			c1.283-1.268,2.234-2.727,2.889-4.369c0.643-1.645,0.967-3.373,0.967-5.215c-0.008-2.043-0.361-3.918-1.076-5.613
			c-0.705-1.699-1.721-3.158-3.025-4.402c-1.305-1.229-2.873-2.188-4.717-2.855c-1.842-0.676-3.854-1.006-6.043-1.006
			c-2.205,0-4.201,0.367-6.006,1.098c-1.811,0.729-3.348,1.727-4.623,2.994s-2.266,2.75-2.973,4.447
			C883.945,302.344,883.592,304.188,883.592,306.176"/>
		<path fill="#99D7EC" d="M920.086,323.355c0.008,6.896-1.928,12.135-5.805,15.721c-3.887,3.588-9.502,5.383-16.852,5.398
			c-4.092,0-7.785-0.537-11.082-1.604c-3.293-1.076-6.42-2.936-9.383-5.568l4.969-5.176c2.195,2.158,4.531,3.777,6.988,4.875
			c2.465,1.1,5.299,1.66,8.502,1.652c3.078,0,5.645-0.422,7.693-1.26c2.043-0.836,3.656-1.975,4.832-3.402
			c1.182-1.428,2.02-3.057,2.496-4.893c0.461-1.834,0.707-3.748,0.707-5.736l-0.008-4.846h-0.178
			c-1.658,2.428-3.832,4.201-6.49,5.338c-2.664,1.137-5.398,1.713-8.186,1.713c-3.256,0-6.252-0.477-8.986-1.443
			c-2.727-0.969-5.068-2.312-7.027-4.033c-1.957-1.721-3.479-3.771-4.545-6.137c-1.068-2.373-1.605-4.953-1.605-7.756
			c-0.008-3.072,0.521-5.844,1.582-8.324c1.068-2.482,2.564-4.57,4.492-6.268c1.92-1.697,4.248-3.01,6.975-3.932
			c2.725-0.914,5.752-1.375,9.076-1.391c1.422,0,2.842,0.146,4.27,0.438c1.422,0.301,2.805,0.752,4.133,1.383
			c1.336,0.607,2.543,1.391,3.609,2.334c1.068,0.945,1.959,2.027,2.682,3.266h0.176l-0.008-6.469l6.943-0.008L920.086,323.355z
			 M883.592,306.176c0,1.943,0.391,3.732,1.158,5.375c0.777,1.637,1.828,3.066,3.172,4.279c1.33,1.213,2.889,2.174,4.67,2.863
			c1.783,0.707,3.688,1.053,5.699,1.045c2.373,0,4.477-0.375,6.312-1.137c1.836-0.752,3.395-1.766,4.67-3.033
			c1.283-1.268,2.234-2.727,2.889-4.369c0.643-1.645,0.967-3.373,0.967-5.215c-0.008-2.043-0.361-3.918-1.076-5.613
			c-0.705-1.699-1.721-3.158-3.025-4.402c-1.305-1.229-2.873-2.188-4.717-2.855c-1.842-0.676-3.854-1.006-6.043-1.006
			c-2.205,0-4.201,0.367-6.006,1.098c-1.811,0.729-3.348,1.727-4.623,2.994s-2.266,2.75-2.973,4.447
			C883.945,302.344,883.592,304.188,883.592,306.176z"/>
		<path fill="#99D7EC" d="M955.43,263.914l6.934-0.008l0.039,28.762h0.176c1.896-2.051,4.102-3.641,6.621-4.777
			c2.52-1.129,5.291-1.697,8.316-1.705c3.258,0,6.236,0.49,8.939,1.482c2.703,0.998,5,2.381,6.904,4.154
			c1.898,1.781,3.379,3.879,4.455,6.297c1.066,2.42,1.604,5.062,1.611,7.926c0,2.857-0.529,5.492-1.598,7.926
			c-1.059,2.42-2.525,4.523-4.391,6.305c-1.859,1.783-4.08,3.172-6.621,4.172c-2.557,0.998-5.283,1.504-8.186,1.504
			c-3.74,0.008-7.021-0.729-9.83-2.203c-2.828-1.475-4.895-3.295-6.199-5.453h-0.176l0.008,6.705l-6.936,0.008L955.43,263.914z
			 M962.418,306.092c0,1.996,0.338,3.84,1.029,5.529c0.684,1.697,1.674,3.18,2.986,4.447c1.307,1.252,2.865,2.258,4.678,2.979
			c1.805,0.723,3.84,1.092,6.09,1.084c2.258,0,4.285-0.369,6.098-1.1c1.805-0.729,3.363-1.727,4.67-2.986
			c1.297-1.275,2.297-2.758,2.971-4.463c0.686-1.695,1.021-3.531,1.021-5.521c-0.008-1.996-0.352-3.848-1.035-5.537
			c-0.684-1.697-1.674-3.188-2.98-4.438c-1.305-1.268-2.865-2.268-4.678-2.996c-1.812-0.73-3.838-1.092-6.098-1.084
			c-2.248,0-4.285,0.369-6.09,1.1c-1.805,0.736-3.363,1.727-4.66,3.002c-1.307,1.268-2.297,2.75-2.98,4.447
			S962.41,304.102,962.418,306.092"/>
		<path fill="#99D7EC" d="M955.43,263.914l6.934-0.008l0.039,28.762h0.176c1.896-2.051,4.102-3.641,6.621-4.777
			c2.52-1.129,5.291-1.697,8.316-1.705c3.258,0,6.236,0.49,8.939,1.482c2.703,0.998,5,2.381,6.904,4.154
			c1.898,1.781,3.379,3.879,4.455,6.297c1.066,2.42,1.604,5.062,1.611,7.926c0,2.857-0.529,5.492-1.598,7.926
			c-1.059,2.42-2.525,4.523-4.391,6.305c-1.859,1.783-4.08,3.172-6.621,4.172c-2.557,0.998-5.283,1.504-8.186,1.504
			c-3.74,0.008-7.021-0.729-9.83-2.203c-2.828-1.475-4.895-3.295-6.199-5.453h-0.176l0.008,6.705l-6.936,0.008L955.43,263.914z
			 M962.418,306.092c0,1.996,0.338,3.84,1.029,5.529c0.684,1.697,1.674,3.18,2.986,4.447c1.307,1.252,2.865,2.258,4.678,2.979
			c1.805,0.723,3.84,1.092,6.09,1.084c2.258,0,4.285-0.369,6.098-1.1c1.805-0.729,3.363-1.727,4.67-2.986
			c1.297-1.275,2.297-2.758,2.971-4.463c0.686-1.695,1.021-3.531,1.021-5.521c-0.008-1.996-0.352-3.848-1.035-5.537
			c-0.684-1.697-1.674-3.188-2.98-4.438c-1.305-1.268-2.865-2.268-4.678-2.996c-1.812-0.73-3.838-1.092-6.098-1.084
			c-2.248,0-4.285,0.369-6.09,1.1c-1.805,0.736-3.363,1.727-4.66,3.002c-1.307,1.268-2.297,2.75-2.98,4.447
			S962.41,304.102,962.418,306.092z"/>
		<path fill="#99D7EC" d="M1024.633,333.578c-0.715,1.604-1.438,3.072-2.174,4.4c-0.746,1.32-1.629,2.457-2.666,3.395
			c-1.045,0.936-2.279,1.666-3.732,2.189c-1.459,0.514-3.217,0.768-5.299,0.768c-1.006,0-2.059-0.055-3.164-0.154
			c-1.09-0.107-2.119-0.383-3.064-0.807l0.885-5.49c0.713,0.268,1.459,0.445,2.227,0.529c0.76,0.078,1.658,0.115,2.672,0.115
			c2.25-0.008,3.91-0.576,4.977-1.713c1.068-1.137,1.982-2.641,2.758-4.523l2.834-7.119l-17.303-38.037h8.094l12.934,29.629
			l0.176-0.008l12.342-29.668l7.557-0.008L1024.633,333.578z"/>
		<path fill="#99D7EC" d="M1024.633,333.578c-0.715,1.604-1.438,3.072-2.174,4.4c-0.746,1.32-1.629,2.457-2.666,3.395
			c-1.045,0.936-2.279,1.666-3.732,2.189c-1.459,0.514-3.217,0.768-5.299,0.768c-1.006,0-2.059-0.055-3.164-0.154
			c-1.09-0.107-2.119-0.383-3.064-0.807l0.885-5.49c0.713,0.268,1.459,0.445,2.227,0.529c0.76,0.078,1.658,0.115,2.672,0.115
			c2.25-0.008,3.91-0.576,4.977-1.713c1.068-1.137,1.982-2.641,2.758-4.523l2.834-7.119l-17.303-38.037h8.094l12.934,29.629
			l0.176-0.008l12.342-29.668l7.557-0.008L1024.633,333.578z"/>
		<path fill="#99D7EC" d="M1109.748,318.111h-0.178c-1.305,2.156-3.363,3.984-6.174,5.467c-2.818,1.49-6.098,2.229-9.83,2.229
			c-2.91,0.006-5.637-0.492-8.186-1.482c-2.551-0.99-4.762-2.373-6.629-4.154c-1.881-1.783-3.348-3.879-4.416-6.299
			c-1.068-2.418-1.605-5.061-1.611-7.918c0-2.857,0.529-5.5,1.596-7.926c1.061-2.418,2.535-4.523,4.439-6.305
			c1.891-1.781,4.186-3.172,6.889-4.178c2.695-0.998,5.668-1.498,8.932-1.506c3.033,0,5.807,0.561,8.318,1.682
			c2.533,1.137,4.738,2.719,6.643,4.762h0.176l-0.037-28.762l6.941-0.008l0.076,61.086l-6.941,0.008L1109.748,318.111z
			 M1109.732,305.916c0-1.99-0.346-3.85-1.035-5.531c-0.686-1.697-1.676-3.178-2.98-4.439c-1.314-1.266-2.865-2.264-4.67-2.994
			c-1.812-0.73-3.848-1.082-6.098-1.074c-2.25,0-4.293,0.359-6.098,1.09c-1.812,0.73-3.357,1.729-4.67,3.002
			c-1.297,1.268-2.295,2.75-2.973,4.447c-0.684,1.697-1.021,3.541-1.021,5.537c0.008,1.99,0.346,3.832,1.029,5.529
			c0.684,1.689,1.682,3.18,2.988,4.447c1.305,1.26,2.863,2.258,4.678,2.98c1.805,0.729,3.84,1.09,6.096,1.082
			c2.252,0,4.279-0.361,6.092-1.098c1.805-0.73,3.363-1.729,4.662-2.988c1.305-1.273,2.295-2.758,2.986-4.453
			C1109.395,309.754,1109.74,307.912,1109.732,305.916"/>
		<path fill="#99D7EC" d="M1109.748,318.111h-0.178c-1.305,2.156-3.363,3.984-6.174,5.467c-2.818,1.49-6.098,2.229-9.83,2.229
			c-2.91,0.006-5.637-0.492-8.186-1.482c-2.551-0.99-4.762-2.373-6.629-4.154c-1.881-1.783-3.348-3.879-4.416-6.299
			c-1.068-2.418-1.605-5.061-1.611-7.918c0-2.857,0.529-5.5,1.596-7.926c1.061-2.418,2.535-4.523,4.439-6.305
			c1.891-1.781,4.186-3.172,6.889-4.178c2.695-0.998,5.668-1.498,8.932-1.506c3.033,0,5.807,0.561,8.318,1.682
			c2.533,1.137,4.738,2.719,6.643,4.762h0.176l-0.037-28.762l6.941-0.008l0.076,61.086l-6.941,0.008L1109.748,318.111z
			 M1109.732,305.916c0-1.99-0.346-3.85-1.035-5.531c-0.686-1.697-1.676-3.178-2.98-4.439c-1.314-1.266-2.865-2.264-4.67-2.994
			c-1.812-0.73-3.848-1.082-6.098-1.074c-2.25,0-4.293,0.359-6.098,1.09c-1.812,0.73-3.357,1.729-4.67,3.002
			c-1.297,1.268-2.295,2.75-2.973,4.447c-0.684,1.697-1.021,3.541-1.021,5.537c0.008,1.99,0.346,3.832,1.029,5.529
			c0.684,1.689,1.682,3.18,2.988,4.447c1.305,1.26,2.863,2.258,4.678,2.98c1.805,0.729,3.84,1.09,6.096,1.082
			c2.252,0,4.279-0.361,6.092-1.098c1.805-0.73,3.363-1.729,4.662-2.988c1.305-1.273,2.295-2.758,2.986-4.453
			C1109.395,309.754,1109.74,307.912,1109.732,305.916z"/>
		<path fill="#99D7EC" d="M1165.795,317.887c-2.488,2.92-5.213,4.955-8.178,6.121c-2.957,1.16-6.406,1.744-10.314,1.744
			c-3.264,0.008-6.205-0.514-8.809-1.566c-2.611-1.045-4.824-2.457-6.637-4.232c-1.812-1.781-3.209-3.879-4.186-6.297
			c-0.982-2.428-1.473-5.016-1.48-7.756c0-2.912,0.529-5.592,1.596-8.041c1.061-2.459,2.543-4.562,4.439-6.312
			c1.891-1.752,4.146-3.119,6.758-4.094c2.604-0.961,5.453-1.451,8.533-1.451c2.91-0.008,5.576,0.43,8.01,1.312
			c2.436,0.891,4.523,2.182,6.281,3.869c1.744,1.699,3.096,3.771,4.057,6.223c0.943,2.449,1.42,5.236,1.428,8.363v2.02
			l-33.623,0.037c0.115,1.621,0.553,3.166,1.291,4.648c0.738,1.48,1.713,2.771,2.889,3.877c1.197,1.105,2.588,1.975,4.186,2.619
			c1.604,0.645,3.355,0.961,5.252,0.961c3.033,0,5.568-0.492,7.648-1.461c2.074-0.975,3.939-2.402,5.6-4.293L1165.795,317.887z
			 M1159.812,302.467c-0.123-3.232-1.281-5.82-3.471-7.764c-2.205-1.936-5.23-2.896-9.078-2.889c-3.861,0-6.973,0.967-9.338,2.918
			c-2.381,1.928-3.795,4.525-4.264,7.766L1159.812,302.467z"/>
		<path fill="#99D7EC" d="M1165.795,317.887c-2.488,2.92-5.213,4.955-8.178,6.121c-2.957,1.16-6.406,1.744-10.314,1.744
			c-3.264,0.008-6.205-0.514-8.809-1.566c-2.611-1.045-4.824-2.457-6.637-4.232c-1.812-1.781-3.209-3.879-4.186-6.297
			c-0.982-2.428-1.473-5.016-1.48-7.756c0-2.912,0.529-5.592,1.596-8.041c1.061-2.459,2.543-4.562,4.439-6.312
			c1.891-1.752,4.146-3.119,6.758-4.094c2.604-0.961,5.453-1.451,8.533-1.451c2.91-0.008,5.576,0.43,8.01,1.312
			c2.436,0.891,4.523,2.182,6.281,3.869c1.744,1.699,3.096,3.771,4.057,6.223c0.943,2.449,1.42,5.236,1.428,8.363v2.02
			l-33.623,0.037c0.115,1.621,0.553,3.166,1.291,4.648c0.738,1.48,1.713,2.771,2.889,3.877c1.197,1.105,2.588,1.975,4.186,2.619
			c1.604,0.645,3.355,0.961,5.252,0.961c3.033,0,5.568-0.492,7.648-1.461c2.074-0.975,3.939-2.402,5.6-4.293L1165.795,317.887z
			 M1159.812,302.467c-0.123-3.232-1.281-5.82-3.471-7.764c-2.205-1.936-5.23-2.896-9.078-2.889c-3.861,0-6.973,0.967-9.338,2.918
			c-2.381,1.928-3.795,4.525-4.264,7.766L1159.812,302.467z"/>
		<path fill="#99D7EC" d="M1178.068,314.801c1.359,1.566,2.865,2.803,4.492,3.717c1.637,0.906,3.703,1.367,6.189,1.367
			c1.068,0,2.15-0.115,3.242-0.33c1.098-0.215,2.088-0.568,2.979-1.053c0.893-0.484,1.605-1.09,2.137-1.812
			c0.537-0.744,0.799-1.613,0.799-2.633c-0.008-1.029-0.254-1.867-0.754-2.512c-0.514-0.645-1.184-1.199-2.012-1.658
			c-0.83-0.455-1.781-0.814-2.85-1.076c-1.076-0.27-2.174-0.514-3.287-0.73c-1.957-0.375-3.832-0.807-5.613-1.289
			c-1.775-0.484-3.342-1.113-4.67-1.883c-1.336-0.783-2.404-1.789-3.203-3.033c-0.807-1.236-1.205-2.818-1.205-4.762
			c-0.008-1.826,0.438-3.447,1.328-4.854c0.885-1.396,2.066-2.557,3.549-3.479c1.482-0.914,3.148-1.621,4.984-2.105
			c1.836-0.482,3.732-0.729,5.689-0.729c2.965-0.008,5.707,0.529,8.234,1.598c2.52,1.074,4.492,2.826,5.922,5.236l-5.783,3.496
			c-0.893-1.346-2.059-2.436-3.518-3.279c-1.453-0.83-3.219-1.236-5.299-1.236c-0.953,0-1.906,0.107-2.881,0.33
			c-0.982,0.215-1.865,0.537-2.627,0.967c-0.775,0.438-1.404,0.99-1.912,1.66c-0.498,0.674-0.752,1.443-0.752,2.311
			c0,0.799,0.283,1.49,0.844,2.051c0.568,0.568,1.344,1.066,2.32,1.498c0.975,0.43,2.104,0.807,3.379,1.121
			c1.273,0.322,2.596,0.598,3.963,0.807c1.834,0.322,3.586,0.744,5.252,1.252c1.66,0.506,3.111,1.189,4.355,2.041
			c1.252,0.861,2.227,1.943,2.941,3.227c0.715,1.297,1.076,2.887,1.076,4.77c0,2.158-0.469,3.986-1.422,5.498
			c-0.943,1.514-2.213,2.734-3.771,3.686c-1.574,0.938-3.363,1.629-5.338,2.059c-1.988,0.439-4.016,0.654-6.098,0.662
			c-3.555,0-6.627-0.492-9.207-1.482c-2.58-1-4.906-2.844-6.988-5.531L1178.068,314.801z"/>
		<path fill="#99D7EC" d="M1178.068,314.801c1.359,1.566,2.865,2.803,4.492,3.717c1.637,0.906,3.703,1.367,6.189,1.367
			c1.068,0,2.15-0.115,3.242-0.33c1.098-0.215,2.088-0.568,2.979-1.053c0.893-0.484,1.605-1.09,2.137-1.812
			c0.537-0.744,0.799-1.613,0.799-2.633c-0.008-1.029-0.254-1.867-0.754-2.512c-0.514-0.645-1.184-1.199-2.012-1.658
			c-0.83-0.455-1.781-0.814-2.85-1.076c-1.076-0.27-2.174-0.514-3.287-0.73c-1.957-0.375-3.832-0.807-5.613-1.289
			c-1.775-0.484-3.342-1.113-4.67-1.883c-1.336-0.783-2.404-1.789-3.203-3.033c-0.807-1.236-1.205-2.818-1.205-4.762
			c-0.008-1.826,0.438-3.447,1.328-4.854c0.885-1.396,2.066-2.557,3.549-3.479c1.482-0.914,3.148-1.621,4.984-2.105
			c1.836-0.482,3.732-0.729,5.689-0.729c2.965-0.008,5.707,0.529,8.234,1.598c2.52,1.074,4.492,2.826,5.922,5.236l-5.783,3.496
			c-0.893-1.346-2.059-2.436-3.518-3.279c-1.453-0.83-3.219-1.236-5.299-1.236c-0.953,0-1.906,0.107-2.881,0.33
			c-0.982,0.215-1.865,0.537-2.627,0.967c-0.775,0.438-1.404,0.99-1.912,1.66c-0.498,0.674-0.752,1.443-0.752,2.311
			c0,0.799,0.283,1.49,0.844,2.051c0.568,0.568,1.344,1.066,2.32,1.498c0.975,0.43,2.104,0.807,3.379,1.121
			c1.273,0.322,2.596,0.598,3.963,0.807c1.834,0.322,3.586,0.744,5.252,1.252c1.66,0.506,3.111,1.189,4.355,2.041
			c1.252,0.861,2.227,1.943,2.941,3.227c0.715,1.297,1.076,2.887,1.076,4.77c0,2.158-0.469,3.986-1.422,5.498
			c-0.943,1.514-2.213,2.734-3.771,3.686c-1.574,0.938-3.363,1.629-5.338,2.059c-1.988,0.439-4.016,0.654-6.098,0.662
			c-3.555,0-6.627-0.492-9.207-1.482c-2.58-1-4.906-2.844-6.988-5.531L1178.068,314.801z"/>
		<path fill="#99D7EC" d="M1213.156,272.1c0-1.244,0.484-2.318,1.469-3.24c0.975-0.914,2.174-1.375,3.594-1.375
			c1.428,0,2.633,0.445,3.609,1.367c0.975,0.922,1.475,1.99,1.475,3.232c0,1.346-0.477,2.451-1.422,3.318
			c-0.951,0.861-2.166,1.291-3.646,1.291c-1.482,0-2.703-0.422-3.648-1.283C1213.633,274.543,1213.156,273.443,1213.156,272.1
			 M1214.777,286.885l6.936-0.008l0.047,37.809l-6.936,0.008L1214.777,286.885z"/>
		<path fill="#99D7EC" d="M1213.156,272.1c0-1.244,0.484-2.318,1.469-3.24c0.975-0.914,2.174-1.375,3.594-1.375
			c1.428,0,2.633,0.445,3.609,1.367c0.975,0.922,1.475,1.99,1.475,3.232c0,1.346-0.477,2.451-1.422,3.318
			c-0.951,0.861-2.166,1.291-3.646,1.291c-1.482,0-2.703-0.422-3.648-1.283C1213.633,274.543,1213.156,273.443,1213.156,272.1z
			 M1214.777,286.885l6.936-0.008l0.047,37.809l-6.936,0.008L1214.777,286.885z"/>
		<path fill="#99D7EC" d="M1276.201,322.934c0.008,6.896-1.928,12.135-5.822,15.721c-3.877,3.586-9.492,5.391-16.848,5.398
			c-4.078,0-7.781-0.537-11.066-1.604c-3.295-1.076-6.422-2.928-9.395-5.568l4.977-5.178c2.197,2.15,4.523,3.779,6.99,4.885
			c2.457,1.1,5.291,1.652,8.486,1.645c3.086,0,5.658-0.424,7.695-1.26c2.049-0.838,3.654-1.975,4.846-3.402
			c1.182-1.428,2.012-3.057,2.48-4.893c0.475-1.834,0.715-3.748,0.715-5.736l-0.008-4.854h-0.186
			c-1.65,2.434-3.816,4.217-6.473,5.346c-2.682,1.135-5.4,1.703-8.188,1.703c-3.264,0.008-6.26-0.475-8.986-1.443
			c-2.732-0.959-5.076-2.312-7.035-4.023c-1.957-1.721-3.471-3.764-4.539-6.145c-1.074-2.365-1.611-4.953-1.611-7.75
			c-0.008-3.07,0.521-5.852,1.59-8.332c1.066-2.473,2.557-4.568,4.492-6.266c1.92-1.697,4.246-3.004,6.975-3.926
			c2.727-0.912,5.744-1.383,9.076-1.383c1.414,0,2.842,0.141,4.264,0.439c1.42,0.291,2.803,0.752,4.139,1.367
			c1.336,0.621,2.533,1.396,3.602,2.334c1.074,0.945,1.967,2.035,2.672,3.271h0.186l-0.008-6.465l6.941-0.008L1276.201,322.934z
			 M1239.707,305.762c0,1.943,0.385,3.732,1.16,5.375c0.775,1.645,1.828,3.057,3.164,4.279c1.336,1.213,2.895,2.164,4.676,2.863
			c1.773,0.699,3.672,1.045,5.691,1.045c2.373-0.008,4.477-0.385,6.312-1.145c1.836-0.754,3.395-1.766,4.67-3.033
			c1.266-1.268,2.227-2.711,2.879-4.355c0.654-1.65,0.977-3.387,0.977-5.221c0-2.051-0.361-3.918-1.068-5.623
			c-0.723-1.689-1.729-3.156-3.033-4.385c-1.305-1.244-2.879-2.205-4.715-2.873c-1.844-0.668-3.855-1.006-6.053-1.006
			c-2.195,0.016-4.193,0.369-6.006,1.098c-1.805,0.73-3.348,1.73-4.623,2.996c-1.266,1.268-2.266,2.75-2.965,4.447
			C1240.061,301.914,1239.707,303.773,1239.707,305.762"/>
		<path fill="#99D7EC" d="M1276.201,322.934c0.008,6.896-1.928,12.135-5.822,15.721c-3.877,3.586-9.492,5.391-16.848,5.398
			c-4.078,0-7.781-0.537-11.066-1.604c-3.295-1.076-6.422-2.928-9.395-5.568l4.977-5.178c2.197,2.15,4.523,3.779,6.99,4.885
			c2.457,1.1,5.291,1.652,8.486,1.645c3.086,0,5.658-0.424,7.695-1.26c2.049-0.838,3.654-1.975,4.846-3.402
			c1.182-1.428,2.012-3.057,2.48-4.893c0.475-1.834,0.715-3.748,0.715-5.736l-0.008-4.854h-0.186
			c-1.65,2.434-3.816,4.217-6.473,5.346c-2.682,1.135-5.4,1.703-8.188,1.703c-3.264,0.008-6.26-0.475-8.986-1.443
			c-2.732-0.959-5.076-2.312-7.035-4.023c-1.957-1.721-3.471-3.764-4.539-6.145c-1.074-2.365-1.611-4.953-1.611-7.75
			c-0.008-3.07,0.521-5.852,1.59-8.332c1.066-2.473,2.557-4.568,4.492-6.266c1.92-1.697,4.246-3.004,6.975-3.926
			c2.727-0.912,5.744-1.383,9.076-1.383c1.414,0,2.842,0.141,4.264,0.439c1.42,0.291,2.803,0.752,4.139,1.367
			c1.336,0.621,2.533,1.396,3.602,2.334c1.074,0.945,1.967,2.035,2.672,3.271h0.186l-0.008-6.465l6.941-0.008L1276.201,322.934z
			 M1239.707,305.762c0,1.943,0.385,3.732,1.16,5.375c0.775,1.645,1.828,3.057,3.164,4.279c1.336,1.213,2.895,2.164,4.676,2.863
			c1.773,0.699,3.672,1.045,5.691,1.045c2.373-0.008,4.477-0.385,6.312-1.145c1.836-0.754,3.395-1.766,4.67-3.033
			c1.266-1.268,2.227-2.711,2.879-4.355c0.654-1.65,0.977-3.387,0.977-5.221c0-2.051-0.361-3.918-1.068-5.623
			c-0.723-1.689-1.729-3.156-3.033-4.385c-1.305-1.244-2.879-2.205-4.715-2.873c-1.844-0.668-3.855-1.006-6.053-1.006
			c-2.195,0.016-4.193,0.369-6.006,1.098c-1.805,0.73-3.348,1.73-4.623,2.996c-1.266,1.268-2.266,2.75-2.965,4.447
			C1240.061,301.914,1239.707,303.773,1239.707,305.762z"/>
		<path fill="#99D7EC" d="M1288.09,295.77c0-1.729-0.062-3.348-0.184-4.854c-0.123-1.506-0.178-2.881-0.186-4.115l6.582-0.008
			c0.008,1.021,0.039,2.041,0.092,3.07c0.07,1.021,0.084,2.074,0.084,3.148h0.186c0.469-0.92,1.137-1.805,2.004-2.672
			c0.861-0.859,1.883-1.627,3.057-2.305c1.199-0.674,2.535-1.213,4.008-1.619c1.484-0.406,3.09-0.607,4.809-0.615
			c2.727,0,5.084,0.377,7.072,1.121c1.99,0.762,3.635,1.805,4.939,3.15c1.307,1.344,2.273,2.971,2.902,4.883
			c0.623,1.914,0.938,4.002,0.938,6.26l0.031,23.354l-6.943,0.016l-0.031-22.709c-0.006-3.18-0.768-5.684-2.326-7.52
			c-1.545-1.826-3.947-2.74-7.203-2.732c-2.25,0-4.188,0.352-5.822,1.053c-1.635,0.705-2.957,1.695-4.008,3.002
			c-1.037,1.289-1.807,2.834-2.305,4.607c-0.508,1.773-0.746,3.74-0.746,5.898l0.023,18.432l-6.949,0.008L1288.09,295.77z"/>
		<path fill="#99D7EC" d="M1288.09,295.77c0-1.729-0.062-3.348-0.184-4.854c-0.123-1.506-0.178-2.881-0.186-4.115l6.582-0.008
			c0.008,1.021,0.039,2.041,0.092,3.07c0.07,1.021,0.084,2.074,0.084,3.148h0.186c0.469-0.92,1.137-1.805,2.004-2.672
			c0.861-0.859,1.883-1.627,3.057-2.305c1.199-0.674,2.535-1.213,4.008-1.619c1.484-0.406,3.09-0.607,4.809-0.615
			c2.727,0,5.084,0.377,7.072,1.121c1.99,0.762,3.635,1.805,4.939,3.15c1.307,1.344,2.273,2.971,2.902,4.883
			c0.623,1.914,0.938,4.002,0.938,6.26l0.031,23.354l-6.943,0.016l-0.031-22.709c-0.006-3.18-0.768-5.684-2.326-7.52
			c-1.545-1.826-3.947-2.74-7.203-2.732c-2.25,0-4.188,0.352-5.822,1.053c-1.635,0.705-2.957,1.695-4.008,3.002
			c-1.037,1.289-1.807,2.834-2.305,4.607c-0.508,1.773-0.746,3.74-0.746,5.898l0.023,18.432l-6.949,0.008L1288.09,295.77z"/>
	</g>
	<g>
		<g>
			<path fill="#99D7EC" d="M597.801,152.617c-0.364-0.561-0.983-0.898-1.643-0.898h-10.821c-0.791,0-1.513,0.476-1.812,1.221
				l-24.821,59.657l-25.486-59.672c-0.311-0.737-1.025-1.205-1.808-1.205h-12.065c-0.668,0-1.282,0.337-1.651,0.906
				c-0.361,0.561-0.415,1.26-0.138,1.874l33.522,74.45c0.315,0.707,1.021,1.158,1.789,1.158h11.005c0.784,0,1.49-0.467,1.801-1.182
				l32.286-74.449C598.224,153.86,598.162,153.162,597.801,152.617z"/>
			<g>
				<path fill="#99D7EC" d="M624.711,151.718h-10.644c-1.083,0-1.966,0.891-1.966,1.966v74.457c0,1.082,0.883,1.965,1.966,1.965
					h10.644c1.087,0,1.966-0.883,1.966-1.965v-74.457C626.677,152.609,625.802,151.718,624.711,151.718z"/>
				<path fill="#99D7EC" d="M619.389,133.417c2.749,0,5.103-0.875,6.996-2.596c1.958-1.781,2.957-4.009,2.957-6.62
					c0-2.603-0.998-4.83-2.957-6.612c-3.805-3.456-10.176-3.471-14,0c-1.95,1.782-2.941,4.001-2.941,6.612
					c0,2.611,0.991,4.839,2.945,6.62C614.29,132.541,616.647,133.417,619.389,133.417z"/>
			</g>
			<path fill="#99D7EC" d="M689.437,150.635c-1.083-0.223-2.15-0.415-3.18-0.577c-1.083-0.176-2.235-0.261-3.417-0.261
				c-6.513,0-12.126,1.521-16.696,4.508c-2.973,1.951-5.599,4.293-7.872,6.997c-0.069-2.465-0.146-5.03-0.261-7.688
				c-0.046-1.067-0.902-1.889-1.959-1.889h-10.644c-1.087,0-1.966,0.891-1.966,1.966c0,0.999,0.058,2.419,0.185,4.239
				c0.115,1.751,0.203,3.64,0.261,5.652c0.054,2.059,0.146,4.101,0.269,6.098c0.1,1.95,0.169,3.609,0.169,4.968v53.491
				c0,1.082,0.883,1.965,1.966,1.965h10.645c1.083,0,1.966-0.883,1.966-1.965v-40.612c0-3.418,0.507-6.643,1.497-9.599
				c0.968-2.888,2.473-5.454,4.455-7.588c1.974-2.135,4.539-3.839,7.623-5.069c3.129-1.251,6.908-1.881,11.239-1.881
				c1.106,0,2.258,0.185,3.525,0.569c0.561,0.177,1.16,0.084,1.636-0.23c0.484-0.315,0.807-0.83,0.883-1.398l1.236-9.515
				C691.126,151.795,690.451,150.835,689.437,150.635z"/>
			<path fill="#99D7EC" d="M754.316,218.588c-0.062-0.615-0.407-1.168-0.938-1.484c-0.521-0.322-1.174-0.383-1.742-0.145
				c-1.768,0.705-3.679,1.297-5.661,1.766c-1.919,0.438-3.823,0.668-5.659,0.668c-3.072,0-5.368-0.736-7.02-2.227
				c-1.59-1.443-2.381-3.502-2.381-6.273v-46.541h21.449c1.084,0,1.967-0.875,1.967-1.966v-8.702c0-1.075-0.883-1.966-1.967-1.966
				h-21.449v-19.461c0-1.083-0.883-1.966-1.966-1.966h-10.644c-1.083,0-1.966,0.883-1.966,1.966v19.461h-15.775
				c-1.083,0-1.966,0.891-1.966,1.966v8.702c0,1.09,0.883,1.966,1.966,1.966h15.775v46.541c0,2.871,0.422,5.605,1.251,8.102
				c0.86,2.588,2.227,4.877,4.086,6.797c1.851,1.926,4.309,3.471,7.288,4.584c2.926,1.105,6.443,1.66,10.453,1.66
				c2.127,0,4.592-0.285,7.311-0.846c2.68-0.561,5.076-1.168,7.119-1.82c0.891-0.283,1.452-1.152,1.359-2.072L754.316,218.588z"/>
			<path fill="#99D7EC" d="M842.834,227.557c-0.023-0.938-0.076-2.166-0.176-3.67c-0.123-1.752-0.207-3.635-0.254-5.639
				c-0.07-2.064-0.152-4.094-0.27-6.121c-0.115-1.928-0.176-3.586-0.176-4.951v-53.492c0-1.083-0.875-1.966-1.967-1.966h-10.645
				c-1.082,0-1.965,0.883-1.965,1.966v37.217c0,4.884-0.699,9.169-2.08,12.74c-1.376,3.549-3.258,6.514-5.584,8.818
				c-2.328,2.311-5.123,4.047-8.318,5.176c-3.256,1.16-6.773,1.744-10.43,1.744c-3.924,0-7.119-0.607-9.484-1.799
				c-2.342-1.189-4.178-2.771-5.452-4.73c-1.344-2.043-2.288-4.369-2.833-6.965c-0.561-2.695-0.846-5.508-0.846-8.379v-43.83
				c0-1.09-0.875-1.966-1.967-1.966h-10.645c-1.066,0-1.965,0.875-1.965,1.966v44.312c0,4.201,0.438,8.365,1.29,12.336
				c0.876,4.131,2.58,7.832,5.069,11.027c2.488,3.188,5.959,5.805,10.329,7.756c4.315,1.936,9.868,2.912,16.495,2.912
				c6.943,0,13.134-1.582,18.395-4.701c3.549-2.111,6.436-4.523,8.646-7.219v0.008c0.055,2.588,0.146,5.291,0.262,8.109
				c0.055,1.053,0.914,1.881,1.967,1.881h10.645c0.008,0,0.023,0,0.045,0c1.076,0.039,2.004-0.867,2.004-1.965
				C842.918,227.934,842.896,227.74,842.834,227.557z"/>
			<g>
				<path fill="none" d="M911.646,204.494c0.783-2.887,1.174-5.836,1.174-8.748v-3.034h-9.744c-4.393,0-8.693,0.254-12.787,0.791
					c-4.033,0.516-7.703,1.391-10.898,2.62c-3.064,1.176-5.529,2.734-7.334,4.67c-1.682,1.781-2.488,3.979-2.488,6.711
					c0,1.896,0.445,3.533,1.383,4.984c0.959,1.514,2.211,2.773,3.746,3.748c1.59,1.021,3.41,1.805,5.393,2.344
					c2.012,0.553,4.084,0.812,6.137,0.812c5.406,0,9.867-0.707,13.262-2.104c3.381-1.391,6.09-3.195,8.072-5.375
					C909.533,209.732,910.908,207.236,911.646,204.494z"/>
				<path fill="#99D7EC" d="M927.812,227.289c-0.299-1.898-0.529-3.842-0.691-5.77c-0.176-2.127-0.322-4.408-0.438-6.857
					c-0.123-2.457-0.207-5.121-0.262-8.01c-0.068-2.873-0.084-6.137-0.084-9.775v-18.21c0-10.076-3.256-17.518-9.691-22.149
					c-6.229-4.462-14.615-6.728-24.914-6.728c-5.492,0-11.289,0.922-17.258,2.742c-6.027,1.851-11.174,4.616-15.266,8.217
					c-0.4,0.354-0.646,0.86-0.67,1.391c-0.023,0.53,0.17,1.051,0.531,1.444l6.213,6.604c0.699,0.737,1.844,0.822,2.635,0.208
					c6.826-5.284,14.836-7.957,23.814-7.957c6.205,0,11.389,1.298,15.436,3.863c3.811,2.442,5.66,6.428,5.66,12.203v2.542h-10.443
					c-4.078,0-8.824,0.246-14.123,0.738c-5.393,0.5-10.576,1.62-15.367,3.333c-4.932,1.759-9.156,4.455-12.559,7.979
					c-3.531,3.686-5.328,8.702-5.328,14.899c0,4.338,0.967,8.102,2.863,11.174c1.852,3.033,4.285,5.537,7.25,7.465
					c2.902,1.889,6.221,3.279,9.846,4.141c3.564,0.836,7.25,1.252,10.914,1.252c7.25,0,13.361-1.207,18.17-3.588
					c3.424-1.697,6.482-4.092,9.131-7.156c0.176,2.549,0.492,4.984,0.93,7.232c0.184,0.916,0.99,1.59,1.928,1.59h9.938
					c0.008,0,0.023,0,0.037,0c0.984,0,2.006-0.875,2.006-1.965C928.004,227.834,927.943,227.541,927.812,227.289z M886.227,219.393
					c-2.053,0-4.133-0.26-6.137-0.812c-1.982-0.539-3.811-1.322-5.393-2.344c-1.543-0.975-2.787-2.234-3.746-3.748
					c-0.93-1.451-1.391-3.088-1.391-4.984c0-2.732,0.807-4.93,2.496-6.711c1.805-1.928,4.27-3.494,7.326-4.67
					c3.195-1.229,6.865-2.104,10.898-2.62c4.094-0.537,8.395-0.791,12.787-0.791h9.744v3.034c0,2.904-0.391,5.854-1.174,8.748
					c-0.738,2.742-2.111,5.238-4.086,7.412c-1.982,2.188-4.678,3.992-8.07,5.383C896.094,218.686,891.633,219.393,886.227,219.393z"
					/>
			</g>
			<path fill="#99D7EC" d="M956.58,104.349h-10.629c-1.09,0-1.965,0.883-1.965,1.966v121.818c0,1.082,0.875,1.965,1.965,1.965
				h10.629c1.092,0,1.967-0.883,1.967-1.965V106.314C958.547,105.232,957.68,104.349,956.58,104.349z"/>
			<g>
				<path fill="none" d="M1047.234,170.526c-2.711-2.458-5.977-4.439-9.686-5.906c-3.701-1.458-7.732-2.196-11.965-2.196
					c-4.23,0-8.264,0.738-11.957,2.196c-3.725,1.459-6.973,3.449-9.691,5.906c-2.695,2.442-4.869,5.384-6.475,8.74
					c-1.566,3.317-2.373,6.904-2.373,10.674c0,3.786,0.799,7.366,2.373,10.683c1.598,3.357,3.779,6.307,6.475,8.74
					c2.703,2.457,5.967,4.455,9.691,5.906c7.412,2.918,16.488,2.926,23.914,0c3.717-1.459,6.982-3.449,9.701-5.906
					c2.695-2.449,4.861-5.383,6.465-8.74c1.576-3.324,2.375-6.918,2.375-10.683c0-3.756-0.799-7.341-2.375-10.674
					C1052.104,175.917,1049.93,172.976,1047.234,170.526z"/>
				<path fill="#99D7EC" d="M1068.338,151.718h-10.645c-1.09,0-1.965,0.891-1.965,1.966v7.457
					c-2.781-2.933-6.137-5.375-10.031-7.288c-5.514-2.696-12.041-4.063-19.398-4.063c-6.236,0-12.203,1.067-17.74,3.195
					c-5.521,2.127-10.406,4.999-14.508,8.578c-4.139,3.594-7.457,7.864-9.867,12.687c-2.436,4.884-3.672,10.168-3.672,15.706
					c0,5.545,1.229,10.821,3.672,15.706c2.41,4.822,5.729,9.107,9.859,12.764c4.117,3.633,9.008,6.52,14.539,8.578
					c5.514,2.066,11.473,3.109,17.717,3.109c7.357,0,13.885-1.375,19.398-4.07c3.887-1.904,7.242-4.346,10.031-7.279v5.184
					c0,1.375-0.062,3.172-0.178,5.375c-0.105,2.113-0.477,4.4-1.09,6.789c-0.598,2.344-1.559,4.746-2.842,7.127
					c-1.244,2.305-3.002,4.447-5.23,6.367c-2.227,1.92-5.123,3.518-8.578,4.701c-3.518,1.221-7.934,1.842-13.109,1.842
					c-6.105,0-11.949-1.098-17.373-3.256c-5.32-2.119-9.822-5.49-13.361-10.014c-0.33-0.424-0.822-0.699-1.352-0.746
					c-0.568-0.061-1.068,0.115-1.475,0.461l-8.34,7.096c-0.393,0.338-0.646,0.822-0.684,1.344c-0.039,0.523,0.129,1.037,0.469,1.438
					c2.24,2.588,4.906,4.938,7.934,6.965c3.01,2.006,6.396,3.717,10.074,5.115c3.648,1.383,7.557,2.449,11.613,3.164
					c4.055,0.715,8.264,1.076,12.502,1.076c4.24,0,9.025-0.562,14.238-1.652c5.322-1.129,10.377-3.355,14.998-6.613
					c4.67-3.277,8.604-7.955,11.705-13.906c3.096-5.961,4.662-13.793,4.662-23.309v-69.619
					C1070.305,152.609,1069.43,151.718,1068.338,151.718z M1056.082,189.94c0,3.764-0.799,7.358-2.381,10.683
					c-1.59,3.35-3.771,6.291-6.467,8.74c-2.703,2.457-5.977,4.439-9.699,5.906c-7.42,2.918-16.504,2.91-23.916,0
					c-3.725-1.459-6.973-3.449-9.691-5.906c-2.688-2.441-4.869-5.383-6.467-8.74c-1.574-3.316-2.373-6.897-2.373-10.683
					c0-3.77,0.791-7.357,2.373-10.674c1.598-3.356,3.779-6.298,6.467-8.74c2.711-2.458,5.967-4.447,9.691-5.906
					c3.701-1.458,7.727-2.204,11.957-2.204c4.232,0,8.264,0.738,11.965,2.204c3.717,1.467,6.982,3.449,9.686,5.906
					c2.703,2.45,4.869,5.391,6.475,8.74C1055.283,182.599,1056.082,186.185,1056.082,189.94z"/>
			</g>
			<g>
				<path fill="none" d="M1140.521,169.113c-2.373-2.042-5.199-3.687-8.441-4.877c-3.246-1.205-6.75-1.805-10.404-1.805
					c-5.439,0-9.969,0.999-13.502,2.965c-3.609,2.02-6.482,4.347-8.562,6.935c-2.105,2.611-3.609,5.153-4.471,7.565
					c-0.422,1.183-0.713,2.088-0.906,2.772h53.752c-0.23-2.281-0.867-4.455-1.896-6.489
					C1144.723,173.505,1142.848,171.14,1140.521,169.113z"/>
				<path fill="#99D7EC" d="M1160.043,173.114c-1.75-4.416-4.369-8.417-7.803-11.873c-3.418-3.44-7.688-6.244-12.695-8.325
					c-4.998-2.066-10.828-3.126-17.34-3.126c-6.26,0-12.051,1.053-17.227,3.118c-5.184,2.074-9.752,4.984-13.57,8.617
					c-3.855,3.663-6.865,8.033-8.969,12.987c-2.105,4.945-3.172,10.405-3.172,16.235c0,6.036,1.037,11.628,3.062,16.62
					c2.051,5.006,5.039,9.414,8.902,13.086c3.84,3.656,8.463,6.527,13.777,8.547c5.291,2.021,11.258,3.035,17.732,3.035
					c7.557,0,14.576-1.291,20.875-3.857c6.404-2.596,11.865-6.949,16.195-12.908c0.629-0.869,0.453-2.066-0.398-2.719l-7.803-5.959
					c-0.43-0.332-0.992-0.469-1.521-0.377c-0.537,0.084-1.014,0.398-1.312,0.852c-2.504,3.748-6.166,6.781-10.891,8.971
					c-4.822,2.227-9.852,3.363-14.975,3.363c-5.906,0-10.76-0.998-14.408-2.979c-3.695-2.006-6.682-4.432-8.885-7.229
					c-2.197-2.779-3.709-5.666-4.523-8.578c-0.568-2.035-0.938-3.809-1.131-5.323h66.738c1.084,0,1.967-0.882,1.967-1.965v-6.766
					C1162.662,182.046,1161.779,177.53,1160.043,173.114z M1094.234,182.66c0.193-0.683,0.484-1.59,0.898-2.772
					c0.869-2.404,2.373-4.954,4.479-7.565c2.064-2.58,4.953-4.915,8.562-6.935c3.518-1.966,8.062-2.965,13.502-2.965
					c3.662,0,7.158,0.607,10.404,1.805c3.227,1.198,6.068,2.842,8.434,4.885c2.342,2.02,4.201,4.393,5.568,7.058
					c1.043,2.035,1.674,4.208,1.896,6.481L1094.234,182.66L1094.234,182.66z"/>
			</g>
			<path fill="#99D7EC" d="M1246.727,171.463c-0.953-4.14-2.688-7.833-5.162-11.013c-2.488-3.187-5.928-5.798-10.229-7.749
				c-4.254-1.936-9.777-2.911-16.42-2.911c-6.949,0-13.141,1.582-18.393,4.708c-3.541,2.104-6.438,4.524-8.648,7.219
				c0-0.008,0-0.015,0-0.015c-0.053-2.596-0.146-5.292-0.26-8.094c-0.047-1.06-0.908-1.889-1.967-1.889h-10.645
				c-1.076,0-1.965,0.891-1.965,1.966c0,0.999,0.068,2.419,0.184,4.239c0.115,1.751,0.199,3.64,0.26,5.652
				c0.055,2.059,0.154,4.101,0.27,6.106c0.107,1.942,0.176,3.601,0.176,4.96v53.491c0,1.082,0.877,1.965,1.967,1.965h10.637
				c1.092,0,1.965-0.883,1.965-1.965v-37.224c0-4.885,0.701-9.178,2.082-12.734c1.375-3.541,3.256-6.512,5.584-8.824
				c2.326-2.312,5.129-4.055,8.316-5.185c3.25-1.151,6.775-1.728,10.43-1.728c3.934,0,7.127,0.599,9.492,1.797
				c2.328,1.183,4.17,2.765,5.445,4.716c1.344,2.05,2.289,4.393,2.834,6.973c0.561,2.704,0.844,5.529,0.844,8.386v43.822
				c0,1.082,0.885,1.965,1.967,1.965h10.645c1.084,0,1.965-0.883,1.965-1.965v-44.313
				C1248.1,179.596,1247.641,175.441,1246.727,171.463z"/>
			<g>
				<path fill="#99D7EC" d="M1278.359,151.718h-10.637c-1.092,0-1.965,0.891-1.965,1.966v74.457c0,1.082,0.873,1.965,1.965,1.965
					h10.637c1.09,0,1.967-0.883,1.967-1.965v-74.457C1280.326,152.609,1279.457,151.718,1278.359,151.718z"/>
				<path fill="#99D7EC" d="M1273.045,133.417c2.734,0,5.1-0.875,6.996-2.596c1.959-1.774,2.949-4.009,2.949-6.62
					c0-2.611-0.99-4.83-2.949-6.62c-3.824-3.441-10.184-3.456-14.008,0.007c-1.959,1.782-2.949,4.001-2.949,6.612
					c0,2.611,0.99,4.839,2.949,6.62C1267.945,132.541,1270.295,133.417,1273.045,133.417z"/>
			</g>
			<path fill="#99D7EC" d="M1372.146,227.557c-0.016-0.938-0.086-2.166-0.176-3.662c-0.109-1.752-0.209-3.635-0.256-5.652
				c-0.068-2.059-0.152-4.088-0.268-6.115c-0.115-1.928-0.17-3.586-0.17-4.951v-53.492c0-1.083-0.883-1.966-1.965-1.966h-10.645
				c-1.09,0-1.967,0.883-1.967,1.966v37.217c0,4.876-0.705,9.169-2.088,12.74c-1.367,3.541-3.242,6.506-5.584,8.818
				c-2.318,2.318-5.121,4.047-8.316,5.176c-3.264,1.16-6.768,1.744-10.43,1.744c-3.924,0-7.119-0.607-9.492-1.799
				c-2.334-1.189-4.17-2.764-5.453-4.73c-1.336-2.043-2.289-4.377-2.818-6.965c-0.561-2.688-0.846-5.5-0.846-8.379v-43.83
				c0-1.09-0.881-1.966-1.965-1.966h-10.645c-1.082,0-1.967,0.875-1.967,1.966v44.312c0,4.225,0.439,8.389,1.283,12.336
				c0.891,4.146,2.596,7.848,5.076,11.027c2.488,3.188,5.961,5.805,10.322,7.756c4.324,1.936,9.875,2.912,16.504,2.912
				c6.943,0,13.133-1.582,18.393-4.701c3.541-2.111,6.428-4.523,8.641-7.219c0,0,0,0.008,0,0.016
				c0.062,2.58,0.152,5.283,0.262,8.102c0.053,1.053,0.906,1.881,1.965,1.881h10.645c0.039,0,0.068,0,0.076,0
				c1.092,0,1.967-0.883,1.967-1.965C1372.23,227.934,1372.207,227.74,1372.146,227.557z"/>
			<path fill="#99D7EC" d="M1445.158,194.034c-2.619-2.956-5.883-5.245-9.691-6.796c-3.656-1.498-7.75-2.588-12.15-3.272
				c-4.162-0.622-8.033-1.39-11.512-2.296c-3.316-0.844-6.137-2.035-8.363-3.524c-1.889-1.244-2.758-3.08-2.758-5.775
				c0-1.513,0.424-2.811,1.299-3.978c0.953-1.283,2.158-2.35,3.578-3.188c1.482-0.868,3.195-1.559,5.092-2.05
				c1.891-0.492,3.732-0.738,5.453-0.738c4.469,0,8.102,0.799,10.797,2.373c2.705,1.598,5.008,3.994,6.836,7.127
				c0.537,0.899,1.697,1.229,2.635,0.737l9.576-5.153c0.461-0.254,0.807-0.675,0.953-1.183c0.145-0.507,0.084-1.061-0.178-1.521
				c-2.91-5.176-7.057-9.039-12.326-11.45c-5.146-2.374-11.297-3.564-18.293-3.564c-3.578,0-7.143,0.454-10.605,1.352
				c-3.518,0.914-6.729,2.334-9.555,4.208c-2.887,1.92-5.26,4.37-7.057,7.289c-1.844,2.987-2.781,6.535-2.781,10.543
				c0,5.223,1.406,9.37,4.17,12.304c2.598,2.765,5.846,4.954,9.646,6.505c3.67,1.512,7.758,2.626,12.135,3.355
				c4.199,0.692,8.072,1.514,11.512,2.45c3.316,0.9,6.121,2.158,8.332,3.732c1.889,1.344,2.812,3.355,2.812,6.137
				c0,1.766-0.439,3.279-1.344,4.615c-1,1.467-2.244,2.695-3.811,3.74c-1.598,1.066-3.449,1.896-5.49,2.48
				c-6.59,1.891-13.225,0.791-19.178-2.057c-4.039-1.938-7.004-4.648-9.07-8.287c-0.268-0.469-0.707-0.807-1.221-0.938
				c-0.514-0.139-1.068-0.053-1.535,0.238l-9.4,5.799c-0.445,0.275-0.76,0.713-0.891,1.221c-0.117,0.514-0.031,1.051,0.246,1.49
				c3.393,5.49,8.264,9.592,14.475,12.217c6.061,2.559,12.865,3.857,20.184,3.857c4.055,0,7.996-0.508,11.705-1.514
				c3.756-1.037,7.143-2.588,10.084-4.646c3.025-2.098,5.436-4.73,7.156-7.811c1.75-3.125,2.643-6.828,2.643-11.045
				C1449.283,201.506,1447.9,197.137,1445.158,194.034z"/>
		</g>
		<path fill="#99D7EC" d="M974.816,249.275H550.908c-0.354,0-0.645-0.291-0.645-0.652c0-0.354,0.292-0.645,0.645-0.645h423.909
			c0.361,0,0.652,0.291,0.652,0.645C975.469,248.984,975.178,249.275,974.816,249.275"/>
		<path fill="#99D7EC" d="M1444.537,249.283h-370.988c-0.359,0-0.645-0.291-0.645-0.652c0-0.354,0.285-0.645,0.645-0.645h370.988
			c0.359,0,0.652,0.291,0.652,0.645C1445.189,248.992,1444.896,249.283,1444.537,249.283"/>
	</g>
</g>
</svg>
