<?xml version="1.0" encoding="UTF-8"?>
<svg width="313px" height="82px" viewBox="0 0 313 82" version="1.1" xmlns="http://www.w3.org/2000/svg" xmlns:xlink="http://www.w3.org/1999/xlink">
    <!-- Generator: Sketch 52.6 (67491) - http://www.bohemiancoding.com/sketch -->
    <title>ddd-logo-blue-source</title>
    <desc>Created with Sketch.</desc>
    <g id="Page-1" stroke="none" stroke-width="1" fill="none" fill-rule="evenodd">
        <g id="ddd-logo-blue-source" fill="#0082C8" fill-rule="nonzero">
            <path d="M25.64,14.07 L29.77,9.94 C22.64,3.76 13.34,0.01 3.17,0.01 C2.19,0.01 1.23,0.06 0.27,0.13 L0.27,5.95 C1.23,5.87 2.19,5.82 3.17,5.82 C11.73,5.82 19.57,8.93 25.64,14.07 M43.8,40.65 C43.8,30.47 40.05,21.18 33.87,14.05 L29.74,18.18 C34.88,24.25 37.99,32.1 37.99,40.66 C37.99,58.89 23.91,73.88 6.06,75.36 L6.06,69.53 C11.9,68.95 17.23,66.65 21.53,63.13 L17.38,58.98 C14.17,61.48 10.29,63.14 6.07,63.68 L6.07,57.82 C14.3,56.44 20.58,49.29 20.58,40.66 C20.58,36.9 19.38,33.43 17.35,30.58 L13.15,34.77 C14.17,36.5 14.77,38.51 14.77,40.66 C14.77,46.06 11.06,50.6 6.06,51.89 L6.06,29.43 C7.12,29.71 8.12,30.12 9.04,30.66 L13.24,26.47 C11.14,24.98 8.7,23.93 6.06,23.49 L6.06,17.64 C17.5,19.08 26.38,28.84 26.38,40.66 C26.38,46.02 24.54,50.94 21.48,54.88 L25.63,59.03 C29.73,54.03 32.18,47.63 32.18,40.66 C32.18,24.63 19.18,11.63 3.15,11.63 C2.17,11.63 1.2,11.68 0.25,11.78 L0.25,81.19 C1.21,81.26 2.17,81.31 3.15,81.31 C25.61,81.29 43.8,63.09 43.8,40.65" id="Shape"></path>
            <path d="M296.26,33.67 L296.26,19.67 L300.21,19.67 C301.25,19.67 302.2,19.84 303.06,20.18 C303.92,20.52 304.66,21 305.28,21.62 C305.9,22.24 306.37,22.97 306.71,23.83 C307.04,24.68 307.21,25.63 307.21,26.67 L307.21,26.74 C307.21,27.76 307.04,28.69 306.71,29.54 C306.38,30.39 305.9,31.13 305.28,31.75 C304.66,32.37 303.92,32.85 303.06,33.18 C302.2,33.51 301.25,33.68 300.21,33.68 L296.26,33.68 L296.26,33.67 Z M291.16,38.28 L300.22,38.28 C302.06,38.28 303.72,37.98 305.23,37.38 C306.73,36.78 308.03,35.96 309.13,34.92 C310.22,33.88 311.07,32.65 311.67,31.24 C312.27,29.82 312.57,28.3 312.57,26.66 L312.57,26.59 C312.57,24.95 312.27,23.43 311.67,22.03 C311.07,20.62 310.23,19.4 309.13,18.36 C308.03,17.32 306.74,16.51 305.23,15.92 C303.73,15.33 302.06,15.04 300.22,15.04 L291.16,15.04 L291.16,38.28 Z M270.32,33.67 L270.32,19.67 L274.27,19.67 C275.31,19.67 276.26,19.84 277.12,20.18 C277.98,20.52 278.72,21 279.34,21.62 C279.96,22.24 280.44,22.97 280.77,23.83 C281.1,24.68 281.27,25.63 281.27,26.67 L281.27,26.74 C281.27,27.76 281.1,28.69 280.77,29.54 C280.44,30.39 279.96,31.13 279.34,31.75 C278.72,32.37 277.98,32.85 277.12,33.18 C276.26,33.51 275.31,33.68 274.27,33.68 L270.32,33.68 L270.32,33.67 Z M265.21,38.28 L274.27,38.28 C276.11,38.28 277.78,37.98 279.28,37.38 C280.78,36.78 282.08,35.96 283.18,34.92 C284.27,33.88 285.12,32.65 285.72,31.24 C286.32,29.82 286.62,28.3 286.62,26.66 L286.62,26.59 C286.62,24.95 286.32,23.43 285.72,22.03 C285.12,20.62 284.28,19.4 283.18,18.36 C282.09,17.32 280.79,16.51 279.28,15.92 C277.78,15.33 276.11,15.04 274.27,15.04 L265.21,15.04 L265.21,38.28 Z M244.38,33.67 L244.38,19.67 L248.33,19.67 C249.37,19.67 250.32,19.84 251.18,20.18 C252.04,20.52 252.78,21 253.4,21.62 C254.02,22.24 254.49,22.97 254.83,23.83 C255.16,24.68 255.33,25.63 255.33,26.67 L255.33,26.74 C255.33,27.76 255.16,28.69 254.83,29.54 C254.5,30.39 254.02,31.13 253.4,31.75 C252.78,32.37 252.04,32.85 251.18,33.18 C250.32,33.51 249.37,33.68 248.33,33.68 L244.38,33.68 L244.38,33.67 Z M239.27,38.28 L248.33,38.28 C250.16,38.28 251.83,37.98 253.34,37.38 C254.84,36.78 256.14,35.96 257.24,34.92 C258.33,33.88 259.18,32.65 259.78,31.24 C260.38,29.82 260.68,28.3 260.68,26.66 L260.68,26.59 C260.68,24.95 260.38,23.43 259.78,22.03 C259.18,20.62 258.34,19.4 257.24,18.36 C256.14,17.32 254.85,16.51 253.34,15.92 C251.84,15.33 250.17,15.04 248.33,15.04 L239.27,15.04 L239.27,38.28 Z M207.09,38.28 L224.74,38.28 L224.74,33.74 L212.13,33.74 L212.13,28.86 L223.08,28.86 L223.08,24.32 L212.13,24.32 L212.13,19.61 L224.57,19.61 L224.57,15.07 L207.09,15.07 L207.09,38.28 Z M188.22,26.37 L188.22,19.67 L193.3,19.67 C194.56,19.67 195.54,19.95 196.25,20.5 C196.96,21.06 197.31,21.89 197.31,23 L197.31,23.07 C197.31,24.07 196.97,24.87 196.3,25.47 C195.63,26.07 194.66,26.37 193.4,26.37 L188.22,26.37 Z M183.11,38.28 L188.22,38.28 L188.22,30.85 L192.17,30.85 L192.24,30.85 L197.22,38.28 L203.19,38.28 L197.52,29.99 C199,29.44 200.2,28.57 201.12,27.39 C202.04,26.21 202.5,24.68 202.5,22.8 L202.5,22.73 C202.5,20.52 201.84,18.75 200.51,17.42 C198.94,15.85 196.68,15.07 193.74,15.07 L183.12,15.07 L183.12,38.28 L183.11,38.28 Z M163.44,33.39 C162.58,33 161.83,32.48 161.2,31.81 C160.57,31.15 160.08,30.37 159.74,29.49 C159.4,28.61 159.23,27.66 159.23,26.67 L159.23,26.6 C159.23,25.6 159.4,24.67 159.74,23.8 C160.08,22.93 160.56,22.16 161.17,21.49 C161.78,20.83 162.51,20.31 163.38,19.93 C164.25,19.55 165.18,19.37 166.2,19.37 C167.24,19.37 168.19,19.56 169.04,19.95 C169.89,20.34 170.63,20.86 171.26,21.53 C171.89,22.19 172.38,22.97 172.72,23.85 C173.06,24.73 173.23,25.67 173.23,26.67 L173.23,26.74 C173.23,27.74 173.06,28.67 172.72,29.54 C172.38,30.41 171.9,31.18 171.29,31.85 C170.68,32.51 169.95,33.03 169.1,33.41 C168.25,33.79 167.3,33.97 166.26,33.97 C165.24,33.97 164.3,33.77 163.44,33.39 Z M171.15,37.73 C172.66,37.1 173.97,36.24 175.06,35.14 C176.15,34.05 177.01,32.77 177.63,31.32 C178.25,29.87 178.56,28.32 178.56,26.66 L178.56,26.59 C178.56,24.93 178.26,23.38 177.65,21.93 C177.04,20.48 176.19,19.22 175.1,18.15 C174.01,17.08 172.71,16.23 171.2,15.6 C169.7,14.97 168.05,14.65 166.26,14.65 C164.47,14.65 162.81,14.97 161.3,15.6 C159.79,16.23 158.48,17.09 157.39,18.19 C156.3,19.28 155.44,20.56 154.82,22.01 C154.2,23.46 153.89,25.01 153.89,26.67 L153.89,26.74 C153.89,28.4 154.19,29.95 154.8,31.4 C155.41,32.85 156.26,34.11 157.35,35.18 C158.45,36.25 159.74,37.1 161.25,37.73 C162.75,38.36 164.4,38.68 166.19,38.68 C167.98,38.68 169.64,38.36 171.15,37.73 Z M135.71,38.28 L152.4,38.28 L152.4,33.64 L140.82,33.64 L140.82,15.06 L135.71,15.06 L135.71,38.28 Z M118.65,26.77 L118.65,19.67 L122.6,19.67 C123.88,19.67 124.89,19.97 125.64,20.56 C126.38,21.16 126.75,22.03 126.75,23.18 L126.75,23.25 C126.75,24.25 126.4,25.08 125.69,25.75 C124.98,26.42 123.99,26.76 122.7,26.76 L118.65,26.76 L118.65,26.77 Z M113.54,38.28 L118.65,38.28 L118.65,31.31 L122.53,31.31 C123.84,31.31 125.06,31.14 126.2,30.8 C127.34,30.46 128.33,29.94 129.18,29.26 C130.03,28.57 130.7,27.72 131.19,26.7 C131.68,25.68 131.92,24.5 131.92,23.15 L131.92,23.08 C131.92,21.88 131.72,20.8 131.31,19.81 C130.9,18.83 130.31,17.98 129.55,17.27 C128.79,16.56 127.86,16.02 126.76,15.63 C125.66,15.24 124.42,15.05 123.03,15.05 L113.54,15.05 L113.54,38.28 Z M87.5,38.28 L93.31,38.28 L98.55,30.32 L103.76,38.28 L109.73,38.28 L101.64,26.4 L109.4,15.06 L103.59,15.06 L98.68,22.59 L93.8,15.06 L87.83,15.06 L95.59,26.47 L87.5,38.28 Z M67.04,38.28 L84.69,38.28 L84.69,33.74 L72.08,33.74 L72.08,28.86 L83.03,28.86 L83.03,24.32 L72.08,24.32 L72.08,19.61 L84.52,19.61 L84.52,15.07 L67.04,15.07 L67.04,38.28 Z" id="Shape"></path>
            <path d="M295.23,68.04 L308.49,68.04 L308.49,66.15 L297.28,66.15 L297.28,59.82 L307.19,59.82 L307.19,57.92 L297.28,57.92 L297.28,51.77 L308.36,51.77 L308.36,49.88 L295.23,49.88 L295.23,68.04 Z M281.41,68.12 C282.09,67.96 282.73,67.75 283.31,67.47 C283.89,67.19 284.43,66.86 284.94,66.47 C285.45,66.08 285.94,65.64 286.41,65.16 L285.06,63.84 C284.19,64.67 283.31,65.32 282.41,65.77 C281.51,66.23 280.44,66.46 279.19,66.46 C278.19,66.46 277.26,66.27 276.4,65.88 C275.54,65.49 274.8,64.96 274.17,64.28 C273.54,63.61 273.05,62.82 272.69,61.9 C272.34,60.99 272.16,60.01 272.16,58.95 L272.16,58.9 C272.16,57.86 272.34,56.89 272.69,55.98 C273.04,55.07 273.54,54.28 274.17,53.6 C274.8,52.92 275.55,52.4 276.4,52.02 C277.26,51.64 278.19,51.45 279.19,51.45 C280.44,51.45 281.5,51.68 282.4,52.15 C283.29,52.62 284.13,53.21 284.9,53.94 L286.3,52.44 C285.85,52.01 285.38,51.61 284.9,51.26 C284.41,50.91 283.89,50.6 283.32,50.35 C282.75,50.1 282.13,49.9 281.46,49.77 C280.79,49.63 280.05,49.56 279.21,49.56 C277.88,49.56 276.65,49.81 275.53,50.3 C274.41,50.79 273.44,51.47 272.62,52.32 C271.81,53.18 271.17,54.18 270.71,55.32 C270.25,56.46 270.02,57.67 270.02,58.95 L270.02,59 C270.02,60.3 270.25,61.52 270.71,62.66 C271.17,63.8 271.8,64.79 272.62,65.63 C273.43,66.47 274.39,67.13 275.5,67.61 C276.61,68.09 277.82,68.34 279.13,68.34 C279.97,68.36 280.73,68.28 281.41,68.12 Z M245.75,68.04 L247.75,68.04 L247.75,53.14 L259.48,68.04 L261.11,68.04 L261.11,49.87 L259.11,49.87 L259.11,64.43 L247.67,49.87 L245.75,49.87 L245.75,68.04 Z M220.96,68.04 L234.22,68.04 L234.22,66.15 L223.01,66.15 L223.01,59.82 L232.92,59.82 L232.92,57.92 L223.01,57.92 L223.01,51.77 L234.09,51.77 L234.09,49.88 L220.96,49.88 L220.96,68.04 Z M197.5,59.14 L197.5,51.77 L203.12,51.77 C204.59,51.77 205.74,52.09 206.56,52.72 C207.37,53.35 207.78,54.23 207.78,55.35 L207.78,55.4 C207.78,55.99 207.66,56.51 207.43,56.97 C207.2,57.43 206.87,57.82 206.46,58.14 C206.04,58.46 205.55,58.71 204.98,58.88 C204.41,59.05 203.78,59.14 203.11,59.14 L197.5,59.14 Z M195.45,68.04 L197.5,68.04 L197.5,60.98 L202.64,60.98 L202.69,60.98 L207.96,68.04 L210.48,68.04 L204.9,60.62 C205.61,60.48 206.27,60.27 206.87,59.98 C207.48,59.69 208,59.33 208.44,58.89 C208.88,58.45 209.22,57.93 209.47,57.33 C209.71,56.73 209.83,56.06 209.83,55.32 L209.83,55.27 C209.83,54.54 209.71,53.88 209.47,53.27 C209.23,52.66 208.88,52.14 208.43,51.69 C207.86,51.12 207.14,50.67 206.26,50.35 C205.39,50.03 204.39,49.87 203.26,49.87 L195.45,49.87 L195.45,68.04 Z M170.66,68.04 L183.92,68.04 L183.92,66.15 L172.71,66.15 L172.71,59.82 L182.62,59.82 L182.62,57.92 L172.71,57.92 L172.71,51.77 L183.79,51.77 L183.79,49.88 L170.66,49.88 L170.66,68.04 Z M146.5,68.04 L148.55,68.04 L148.55,60.12 L158.39,60.12 L158.39,58.22 L148.55,58.22 L148.55,51.76 L159.56,51.76 L159.56,49.87 L146.5,49.87 L146.5,68.04 Z M119.44,68.04 L121.44,68.04 L121.44,53.14 L133.17,68.04 L134.8,68.04 L134.8,49.87 L132.8,49.87 L132.8,64.43 L121.35,49.87 L119.43,49.87 L119.43,68.04 L119.44,68.04 Z M98.41,65.86 C97.54,65.46 96.78,64.93 96.14,64.25 C95.5,63.57 95,62.78 94.65,61.87 C94.3,60.96 94.12,59.99 94.12,58.95 L94.12,58.9 C94.12,57.86 94.3,56.89 94.65,55.99 C95.01,55.09 95.49,54.3 96.12,53.63 C96.74,52.95 97.49,52.42 98.37,52.03 C99.24,51.64 100.2,51.45 101.24,51.45 C102.28,51.45 103.23,51.65 104.11,52.05 C104.98,52.45 105.74,52.98 106.38,53.66 C107.02,54.34 107.52,55.13 107.87,56.04 C108.22,56.95 108.4,57.92 108.4,58.96 L108.4,59.01 C108.4,60.05 108.22,61.02 107.87,61.92 C107.52,62.82 107.03,63.61 106.4,64.28 C105.78,64.96 105.03,65.49 104.15,65.88 C103.28,66.27 102.32,66.46 101.28,66.46 C100.24,66.46 99.28,66.26 98.41,65.86 Z M105.01,67.59 C106.15,67.08 107.13,66.4 107.94,65.54 C108.75,64.68 109.39,63.68 109.83,62.54 C110.28,61.4 110.51,60.2 110.51,58.96 C110.53,58.94 110.53,58.93 110.51,58.91 C110.51,57.66 110.29,56.47 109.85,55.34 C109.41,54.21 108.78,53.21 107.97,52.36 C107.16,51.5 106.18,50.82 105.05,50.32 C103.92,49.82 102.66,49.57 101.27,49.57 C99.89,49.57 98.62,49.83 97.48,50.34 C96.34,50.85 95.36,51.53 94.55,52.39 C93.74,53.25 93.1,54.25 92.66,55.39 C92.21,56.53 91.98,57.73 91.98,58.97 L91.98,59.02 C91.98,60.27 92.2,61.46 92.64,62.59 C93.08,63.72 93.71,64.72 94.52,65.57 C95.33,66.43 96.31,67.11 97.44,67.61 C98.57,68.11 99.83,68.36 101.22,68.36 C102.61,68.36 103.87,68.1 105.01,67.59 Z M78.98,68.12 C79.66,67.96 80.29,67.75 80.87,67.47 C81.45,67.19 81.99,66.86 82.5,66.47 C83.01,66.08 83.5,65.64 83.97,65.16 L82.62,63.84 C81.75,64.67 80.87,65.32 79.97,65.77 C79.07,66.23 78,66.46 76.75,66.46 C75.75,66.46 74.82,66.27 73.96,65.88 C73.1,65.49 72.36,64.96 71.73,64.28 C71.1,63.61 70.61,62.82 70.25,61.9 C69.9,60.99 69.72,60.01 69.72,58.95 L69.72,58.9 C69.72,57.86 69.9,56.89 70.25,55.98 C70.6,55.07 71.1,54.28 71.73,53.6 C72.36,52.92 73.11,52.4 73.96,52.02 C74.82,51.64 75.75,51.45 76.75,51.45 C78,51.45 79.06,51.68 79.96,52.15 C80.85,52.62 81.69,53.21 82.46,53.94 L83.86,52.44 C83.41,52.01 82.94,51.61 82.46,51.26 C81.98,50.91 81.45,50.6 80.88,50.35 C80.31,50.1 79.69,49.9 79.02,49.77 C78.35,49.63 77.6,49.56 76.78,49.56 C75.45,49.56 74.22,49.81 73.09,50.3 C71.97,50.79 71,51.47 70.18,52.32 C69.37,53.18 68.73,54.18 68.27,55.32 C67.81,56.46 67.58,57.67 67.58,58.95 L67.58,59 C67.58,60.3 67.81,61.52 68.27,62.66 C68.73,63.8 69.36,64.79 70.18,65.63 C70.99,66.47 71.95,67.13 73.06,67.61 C74.17,68.09 75.38,68.34 76.69,68.34 C77.54,68.36 78.29,68.28 78.98,68.12 Z" id="Shape"></path>
        </g>
    </g>
</svg>