<?xml version="1.0" encoding="utf-8"?>
<!-- Generator: Adobe Illustrator 23.0.2, SVG Export Plug-In . SVG Version: 6.00 Build 0)  -->
<svg version="1.1" id="Layer_1" xmlns="http://www.w3.org/2000/svg" xmlns:xlink="http://www.w3.org/1999/xlink" x="0px" y="0px"
	 viewBox="0 0 241.68 229.84" style="enable-background:new 0 0 241.68 229.84;" xml:space="preserve">
<style type="text/css">
	.st0{fill:#FFFFFF;}
</style>
<path class="st0" d="M185.29,42.92H62.55c-5.87,0-10.63,4.76-10.63,10.63v122.74c0,5.87,4.76,10.63,10.63,10.63h122.74
	c5.87,0,10.63-4.76,10.63-10.63V53.55C195.92,47.68,191.16,42.92,185.29,42.92z M94.84,165.6H73.19V96.82h21.65V165.6z M84.01,87.29
	c-6.89,0-12.48-5.25-12.48-12.43s5.59-12.43,12.48-12.43S96.5,67.69,96.5,74.87S90.91,87.29,84.01,87.29z M174.65,165.65H153v-37.56
	c0-11.08-4.71-14.5-10.79-14.5c-6.42,0-12.72,4.83-12.72,14.78v37.29h-21.65V96.87h20.82v9.53h0.28
	c2.09-4.23,9.41-11.46,20.58-11.46c12.08,0,25.13,7.17,25.13,28.17V165.65z"/>
</svg>
