<?xml version="1.0" encoding="utf-8"?>
<!-- Generator: Adobe Illustrator 23.0.2, SVG Export Plug-In . SVG Version: 6.00 Build 0)  -->
<svg version="1.1" xmlns="http://www.w3.org/2000/svg" xmlns:xlink="http://www.w3.org/1999/xlink" x="0px" y="0px"
	 viewBox="0 0 400 400" style="enable-background:new 0 0 400 400;" xml:space="preserve">
<style type="text/css">
	.st0{fill:#FFFFFF;}
</style>
<g id="White">
	<path class="st0" d="M311.33,359.33H92.67c-27.61,0-50-22.39-50-50V90.67c0-27.61,22.39-50,50-50h218.67c27.61,0,50,22.39,50,50
		v218.67C361.33,336.95,338.95,359.33,311.33,359.33z M165.05,280.93c75.16,0,116.26-62.27,116.26-116.26
		c0-1.77-0.04-3.53-0.12-5.28c7.98-5.77,14.91-12.96,20.38-21.16c-7.32,3.25-15.2,5.44-23.47,6.43c8.44-5.06,14.91-13.06,17.97-22.6
		c-7.9,4.68-16.64,8.09-25.95,9.92c-7.46-7.94-18.08-12.91-29.83-12.91c-22.57,0-40.87,18.3-40.87,40.86c0,3.21,0.36,6.33,1.06,9.32
		c-33.96-1.71-64.07-17.97-84.23-42.69c-3.51,6.04-5.53,13.05-5.53,20.54c0,14.18,7.21,26.69,18.18,34.01
		c-6.7-0.21-13-2.05-18.51-5.11c-0.01,0.17-0.01,0.34-0.01,0.52c0,19.79,14.09,36.31,32.78,40.06c-3.43,0.93-7.04,1.44-10.77,1.44
		c-2.63,0-5.19-0.26-7.68-0.74c5.2,16.23,20.29,28.05,38.17,28.38c-13.99,10.96-31.61,17.49-50.75,17.49c-3.3,0-6.55-0.19-9.75-0.57
		C120.5,274.17,141.97,280.93,165.05,280.93"/>
</g>
<g id="Annotations">
</g>
</svg>
