<?xml version="1.0" encoding="utf-8"?>
<!-- Generator: Adobe Illustrator 23.0.2, SVG Export Plug-In . SVG Version: 6.00 Build 0)  -->
<svg version="1.1" id="Layer_1" xmlns="http://www.w3.org/2000/svg" xmlns:xlink="http://www.w3.org/1999/xlink" x="0px" y="0px"
	 viewBox="0 0 792 612" style="enable-background:new 0 0 792 612;" xml:space="preserve">
<style type="text/css">
	.st0{clip-path:url(#SVGID_2_);fill:#0082C8;}
</style>
<g>
	<defs>
		<rect id="SVGID_1_" x="241.27" y="247.01" width="312.29" height="81.28"/>
	</defs>
	<clipPath id="SVGID_2_">
		<use xlink:href="#SVGID_1_"  style="overflow:visible;"/>
	</clipPath>
	<path class="st0" d="M266.64,261.07l4.13-4.13c-7.13-6.18-16.43-9.93-26.6-9.93c-0.98,0-1.94,0.05-2.9,0.12v5.82
		c0.96-0.08,1.92-0.13,2.9-0.13C252.73,252.82,260.57,255.93,266.64,261.07 M284.8,287.65c0-10.18-3.75-19.47-9.93-26.6l-4.13,4.13
		c5.14,6.07,8.25,13.92,8.25,22.48c0,18.23-14.08,33.22-31.93,34.7v-5.83c5.84-0.58,11.17-2.88,15.47-6.4l-4.15-4.15
		c-3.21,2.5-7.09,4.16-11.31,4.7v-5.86c8.23-1.38,14.51-8.53,14.51-17.16c0-3.76-1.2-7.23-3.23-10.08l-4.2,4.19
		c1.02,1.73,1.62,3.74,1.62,5.89c0,5.4-3.71,9.94-8.71,11.23v-22.46c1.06,0.28,2.06,0.69,2.98,1.23l4.2-4.19
		c-2.1-1.49-4.54-2.54-7.18-2.98v-5.85c11.44,1.44,20.32,11.2,20.32,23.02c0,5.36-1.84,10.28-4.9,14.22l4.15,4.15
		c4.1-5,6.55-11.4,6.55-18.37c0-16.03-13-29.03-29.03-29.03c-0.98,0-1.95,0.05-2.9,0.15v69.41c0.96,0.07,1.92,0.12,2.9,0.12
		C266.61,328.29,284.8,310.09,284.8,287.65"/>
	<path class="st0" d="M537.26,280.67v-14h3.95c1.04,0,1.99,0.17,2.85,0.51c0.86,0.34,1.6,0.82,2.22,1.44
		c0.62,0.62,1.09,1.35,1.43,2.21c0.33,0.85,0.5,1.8,0.5,2.84v0.07c0,1.02-0.17,1.95-0.5,2.8c-0.33,0.85-0.81,1.59-1.43,2.21
		c-0.62,0.62-1.36,1.1-2.22,1.43c-0.86,0.33-1.81,0.5-2.85,0.5H537.26z M532.16,285.28h9.06c1.84,0,3.5-0.3,5.01-0.9
		c1.5-0.6,2.8-1.42,3.9-2.46c1.09-1.04,1.94-2.27,2.54-3.68c0.6-1.42,0.9-2.94,0.9-4.58v-0.07c0-1.64-0.3-3.16-0.9-4.56
		c-0.6-1.41-1.44-2.63-2.54-3.67c-1.1-1.04-2.39-1.85-3.9-2.44c-1.5-0.59-3.17-0.88-5.01-0.88h-9.06V285.28z M511.32,280.67v-14
		h3.95c1.04,0,1.99,0.17,2.85,0.51c0.86,0.34,1.6,0.82,2.22,1.44c0.62,0.62,1.1,1.35,1.43,2.21c0.33,0.85,0.5,1.8,0.5,2.84v0.07
		c0,1.02-0.17,1.95-0.5,2.8c-0.33,0.85-0.81,1.59-1.43,2.21c-0.62,0.62-1.36,1.1-2.22,1.43c-0.86,0.33-1.81,0.5-2.85,0.5H511.32z
		 M506.21,285.28h9.06c1.84,0,3.51-0.3,5.01-0.9c1.5-0.6,2.8-1.42,3.9-2.46c1.09-1.04,1.94-2.27,2.54-3.68
		c0.6-1.42,0.9-2.94,0.9-4.58v-0.07c0-1.64-0.3-3.16-0.9-4.56c-0.6-1.41-1.44-2.63-2.54-3.67c-1.09-1.04-2.39-1.85-3.9-2.44
		c-1.5-0.59-3.17-0.88-5.01-0.88h-9.06V285.28z M485.38,280.67v-14h3.95c1.04,0,1.99,0.17,2.85,0.51c0.86,0.34,1.6,0.82,2.22,1.44
		c0.62,0.62,1.09,1.35,1.43,2.21c0.33,0.85,0.5,1.8,0.5,2.84v0.07c0,1.02-0.17,1.95-0.5,2.8c-0.33,0.85-0.81,1.59-1.43,2.21
		c-0.62,0.62-1.36,1.1-2.22,1.43c-0.86,0.33-1.81,0.5-2.85,0.5H485.38z M480.27,285.28h9.06c1.83,0,3.5-0.3,5.01-0.9
		c1.5-0.6,2.8-1.42,3.9-2.46c1.09-1.04,1.94-2.27,2.54-3.68c0.6-1.42,0.9-2.94,0.9-4.58v-0.07c0-1.64-0.3-3.16-0.9-4.56
		c-0.6-1.41-1.44-2.63-2.54-3.67c-1.1-1.04-2.39-1.85-3.9-2.44c-1.5-0.59-3.17-0.88-5.01-0.88h-9.06V285.28z M448.09,285.28h17.65
		v-4.54h-12.61v-4.88h10.95v-4.54h-10.95v-4.71h12.44v-4.54h-17.48V285.28z M429.22,273.37v-6.7h5.08c1.26,0,2.24,0.28,2.95,0.83
		c0.71,0.56,1.06,1.39,1.06,2.5v0.07c0,1-0.34,1.8-1.01,2.4c-0.67,0.6-1.64,0.9-2.9,0.9H429.22z M424.11,285.28h5.11v-7.43h3.95
		h0.07l4.98,7.43h5.97l-5.67-8.29c1.48-0.55,2.68-1.42,3.6-2.6c0.92-1.18,1.38-2.71,1.38-4.59v-0.07c0-2.21-0.66-3.98-1.99-5.31
		c-1.57-1.57-3.83-2.35-6.77-2.35h-10.62V285.28z M404.44,280.39c-0.86-0.39-1.61-0.91-2.24-1.58c-0.63-0.66-1.12-1.44-1.46-2.32
		c-0.34-0.88-0.51-1.83-0.51-2.82v-0.07c0-1,0.17-1.93,0.51-2.8c0.34-0.87,0.82-1.64,1.43-2.31c0.61-0.66,1.34-1.18,2.21-1.56
		s1.8-0.56,2.82-0.56c1.04,0,1.99,0.19,2.84,0.58c0.85,0.39,1.59,0.91,2.22,1.58c0.63,0.66,1.12,1.44,1.46,2.32
		c0.34,0.88,0.51,1.82,0.51,2.82v0.07c0,1-0.17,1.93-0.51,2.8c-0.34,0.87-0.82,1.64-1.43,2.31c-0.61,0.66-1.34,1.18-2.19,1.56
		c-0.85,0.38-1.8,0.56-2.84,0.56C406.24,280.97,405.3,280.77,404.44,280.39 M412.15,284.73c1.51-0.63,2.82-1.49,3.91-2.59
		c1.09-1.09,1.95-2.37,2.57-3.82c0.62-1.45,0.93-3,0.93-4.66v-0.07c0-1.66-0.3-3.21-0.91-4.66c-0.61-1.45-1.46-2.71-2.55-3.78
		c-1.09-1.07-2.39-1.92-3.9-2.55c-1.5-0.63-3.15-0.95-4.94-0.95c-1.79,0-3.45,0.32-4.96,0.95c-1.51,0.63-2.82,1.49-3.91,2.59
		c-1.09,1.09-1.95,2.37-2.57,3.82c-0.62,1.45-0.93,3-0.93,4.66v0.07c0,1.66,0.3,3.21,0.91,4.66c0.61,1.45,1.46,2.71,2.55,3.78
		c1.1,1.07,2.39,1.92,3.9,2.55c1.5,0.63,3.15,0.95,4.94,0.95C408.98,285.68,410.64,285.36,412.15,284.73 M376.71,285.28h16.69v-4.64
		h-11.58v-18.58h-5.11V285.28z M359.65,273.77v-7.1h3.95c1.28,0,2.29,0.3,3.04,0.89c0.74,0.6,1.11,1.47,1.11,2.62v0.07
		c0,1-0.35,1.83-1.06,2.5c-0.71,0.67-1.7,1.01-2.99,1.01H359.65z M354.54,285.28h5.11v-6.97h3.88c1.31,0,2.53-0.17,3.67-0.51
		c1.14-0.34,2.13-0.86,2.98-1.54c0.85-0.69,1.52-1.54,2.01-2.56c0.49-1.02,0.73-2.2,0.73-3.55v-0.07c0-1.2-0.2-2.28-0.61-3.27
		c-0.41-0.98-1-1.83-1.76-2.54c-0.76-0.71-1.69-1.25-2.79-1.64c-1.1-0.39-2.34-0.58-3.73-0.58h-9.49V285.28z M328.5,285.28h5.81
		l5.24-7.96l5.21,7.96h5.97l-8.09-11.88l7.76-11.34h-5.81l-4.91,7.53l-4.88-7.53h-5.97l7.76,11.41L328.5,285.28z M308.04,285.28
		h17.65v-4.54h-12.61v-4.88h10.95v-4.54h-10.95v-4.71h12.44v-4.54h-17.48V285.28z"/>
	<path class="st0" d="M536.23,315.04h13.26v-1.89h-11.21v-6.33h9.91v-1.9h-9.91v-6.15h11.08v-1.89h-13.13V315.04z M522.41,315.12
		c0.68-0.16,1.32-0.37,1.9-0.65c0.58-0.28,1.12-0.61,1.63-1c0.51-0.39,1-0.83,1.47-1.31l-1.35-1.32c-0.87,0.83-1.75,1.48-2.65,1.93
		c-0.9,0.46-1.97,0.69-3.22,0.69c-1,0-1.93-0.19-2.79-0.58c-0.86-0.39-1.6-0.92-2.23-1.6c-0.63-0.67-1.12-1.46-1.48-2.38
		c-0.35-0.91-0.53-1.89-0.53-2.95v-0.05c0-1.04,0.18-2.01,0.53-2.92c0.35-0.91,0.85-1.7,1.48-2.38c0.63-0.68,1.38-1.2,2.23-1.58
		c0.86-0.38,1.79-0.57,2.79-0.57c1.25,0,2.31,0.23,3.21,0.7c0.89,0.47,1.73,1.06,2.5,1.79l1.4-1.5c-0.45-0.43-0.92-0.83-1.4-1.18
		c-0.49-0.35-1.01-0.66-1.58-0.91c-0.57-0.25-1.19-0.45-1.86-0.58c-0.67-0.14-1.41-0.21-2.25-0.21c-1.33,0-2.56,0.25-3.68,0.74
		c-1.12,0.49-2.09,1.17-2.91,2.02c-0.81,0.86-1.45,1.86-1.91,3c-0.46,1.14-0.69,2.35-0.69,3.63v0.05c0,1.3,0.23,2.52,0.69,3.66
		c0.46,1.14,1.09,2.13,1.91,2.97c0.81,0.84,1.77,1.5,2.88,1.98c1.11,0.48,2.32,0.73,3.63,0.73
		C520.97,315.36,521.73,315.28,522.41,315.12 M486.75,315.04h2v-14.9l11.73,14.9h1.63v-18.17h-2v14.56l-11.44-14.56h-1.92V315.04z
		 M461.96,315.04h13.26v-1.89h-11.21v-6.33h9.91v-1.9h-9.91v-6.15h11.08v-1.89h-13.13V315.04z M438.5,306.14v-7.37h5.62
		c1.47,0,2.62,0.32,3.44,0.95c0.81,0.63,1.22,1.51,1.22,2.63v0.05c0,0.59-0.12,1.11-0.35,1.57c-0.23,0.46-0.56,0.85-0.97,1.17
		c-0.42,0.32-0.91,0.57-1.48,0.74c-0.57,0.17-1.2,0.26-1.87,0.26H438.5z M436.45,315.04h2.05v-7.06h5.14h0.05l5.27,7.06h2.52
		l-5.58-7.42c0.71-0.14,1.37-0.35,1.97-0.64c0.61-0.29,1.13-0.65,1.57-1.09c0.44-0.44,0.78-0.96,1.03-1.56
		c0.24-0.6,0.36-1.27,0.36-2.01v-0.05c0-0.73-0.12-1.39-0.36-2c-0.24-0.61-0.59-1.13-1.04-1.58c-0.57-0.57-1.29-1.02-2.17-1.34
		c-0.87-0.32-1.87-0.48-3-0.48h-7.81V315.04z M411.66,315.04h13.26v-1.89h-11.21v-6.33h9.91v-1.9h-9.91v-6.15h11.08v-1.89h-13.13
		V315.04z M387.5,315.04h2.05v-7.92h9.84v-1.9h-9.84v-6.46h11.01v-1.89H387.5V315.04z M360.44,315.04h2v-14.9l11.73,14.9h1.63
		v-18.17h-2v14.56l-11.45-14.56h-1.92V315.04z M339.41,312.86c-0.87-0.4-1.63-0.93-2.27-1.61c-0.64-0.68-1.14-1.47-1.49-2.38
		c-0.35-0.91-0.53-1.88-0.53-2.92v-0.05c0-1.04,0.18-2.01,0.53-2.91c0.36-0.9,0.84-1.69,1.47-2.36c0.62-0.68,1.37-1.21,2.25-1.6
		c0.87-0.39,1.83-0.58,2.87-0.58c1.04,0,1.99,0.2,2.87,0.6c0.87,0.4,1.63,0.93,2.27,1.61c0.64,0.68,1.14,1.47,1.49,2.38
		c0.35,0.91,0.53,1.88,0.53,2.92v0.05c0,1.04-0.18,2.01-0.53,2.91c-0.35,0.9-0.84,1.69-1.47,2.36c-0.62,0.68-1.37,1.21-2.25,1.6
		c-0.87,0.39-1.83,0.58-2.87,0.58C341.24,313.46,340.28,313.26,339.41,312.86 M346.01,314.59c1.14-0.51,2.12-1.19,2.93-2.05
		c0.81-0.86,1.45-1.86,1.89-3c0.45-1.14,0.68-2.34,0.68-3.58c0.02-0.02,0.02-0.03,0-0.05c0-1.25-0.22-2.44-0.66-3.57
		c-0.44-1.13-1.07-2.13-1.88-2.98c-0.81-0.86-1.79-1.54-2.92-2.04c-1.13-0.5-2.39-0.75-3.78-0.75c-1.38,0-2.65,0.26-3.79,0.77
		c-1.14,0.51-2.12,1.19-2.93,2.05c-0.81,0.86-1.45,1.86-1.89,3c-0.45,1.14-0.68,2.34-0.68,3.58v0.05c0,1.25,0.22,2.44,0.66,3.57
		c0.44,1.13,1.07,2.13,1.88,2.98c0.81,0.86,1.79,1.54,2.92,2.04c1.13,0.5,2.39,0.75,3.78,0.75
		C343.61,315.36,344.87,315.1,346.01,314.59 M319.98,315.12c0.68-0.16,1.31-0.37,1.89-0.65c0.58-0.28,1.12-0.61,1.63-1
		c0.51-0.39,1-0.83,1.47-1.31l-1.35-1.32c-0.87,0.83-1.75,1.48-2.65,1.93c-0.9,0.46-1.97,0.69-3.22,0.69c-1,0-1.93-0.19-2.79-0.58
		c-0.86-0.39-1.6-0.92-2.23-1.6c-0.63-0.67-1.12-1.46-1.48-2.38c-0.35-0.91-0.53-1.89-0.53-2.95v-0.05c0-1.04,0.18-2.01,0.53-2.92
		c0.35-0.91,0.85-1.7,1.48-2.38c0.63-0.68,1.38-1.2,2.23-1.58c0.86-0.38,1.79-0.57,2.79-0.57c1.25,0,2.31,0.23,3.21,0.7
		c0.89,0.47,1.73,1.06,2.5,1.79l1.4-1.5c-0.45-0.43-0.92-0.83-1.4-1.18c-0.48-0.35-1.01-0.66-1.58-0.91
		c-0.57-0.25-1.19-0.45-1.86-0.58c-0.67-0.14-1.42-0.21-2.24-0.21c-1.33,0-2.56,0.25-3.69,0.74c-1.12,0.49-2.09,1.17-2.91,2.02
		c-0.81,0.86-1.45,1.86-1.91,3s-0.69,2.35-0.69,3.63v0.05c0,1.3,0.23,2.52,0.69,3.66c0.46,1.14,1.09,2.13,1.91,2.97
		c0.81,0.84,1.77,1.5,2.88,1.98c1.11,0.48,2.32,0.73,3.63,0.73C318.54,315.36,319.29,315.28,319.98,315.12"/>
</g>
</svg>
