<?xml version="1.0" encoding="utf-8"?>
<!-- Generator: Adobe Illustrator 23.0.2, SVG Export Plug-In . SVG Version: 6.00 Build 0)  -->
<svg version="1.1" id="Layer_1" xmlns="http://www.w3.org/2000/svg" xmlns:xlink="http://www.w3.org/1999/xlink" x="0px" y="0px"
	 viewBox="0 0 400 400" style="enable-background:new 0 0 400 400;" xml:space="preserve">
<style type="text/css">
	.st0{fill:#FFFFFF;}
</style>
<path class="st0" d="M336.38,40H63.62C50.58,40,40,50.58,40,63.62v272.76C40,349.42,50.58,360,63.62,360h272.76
	c13.04,0,23.62-10.58,23.62-23.62V63.62C360,50.58,349.42,40,336.38,40z M135.38,312.62H87.27V159.78h48.11
	C135.38,159.78,135.38,312.62,135.38,312.62z M111.31,138.6c-15.31,0-27.73-11.67-27.73-27.62S96,83.36,111.31,83.36
	s27.76,11.69,27.76,27.64S126.64,138.6,111.31,138.6z M312.73,312.73h-48.11v-83.47c0-24.62-10.47-32.22-23.98-32.22
	c-14.27,0-28.27,10.73-28.27,32.84v82.87h-48.11V159.89h46.27v21.18h0.62c4.64-9.4,20.91-25.47,45.73-25.47
	c26.84,0,55.84,15.93,55.84,62.6L312.73,312.73L312.73,312.73z"/>
</svg>
