<?xml version="1.0" encoding="utf-8"?>
<!-- Generator: Adobe Illustrator 23.0.2, SVG Export Plug-In . SVG Version: 6.00 Build 0)  -->
<svg version="1.1" id="Layer_1" xmlns="http://www.w3.org/2000/svg" xmlns:xlink="http://www.w3.org/1999/xlink" x="0px" y="0px"
	 viewBox="0 0 400 400" style="enable-background:new 0 0 400 400;" xml:space="preserve">
<style type="text/css">
	.st0{fill:#FFFFFF;}
</style>
<g id="White">
	<path class="st0" d="M309.78,360H90.21C62.48,360,40,337.52,40,309.79V90.21C40,62.48,62.48,40,90.21,40h219.58
		C337.52,40,360,62.48,360,90.21V309.8C359.99,337.53,337.52,360,309.78,360z M162.89,281.27c75.47,0,116.75-62.53,116.75-116.75
		c0-1.78-0.04-3.54-0.12-5.3c8.01-5.79,14.97-13.01,20.47-21.25c-7.35,3.26-15.26,5.46-23.57,6.46c8.48-5.08,14.97-13.11,18.05-22.7
		c-7.93,4.7-16.71,8.12-26.06,9.96c-7.49-7.97-18.16-12.96-29.95-12.96c-22.66,0-41.04,18.38-41.04,41.03
		c0,3.22,0.36,6.36,1.06,9.36c-34.1-1.72-64.34-18.05-84.58-42.87c-3.52,6.07-5.55,13.1-5.55,20.63c0,14.24,7.24,26.8,18.26,34.15
		c-6.73-0.21-13.05-2.06-18.59-5.13c-0.01,0.17-0.01,0.34-0.01,0.52c0,19.87,14.15,36.46,32.92,40.23
		c-3.44,0.93-7.07,1.45-10.81,1.45c-2.64,0-5.21-0.26-7.71-0.74c5.22,16.3,20.37,28.17,38.33,28.5
		c-14.05,11.01-31.74,17.56-50.96,17.56c-3.31,0-6.58-0.19-9.79-0.57C118.15,274.48,139.71,281.27,162.89,281.27"/>
</g>
<g id="Annotations">
</g>
</svg>
