<?xml version="1.0" standalone="no"?>
<!DOCTYPE svg PUBLIC "-//W3C//DTD SVG 20010904//EN"
 "http://www.w3.org/TR/2001/REC-SVG-20010904/DTD/svg10.dtd">
<svg version="1.0" xmlns="http://www.w3.org/2000/svg"
 width="276.000000pt" height="276.000000pt" viewBox="0 0 276.000000 276.000000"
 preserveAspectRatio="xMidYMid meet">
<metadata>
Created by potrace 1.11, written by Peter Selinger 2001-2013
</metadata>
<g transform="translate(0.000000,276.000000) scale(0.100000,-0.100000)"
fill="#000000" stroke="none">
<path d="M872 2464 l3 -79 140 -6 c109 -5 159 -12 228 -33 105 -31 228 -91
312 -151 l62 -44 53 54 53 53 -69 52 c-98 73 -289 164 -409 196 -75 19 -135
27 -238 31 l-138 6 3 -79z"/>
<path d="M875 2189 c-3 -8 -4 -468 -3 -1024 l3 -1010 55 -3 c30 -2 97 2 148 8
264 33 497 142 690 324 244 230 376 535 375 866 0 269 -88 521 -256 733 l-30
38 -53 -52 -53 -52 43 -61 c64 -91 101 -162 134 -256 46 -132 57 -209 56 -370
-2 -120 -6 -162 -27 -243 -104 -397 -423 -691 -826 -762 -46 -8 -88 -12 -92
-9 -5 3 -9 45 -9 94 l0 89 38 6 c116 18 316 99 381 155 l24 21 -53 54 -53 54
-28 -20 c-44 -31 -148 -77 -214 -94 -99 -25 -95 -29 -95 79 l0 94 34 6 c19 4
67 23 107 43 179 90 302 296 285 479 -6 70 -35 164 -67 219 l-22 37 -53 -54
-53 -53 20 -60 c40 -119 12 -264 -69 -356 -32 -37 -137 -99 -166 -99 -14 0
-16 34 -16 335 0 325 1 335 19 335 11 0 32 -5 47 -10 25 -10 32 -7 80 41 29
29 51 56 49 60 -7 11 -95 50 -147 66 l-48 14 0 89 0 90 36 0 c47 0 169 -41
235 -81 166 -97 283 -255 325 -439 12 -53 15 -104 12 -193 -5 -139 -24 -208
-89 -321 l-40 -70 54 -54 54 -54 46 73 c256 399 142 913 -259 1172 -130 84
-255 124 -416 134 -87 5 -109 3 -113 -8z"/>
</g>
</svg>
