<?xml version="1.0" encoding="utf-8"?>
<!-- Generator: Adobe Illustrator 16.0.3, SVG Export Plug-In . SVG Version: 6.00 Build 0)  -->
<!DOCTYPE svg PUBLIC "-//W3C//DTD SVG 1.1//EN" "http://www.w3.org/Graphics/SVG/1.1/DTD/svg11.dtd">
<svg version="1.1" id="Layer_1" xmlns="http://www.w3.org/2000/svg" xmlns:xlink="http://www.w3.org/1999/xlink" x="0px" y="0px"
	 width="365.667px" height="96.535px" viewBox="81.185 116.985 365.667 96.535"
	 enable-background="new 81.185 116.985 365.667 96.535" xml:space="preserve">
<g>
	<g>
		<polyline fill="#FFECC0" stroke="#462F26" stroke-width="1.1232" stroke-miterlimit="10" points="150.209,212.27 150.207,212.271 
			150.209,212.27 		"/>
	</g>
	<g>
		<g>
			<path id="SVGID_1_" fill="#FFECC0" d="M183.428,155.463c-0.002-0.002-0.002-0.002-0.002-0.004
				C183.426,155.461,183.426,155.461,183.428,155.463 M183.426,155.459c0-0.002-0.002-0.004-0.002-0.006
				C183.424,155.455,183.426,155.457,183.426,155.459 M152.117,175.217c-6.965,12.064-13.672,20.439-19.447,26.141
				c8.844,8.732,15.505,11.185,17.539,10.912c0,0,9.805-0.155,23.805-24.41c12.242-21.207,10.137-30.417,9.414-32.396
				c0,0.002,0,0.004,0,0.006c-0.783-1.908-6.35-6.322-18.498-9.496C162.854,153.611,158.969,163.346,152.117,175.217"/>
		</g>
		<g>
			<path id="SVGID_2_" fill="none" stroke="#462F26" stroke-width="1.1232" stroke-miterlimit="10" d="M183.428,155.463
				c-0.002-0.002-0.002-0.002-0.002-0.004C183.426,155.461,183.426,155.461,183.428,155.463 M183.426,155.459
				c0-0.002-0.002-0.004-0.002-0.006C183.424,155.455,183.426,155.457,183.426,155.459 M152.117,175.217
				c-6.965,12.064-13.672,20.439-19.447,26.141c8.844,8.732,15.505,11.185,17.539,10.912c0,0,9.805-0.155,23.805-24.41
				c12.242-21.207,10.137-30.417,9.414-32.396c0,0.002,0,0.004,0,0.006c-0.783-1.908-6.35-6.322-18.498-9.496
				C162.854,153.611,158.969,163.346,152.117,175.217"/>
		</g>
	</g>
	<g>
		<path fill="#FFECC0" stroke="#462F26" stroke-width="1.1232" stroke-miterlimit="10" d="M149.883,212.412
			c-2.143,0-8.514-2.291-17.301-10.967l-0.09-0.09l0.09-0.09c6.714-6.627,13.25-15.414,19.426-26.114
			c6.096-10.559,10.402-20.387,12.801-29.213l0.033-0.119l0.121,0.031c11.934,3.117,17.721,7.51,18.576,9.557h0.002l0.006,0.02
			c0.848,2.33,2.666,11.549-9.424,32.496c-3.998,6.926-10.227,16.248-17.188,21.338c-4.186,3.06-6.621,3.131-6.725,3.133
			C150.121,212.408,150.006,212.412,149.883,212.412 M132.85,201.357c8.683,8.545,14.935,10.805,17.033,10.805
			c0.113,0,0.217-0.004,0.312-0.018c0.109-0.004,9.924-0.466,23.711-24.347c5.193-9,8.406-16.859,9.551-23.361
			c0.912-5.176,0.207-7.957-0.145-8.92l0,0c-0.816-1.99-6.506-6.293-18.293-9.391c-2.41,8.816-6.715,18.623-12.793,29.152
			C146.068,185.949,139.547,194.725,132.85,201.357"/>
	</g>
	<g>
		<g>
			<path id="SVGID_3_" fill="#FFECC0" d="M82.094,155.041c0,0-4.767,8.568,9.234,32.818c14.002,24.252,23.804,24.41,23.804,24.41
				s0.001,0,0.005,0.002c0.088,0.018,1.561,0.293,14.325,0.959c1.095,0.057,2.15,0.096,3.184,0.123
				c8.909,0.231,15.389-0.566,17.561-1.082l0.004-0.002c-2.035,0.27-8.696-2.181-17.54-10.912
				c-5.773-5.701-12.479-14.074-19.444-26.14c-6.891-11.936-10.779-21.713-12.847-29.365C88.35,148.9,82.877,153.139,82.094,155.041
				"/>
		</g>
		<g>
			<path id="SVGID_4_" fill="none" stroke="#462F26" stroke-width="1.1232" stroke-miterlimit="10" d="M82.094,155.041
				c0,0-4.767,8.568,9.234,32.818c14.002,24.252,23.804,24.41,23.804,24.41s0.001,0,0.005,0.002
				c0.088,0.018,1.561,0.293,14.325,0.959c1.095,0.057,2.15,0.096,3.184,0.123c8.909,0.231,15.389-0.566,17.561-1.082l0.004-0.002
				c-2.035,0.27-8.696-2.181-17.54-10.912c-5.773-5.701-12.479-14.074-19.444-26.14c-6.891-11.936-10.779-21.713-12.847-29.365
				C88.35,148.9,82.877,153.139,82.094,155.041"/>
		</g>
	</g>
	<g>
		<path fill="#FFECC0" stroke="#462F26" stroke-width="1.1232" stroke-miterlimit="10" d="M135.816,213.52
			c-1.046,0-2.113-0.014-3.173-0.041c-1.084-0.026-2.127-0.065-3.188-0.121c-12.631-0.659-14.206-0.938-14.343-0.965
			c-0.083,0-2.52-0.072-6.705-3.131c-6.961-5.09-13.189-14.412-17.188-21.338c-3.998-6.926-8.958-16.98-9.883-25.553
			c-0.556-5.154,0.599-7.303,0.648-7.391c0.468-1.139,2.329-2.719,4.973-4.213c2.404-1.359,6.679-3.336,13.389-5.035
			c0.068-0.018,0.135,0.023,0.153,0.088c2.395,8.863,6.713,18.732,12.835,29.336c6.177,10.697,12.712,19.484,19.424,26.111
			c8.729,8.618,15.018,10.895,17.124,10.895c0.113,0,0.217-0.008,0.311-0.02c0.066-0.007,0.129,0.034,0.141,0.102
			c0.012,0.061-0.021,0.115-0.072,0.141c-0.008,0.004-0.016,0.006-0.023,0.008C148.592,212.783,143.465,213.52,135.816,213.52
			 M100.289,146.006c-11.668,2.975-17.281,7.146-18.079,9.084c-0.053,0.098-4.561,8.826,9.227,32.707s23.6,24.342,23.697,24.344
			c0.016,0.002,0.038,0.006,0.052,0.012c0.031,0.005,1.453,0.281,14.282,0.951c1.059,0.056,2.098,0.097,3.18,0.121
			c1.059,0.027,2.123,0.043,3.166,0.043c6.439,0,11.081-0.522,13.352-0.92c-2.646-0.424-8.625-3.045-16.584-10.902
			c-6.729-6.645-13.276-15.446-19.464-26.163C107.011,164.705,102.696,154.857,100.289,146.006"/>
	</g>
	<g>
		<g>
			<g>
				<path id="SVGID_5_" fill="#FFECC0" d="M99.634,125.518c0,0-0.784,0.816-7.998,11.931c-1.912,2.943-3.521,5.604-4.852,7.939
					c-2.672,4.688-4.209,8.049-4.687,9.645c0,0.002-0.002,0.006-0.002,0.008c0.783-1.9,6.255-6.141,18.284-9.188
					c7.819-1.982,18.402-3.459,32.293-3.459c13.833,0,24.414,1.533,32.257,3.58c12.148,3.174,17.715,7.588,18.498,9.496
					c0-0.004-0.002-0.012-0.004-0.016c-0.477-1.584-2.061-5.074-4.73-9.801c-1.373-2.438-3.031-5.197-4.984-8.205
					c-7.213-11.113-7.996-11.93-7.996-11.93s-5.037-8.407-33.04-8.407C104.67,117.112,99.634,125.518,99.634,125.518"/>
			</g>
			<g>
				<path id="SVGID_6_" fill="none" stroke="#462F26" stroke-width="1.1232" stroke-miterlimit="10" d="M99.634,125.518
					c0,0-0.784,0.816-7.998,11.931c-1.912,2.943-3.521,5.604-4.852,7.939c-2.672,4.688-4.209,8.049-4.687,9.645
					c0,0.002-0.002,0.006-0.002,0.008c0.783-1.9,6.255-6.141,18.284-9.188c7.819-1.982,18.402-3.459,32.293-3.459
					c13.833,0,24.414,1.533,32.257,3.58c12.148,3.174,17.715,7.588,18.498,9.496c0-0.004-0.002-0.012-0.004-0.016
					c-0.477-1.584-2.061-5.074-4.73-9.801c-1.373-2.438-3.031-5.197-4.984-8.205c-7.213-11.113-7.996-11.93-7.996-11.93
					s-5.037-8.407-33.04-8.407C104.67,117.112,99.634,125.518,99.634,125.518"/>
			</g>
		</g>
		<g>
			<path fill="#FFECC0" stroke="#462F26" stroke-width="1.1232" stroke-miterlimit="10" d="M183.428,155.596
				c-0.049,0-0.096-0.031-0.115-0.078c-0.354-0.863-1.836-2.422-4.934-4.213c-2.432-1.406-6.744-3.449-13.479-5.209
				c-9.088-2.373-19.93-3.576-32.228-3.576c-12.364,0-23.219,1.162-32.263,3.455c-11.75,2.977-17.398,7.17-18.199,9.115
				c-0.023,0.055-0.083,0.086-0.14,0.074c-0.059-0.012-0.102-0.062-0.102-0.123c0-0.018,0.005-0.039,0.011-0.055
				c0.561-1.875,2.317-5.49,4.695-9.662c1.45-2.545,3.084-5.217,4.855-7.945c7.138-10.998,7.98-11.915,8.013-11.948
				c0.035-0.063,1.316-2.138,6.058-4.231c4.354-1.922,12.583-4.215,27.071-4.215c7.996,0,19.184,0.731,27.073,4.215
				c4.74,2.094,6.021,4.168,6.074,4.254c0.016,0.012,0.855,0.929,7.992,11.927c1.814,2.791,3.492,5.555,4.99,8.211
				c2.805,4.967,4.283,8.314,4.734,9.805c0.016,0.021,0.023,0.045,0.023,0.072C183.557,155.539,183.496,155.59,183.428,155.596
				L183.428,155.596z M132.672,142.268c12.317,0,23.185,1.207,32.291,3.584c10.391,2.715,16.123,6.396,17.996,8.656
				c-0.682-1.764-2.084-4.732-4.375-8.791c-1.496-2.652-3.172-5.412-4.982-8.199c-7.064-10.887-7.945-11.875-7.98-11.913
				c-0.066-0.104-5.371-8.368-32.948-8.368c-27.577,0-32.88,8.264-32.931,8.346c-0.05,0.06-0.933,1.047-8,11.935
				c-1.769,2.723-3.4,5.393-4.848,7.934c-2.282,4.002-3.67,6.928-4.337,8.648c1.846-2.195,7.506-5.764,17.791-8.367
				C109.411,143.434,120.287,142.268,132.672,142.268"/>
		</g>
	</g>
</g>
<g>
	<path fill="#A6A7AA" d="M326.873,179.311"/>
	<path fill="#FFECC0" d="M231.354,154.725c-0.093-0.141-0.25-0.227-0.418-0.227h-2.752c-0.201,0-0.384,0.121-0.461,0.309
		l-6.312,15.174l-6.482-15.178c-0.079-0.187-0.26-0.305-0.46-0.305h-3.068c-0.17,0-0.327,0.086-0.42,0.229
		c-0.092,0.143-0.105,0.322-0.035,0.477l8.525,18.935c0.081,0.18,0.26,0.295,0.456,0.295h2.798c0.199,0,0.379-0.119,0.458-0.302
		l8.211-18.934C231.462,155.043,231.446,154.865,231.354,154.725z"/>
	<g>
		<path fill="#FFECC0" d="M238.198,154.498h-2.707c-0.276,0-0.5,0.226-0.5,0.5v18.935c0,0.276,0.224,0.5,0.5,0.5h2.707
			c0.276,0,0.5-0.224,0.5-0.5v-18.935C238.698,154.723,238.475,154.498,238.198,154.498z"/>
		<path fill="#FFECC0" d="M236.844,149.844c0.699,0,1.298-0.223,1.779-0.662c0.499-0.453,0.752-1.018,0.752-1.682
			c0-0.662-0.253-1.229-0.751-1.683c-0.968-0.879-2.589-0.883-3.561,0c-0.496,0.453-0.748,1.019-0.748,1.683
			s0.252,1.229,0.749,1.682C235.547,149.621,236.147,149.844,236.844,149.844z"/>
	</g>
	<path fill="#FFECC0" d="M254.658,154.221c-0.275-0.055-0.547-0.104-0.809-0.146c-0.275-0.045-0.568-0.066-0.869-0.066
		c-1.655,0-3.083,0.386-4.246,1.146c-0.756,0.496-1.424,1.092-2.002,1.779c-0.017-0.627-0.037-1.279-0.066-1.955
		c-0.012-0.27-0.23-0.48-0.499-0.48h-2.707c-0.276,0-0.5,0.226-0.5,0.5c0,0.254,0.015,0.615,0.047,1.078
		c0.03,0.445,0.052,0.926,0.067,1.437c0.014,0.524,0.037,1.043,0.068,1.551c0.026,0.496,0.043,0.918,0.043,1.265v13.604
		c0,0.274,0.225,0.5,0.5,0.5h2.707c0.276,0,0.5-0.226,0.5-0.5v-10.329c0-0.869,0.129-1.689,0.381-2.441
		c0.246-0.736,0.629-1.387,1.133-1.93c0.502-0.543,1.154-0.977,1.938-1.289c0.796-0.318,1.757-0.479,2.859-0.479
		c0.28,0,0.573,0.047,0.896,0.145c0.143,0.045,0.295,0.021,0.416-0.059c0.123-0.08,0.205-0.211,0.225-0.354l0.314-2.42
		C255.088,154.516,254.916,154.273,254.658,154.221z"/>
	<path fill="#FFECC0" d="M271.158,171.504c-0.016-0.156-0.104-0.297-0.238-0.377c-0.133-0.082-0.299-0.097-0.443-0.037
		c-0.449,0.18-0.936,0.33-1.438,0.449c-0.488,0.112-0.974,0.17-1.44,0.17c-0.781,0-1.365-0.187-1.785-0.566
		c-0.404-0.367-0.604-0.891-0.604-1.596v-11.836h5.455c0.274,0,0.5-0.224,0.5-0.5v-2.213c0-0.275-0.226-0.5-0.5-0.5h-5.455v-4.949
		c0-0.277-0.226-0.5-0.5-0.5H262c-0.275,0-0.5,0.223-0.5,0.5v4.949h-4.012c-0.275,0-0.5,0.225-0.5,0.5v2.213
		c0,0.276,0.225,0.5,0.5,0.5h4.012v11.836c0,0.731,0.107,1.426,0.318,2.061c0.219,0.658,0.567,1.24,1.039,1.727
		c0.471,0.49,1.096,0.883,1.854,1.166c0.744,0.281,1.639,0.422,2.658,0.422c0.541,0,1.168-0.071,1.859-0.215
		c0.682-0.141,1.291-0.297,1.811-0.463c0.227-0.072,0.369-0.293,0.346-0.527L271.158,171.504z"/>
	<path fill="#FFECC0" d="M293.67,173.785c-0.006-0.238-0.02-0.551-0.045-0.934c-0.031-0.445-0.053-0.924-0.064-1.434
		c-0.018-0.525-0.039-1.041-0.067-1.556c-0.029-0.491-0.045-0.912-0.045-1.26v-13.604c0-0.276-0.224-0.5-0.5-0.5h-2.707
		c-0.275,0-0.5,0.224-0.5,0.5v9.465c0,1.242-0.179,2.332-0.529,3.24c-0.351,0.902-0.828,1.656-1.42,2.244
		c-0.592,0.586-1.304,1.029-2.115,1.316c-0.829,0.295-1.723,0.443-2.653,0.443c-0.998,0-1.81-0.154-2.412-0.457
		c-0.596-0.302-1.062-0.705-1.387-1.203c-0.341-0.519-0.582-1.113-0.72-1.773c-0.144-0.684-0.215-1.4-0.215-2.131v-11.145
		c0-0.277-0.224-0.5-0.5-0.5h-2.707c-0.272,0-0.5,0.223-0.5,0.5v11.268c0,1.07,0.11,2.127,0.328,3.137
		c0.223,1.051,0.655,1.994,1.289,2.805c0.633,0.812,1.516,1.478,2.627,1.974c1.098,0.491,2.51,0.739,4.194,0.739
		c1.767,0,3.341-0.401,4.679-1.194c0.901-0.537,1.637-1.152,2.198-1.836v0.002c0.015,0.657,0.037,1.346,0.066,2.062
		c0.014,0.268,0.232,0.479,0.5,0.479h2.707c0.002,0,0.006,0,0.012,0c0.273,0.01,0.511-0.221,0.511-0.5
		C293.691,173.881,293.686,173.832,293.67,173.785z"/>
	<g>
		<path fill="none" d="M311.17,167.92c0.199-0.736,0.299-1.486,0.299-2.226v-0.771h-2.479c-1.117,0-2.211,0.065-3.252,0.201
			c-1.025,0.131-1.959,0.354-2.771,0.666c-0.779,0.299-1.406,0.696-1.865,1.188c-0.428,0.453-0.633,1.012-0.633,1.707
			c0,0.482,0.113,0.898,0.352,1.268c0.244,0.385,0.562,0.705,0.953,0.953c0.404,0.26,0.867,0.459,1.371,0.596
			c0.513,0.14,1.039,0.207,1.562,0.207c1.375,0,2.51-0.18,3.373-0.535c0.859-0.354,1.549-0.812,2.053-1.368
			C310.633,169.252,310.982,168.617,311.17,167.92z"/>
		<path fill="#FFECC0" d="M315.281,173.717c-0.076-0.482-0.135-0.978-0.176-1.467c-0.046-0.541-0.082-1.121-0.111-1.744
			c-0.031-0.625-0.053-1.303-0.066-2.037c-0.018-0.732-0.021-1.562-0.021-2.488v-4.631c0-2.561-0.828-4.455-2.465-5.631
			c-1.584-1.135-3.718-1.711-6.336-1.711c-1.396,0-2.872,0.233-4.39,0.697c-1.533,0.471-2.842,1.174-3.883,2.09
			c-0.102,0.09-0.164,0.217-0.17,0.352s0.043,0.268,0.135,0.367l1.58,1.68c0.178,0.188,0.469,0.209,0.67,0.053
			c1.736-1.344,3.773-2.024,6.058-2.024c1.577,0,2.896,0.331,3.926,0.983c0.969,0.621,1.438,1.635,1.438,3.104v0.647h-2.655
			c-1.037,0-2.244,0.062-3.592,0.187c-1.371,0.127-2.688,0.412-3.908,0.848c-1.254,0.447-2.328,1.132-3.193,2.029
			c-0.898,0.938-1.355,2.213-1.355,3.789c0,1.103,0.246,2.06,0.729,2.842c0.471,0.771,1.09,1.408,1.844,1.899
			c0.738,0.48,1.582,0.834,2.504,1.052c0.906,0.213,1.843,0.319,2.775,0.319c1.844,0,3.397-0.307,4.621-0.912
			c0.871-0.432,1.647-1.041,2.321-1.821c0.046,0.649,0.125,1.267,0.236,1.84c0.047,0.233,0.252,0.404,0.49,0.404h2.527
			c0.002,0,0.006,0,0.01,0c0.25,0,0.51-0.222,0.51-0.5C315.33,173.855,315.314,173.781,315.281,173.717z M304.705,171.709
			c-0.521,0-1.051-0.067-1.561-0.207c-0.504-0.137-0.968-0.336-1.371-0.596c-0.392-0.248-0.709-0.568-0.953-0.953
			c-0.236-0.369-0.353-0.785-0.353-1.268c0-0.695,0.205-1.254,0.634-1.707c0.459-0.49,1.086-0.889,1.864-1.188
			c0.812-0.312,1.746-0.535,2.771-0.666c1.042-0.136,2.136-0.201,3.253-0.201h2.479v0.771c0,0.738-0.1,1.488-0.299,2.226
			c-0.188,0.696-0.537,1.332-1.039,1.885c-0.504,0.557-1.19,1.016-2.053,1.369C307.215,171.529,306.08,171.709,304.705,171.709z"/>
	</g>
	<path fill="#FFECC0" d="M322.598,142.451h-2.703c-0.276,0-0.5,0.225-0.5,0.5v30.98c0,0.275,0.224,0.5,0.5,0.5h2.703
		c0.277,0,0.5-0.225,0.5-0.5v-30.98C323.098,142.676,322.877,142.451,322.598,142.451z"/>
	<g>
		<path fill="none" d="M345.652,159.281c-0.688-0.625-1.519-1.129-2.463-1.502c-0.941-0.371-1.968-0.559-3.043-0.559
			c-1.076,0-2.101,0.188-3.041,0.559c-0.947,0.371-1.773,0.877-2.466,1.502c-0.684,0.621-1.237,1.369-1.645,2.223
			c-0.4,0.843-0.604,1.756-0.604,2.715c0,0.962,0.203,1.873,0.604,2.716c0.406,0.854,0.961,1.603,1.645,2.223
			c0.689,0.625,1.519,1.132,2.466,1.502c1.885,0.742,4.194,0.744,6.082,0c0.946-0.372,1.776-0.877,2.467-1.502
			c0.686-0.623,1.235-1.37,1.645-2.223c0.4-0.845,0.604-1.759,0.604-2.716c0-0.956-0.203-1.868-0.604-2.715
			C346.891,160.652,346.338,159.904,345.652,159.281z"/>
		<path fill="#FFECC0" d="M351.02,154.498h-2.707c-0.276,0-0.5,0.226-0.5,0.5v1.896c-0.706-0.746-1.561-1.367-2.551-1.853
			c-1.401-0.686-3.062-1.033-4.934-1.033c-1.586,0-3.104,0.271-4.512,0.812c-1.404,0.541-2.646,1.272-3.689,2.181
			c-1.053,0.914-1.896,2-2.51,3.227c-0.619,1.242-0.935,2.586-0.935,3.994c0,1.41,0.314,2.752,0.935,3.994
			c0.613,1.227,1.457,2.317,2.508,3.246c1.047,0.924,2.291,1.658,3.697,2.182c1.401,0.525,2.918,0.791,4.506,0.791
			c1.871,0,3.531-0.35,4.934-1.035c0.988-0.484,1.842-1.105,2.551-1.852v1.319c0,0.349-0.016,0.806-0.045,1.367
			c-0.026,0.537-0.121,1.119-0.276,1.726c-0.152,0.596-0.396,1.207-0.724,1.813c-0.315,0.586-0.764,1.131-1.33,1.619
			c-0.565,0.489-1.303,0.894-2.182,1.196c-0.895,0.311-2.018,0.467-3.334,0.467c-1.553,0-3.039-0.277-4.418-0.827
			c-1.354-0.539-2.498-1.396-3.398-2.547c-0.084-0.107-0.209-0.177-0.344-0.189c-0.145-0.016-0.271,0.029-0.375,0.117l-2.121,1.804
			c-0.1,0.086-0.164,0.209-0.174,0.342c-0.01,0.133,0.033,0.264,0.119,0.365c0.57,0.659,1.248,1.256,2.018,1.771
			c0.767,0.51,1.627,0.946,2.562,1.301c0.928,0.352,1.922,0.623,2.953,0.805s2.102,0.273,3.18,0.273s2.295-0.142,3.621-0.42
			c1.354-0.287,2.639-0.853,3.814-1.681c1.188-0.834,2.188-2.023,2.977-3.537c0.787-1.515,1.186-3.508,1.186-5.928V155
			C351.52,154.723,351.297,154.498,351.02,154.498z M347.902,164.219c0,0.957-0.203,1.871-0.604,2.715
			c-0.406,0.852-0.959,1.6-1.645,2.223c-0.688,0.625-1.521,1.129-2.468,1.502c-1.887,0.744-4.196,0.742-6.082,0
			c-0.946-0.371-1.772-0.877-2.465-1.502c-0.684-0.621-1.237-1.369-1.645-2.223c-0.4-0.842-0.604-1.754-0.604-2.715
			c0-0.959,0.203-1.873,0.604-2.715c0.406-0.854,0.961-1.603,1.645-2.224c0.689-0.625,1.519-1.131,2.465-1.502
			c0.941-0.371,1.966-0.56,3.041-0.56c1.076,0,2.103,0.188,3.043,0.56c0.945,0.373,1.775,0.877,2.464,1.502
			c0.688,0.623,1.237,1.371,1.646,2.224C347.699,162.35,347.902,163.262,347.902,164.219z"/>
	</g>
	<g>
		<path fill="none" d="M369.377,158.922c-0.604-0.521-1.322-0.938-2.146-1.242c-0.826-0.305-1.718-0.459-2.646-0.459
			c-1.383,0-2.535,0.254-3.434,0.754c-0.918,0.514-1.648,1.107-2.179,1.764c-0.534,0.664-0.918,1.312-1.137,1.924
			c-0.106,0.301-0.182,0.531-0.229,0.705h13.67c-0.06-0.58-0.222-1.133-0.482-1.65C370.445,160.039,369.969,159.436,369.377,158.922
			z"/>
		<path fill="#FFECC0" d="M374.342,159.938c-0.444-1.123-1.11-2.139-1.983-3.018c-0.869-0.875-1.955-1.588-3.229-2.117
			c-1.271-0.527-2.754-0.795-4.41-0.795c-1.592,0-3.063,0.266-4.381,0.793c-1.318,0.527-2.479,1.266-3.451,2.19
			c-0.979,0.933-1.746,2.043-2.28,3.304c-0.535,1.258-0.808,2.646-0.808,4.129c0,1.535,0.264,2.957,0.779,4.225
			c0.521,1.275,1.281,2.396,2.264,3.33c0.978,0.928,2.152,1.66,3.504,2.174c1.347,0.512,2.863,0.77,4.511,0.77
			c1.922,0,3.706-0.328,5.309-0.979c1.629-0.662,3.016-1.768,4.119-3.285c0.16-0.219,0.115-0.525-0.103-0.691l-1.983-1.516
			c-0.109-0.084-0.252-0.119-0.388-0.096c-0.137,0.023-0.258,0.102-0.334,0.217c-0.637,0.955-1.567,1.725-2.77,2.283
			c-1.227,0.566-2.506,0.854-3.809,0.854c-1.503,0-2.736-0.254-3.664-0.758c-0.938-0.508-1.699-1.127-2.261-1.838
			c-0.557-0.707-0.942-1.441-1.149-2.182c-0.146-0.516-0.238-0.967-0.287-1.352h16.973c0.275,0,0.5-0.226,0.5-0.5v-1.722
			C375.008,162.211,374.783,161.061,374.342,159.938z M357.605,162.367c0.049-0.174,0.122-0.404,0.229-0.705
			c0.219-0.611,0.603-1.26,1.137-1.924c0.527-0.656,1.261-1.25,2.179-1.764c0.896-0.5,2.051-0.754,3.434-0.754
			c0.932,0,1.82,0.154,2.646,0.459c0.821,0.305,1.543,0.723,2.146,1.242c0.594,0.514,1.068,1.117,1.416,1.795
			c0.264,0.518,0.426,1.07,0.482,1.649L357.605,162.367L357.605,162.367z"/>
	</g>
	<path fill="#FFECC0" d="M396.387,159.518c-0.242-1.051-0.684-1.992-1.312-2.799c-0.633-0.812-1.508-1.475-2.603-1.971
		c-1.082-0.492-2.485-0.74-4.176-0.74c-1.768,0-3.342,0.401-4.678,1.197c-0.9,0.534-1.637,1.149-2.199,1.836
		c0-0.002,0-0.004,0-0.004c-0.014-0.66-0.037-1.347-0.066-2.06c-0.012-0.269-0.229-0.479-0.5-0.479h-2.707
		c-0.272,0-0.5,0.225-0.5,0.5c0,0.254,0.019,0.614,0.048,1.077c0.028,0.445,0.051,0.927,0.065,1.437
		c0.015,0.525,0.039,1.043,0.068,1.553c0.027,0.494,0.045,0.916,0.045,1.262v13.605c0,0.275,0.223,0.5,0.5,0.5h2.705
		c0.277,0,0.5-0.225,0.5-0.5v-9.467c0-1.244,0.178-2.334,0.529-3.24c0.35-0.9,0.827-1.656,1.42-2.244
		c0.592-0.588,1.305-1.031,2.114-1.318c0.828-0.293,1.724-0.44,2.654-0.44c1,0,1.812,0.153,2.414,0.457
		c0.592,0.301,1.059,0.704,1.385,1.2c0.34,0.521,0.582,1.117,0.72,1.773c0.143,0.688,0.215,1.406,0.215,2.133v11.146
		c0,0.275,0.225,0.5,0.5,0.5h2.707c0.276,0,0.5-0.225,0.5-0.5v-11.27C396.736,161.588,396.619,160.531,396.387,159.518z"/>
	<g>
		<path fill="#FFECC0" d="M404.432,154.498h-2.705c-0.276,0-0.5,0.226-0.5,0.5v18.935c0,0.276,0.224,0.5,0.5,0.5h2.705
			c0.277,0,0.5-0.224,0.5-0.5v-18.935C404.932,154.723,404.711,154.498,404.432,154.498z"/>
		<path fill="#FFECC0" d="M403.08,149.844c0.695,0,1.297-0.223,1.779-0.662c0.498-0.451,0.75-1.018,0.75-1.682
			s-0.252-1.229-0.75-1.685c-0.972-0.875-2.589-0.879-3.562,0.002c-0.498,0.453-0.75,1.019-0.75,1.683s0.252,1.229,0.75,1.682
			C401.783,149.621,402.381,149.844,403.08,149.844z"/>
	</g>
	<path fill="#FFECC0" d="M428.283,173.785c-0.004-0.238-0.021-0.551-0.045-0.932c-0.027-0.445-0.052-0.924-0.064-1.438
		c-0.018-0.523-0.039-1.039-0.067-1.554c-0.029-0.491-0.044-0.912-0.044-1.26v-13.604c0-0.276-0.225-0.5-0.5-0.5h-2.706
		c-0.277,0-0.5,0.224-0.5,0.5v9.465c0,1.24-0.181,2.332-0.531,3.24c-0.349,0.9-0.824,1.654-1.42,2.244
		c-0.59,0.588-1.304,1.029-2.115,1.316c-0.83,0.295-1.721,0.443-2.652,0.443c-0.998,0-1.811-0.154-2.414-0.457
		c-0.594-0.302-1.061-0.703-1.387-1.203c-0.34-0.519-0.582-1.115-0.717-1.773c-0.144-0.682-0.215-1.398-0.215-2.131v-11.145
		c0-0.277-0.226-0.5-0.5-0.5h-2.707c-0.275,0-0.5,0.223-0.5,0.5v11.268c0,1.076,0.11,2.133,0.326,3.137
		c0.227,1.055,0.659,1.998,1.29,2.805c0.634,0.812,1.517,1.478,2.625,1.974c1.101,0.491,2.513,0.739,4.197,0.739
		c1.767,0,3.34-0.401,4.678-1.194c0.9-0.537,1.636-1.152,2.197-1.836c0,0,0,0.002,0,0.004c0.017,0.655,0.039,1.344,0.066,2.06
		c0.014,0.268,0.231,0.479,0.5,0.479h2.707c0.01,0,0.018,0,0.021,0c0.277,0,0.5-0.225,0.5-0.5
		C428.305,173.881,428.299,173.832,428.283,173.785z"/>
	<path fill="#FFECC0" d="M446.852,165.26c-0.666-0.752-1.495-1.334-2.465-1.729c-0.93-0.381-1.971-0.659-3.09-0.832
		c-1.059-0.159-2.043-0.354-2.928-0.584c-0.844-0.215-1.56-0.518-2.127-0.896c-0.479-0.317-0.701-0.784-0.701-1.469
		c0-0.385,0.107-0.715,0.33-1.012c0.242-0.326,0.549-0.598,0.91-0.812c0.377-0.221,0.813-0.396,1.295-0.521s0.949-0.188,1.387-0.188
		c1.137,0,2.062,0.203,2.746,0.604c0.688,0.406,1.273,1.015,1.738,1.812c0.137,0.229,0.432,0.312,0.67,0.188l2.436-1.312
		c0.117-0.063,0.205-0.172,0.242-0.301s0.021-0.269-0.045-0.386c-0.74-1.317-1.795-2.299-3.135-2.913
		c-1.308-0.603-2.873-0.906-4.652-0.906c-0.91,0-1.816,0.115-2.697,0.344c-0.895,0.232-1.711,0.594-2.43,1.07
		c-0.734,0.489-1.338,1.112-1.795,1.854c-0.469,0.76-0.707,1.662-0.707,2.681c0,1.329,0.357,2.383,1.061,3.129
		c0.66,0.703,1.486,1.26,2.453,1.655c0.935,0.384,1.974,0.668,3.086,0.853c1.068,0.176,2.054,0.385,2.929,0.623
		c0.844,0.229,1.557,0.549,2.119,0.949c0.479,0.342,0.715,0.854,0.715,1.561c0,0.449-0.111,0.834-0.343,1.174
		c-0.254,0.373-0.569,0.686-0.969,0.951c-0.406,0.271-0.877,0.482-1.396,0.631c-1.677,0.48-3.363,0.201-4.877-0.523
		c-1.027-0.492-1.781-1.182-2.308-2.108c-0.067-0.119-0.18-0.205-0.311-0.238c-0.131-0.035-0.271-0.014-0.39,0.06l-2.391,1.475
		c-0.113,0.07-0.193,0.182-0.227,0.311c-0.029,0.131-0.009,0.267,0.062,0.379c0.863,1.396,2.103,2.439,3.683,3.107
		c1.54,0.65,3.271,0.98,5.133,0.98c1.03,0,2.032-0.129,2.977-0.385c0.955-0.263,1.816-0.658,2.564-1.181
		c0.77-0.533,1.383-1.203,1.819-1.987c0.445-0.794,0.672-1.736,0.672-2.808C447.9,167.16,447.549,166.049,446.852,165.26z"/>
</g>
<rect x="239.92" y="183.122" fill="#FFECC0" width="1.766" height="15.536"/>
<rect x="239.92" y="183.122" fill="#FFECC0" width="1.766" height="15.536"/>
<path fill="#FFECC0" d="M254.432,196.896c-0.633,0.739-1.328,1.26-2.081,1.555c-0.754,0.295-1.629,0.443-2.625,0.445
	c-0.83,0-1.576-0.133-2.238-0.398c-0.666-0.266-1.229-0.627-1.688-1.078c-0.461-0.451-0.816-0.984-1.066-1.602
	c-0.248-0.617-0.373-1.273-0.375-1.971c0-0.74,0.135-1.423,0.404-2.048c0.271-0.623,0.648-1.157,1.129-1.604
	c0.482-0.445,1.057-0.791,1.719-1.039c0.664-0.246,1.387-0.369,2.172-0.371c0.738-0.002,1.418,0.109,2.037,0.336
	c0.617,0.225,1.151,0.553,1.596,0.984c0.445,0.431,0.789,0.957,1.031,1.578c0.242,0.625,0.363,1.334,0.363,2.127l0.002,0.515
	l-8.554,0.012c0.031,0.41,0.141,0.806,0.33,1.183s0.434,0.703,0.736,0.983c0.303,0.283,0.656,0.502,1.064,0.668
	c0.408,0.162,0.852,0.244,1.334,0.244c0.77-0.002,1.418-0.125,1.945-0.371c0.529-0.248,1.004-0.61,1.426-1.094L254.432,196.896z
	 M252.91,192.973c-0.031-0.822-0.326-1.479-0.885-1.974c-0.559-0.492-1.328-0.735-2.309-0.735c-0.98,0.002-1.771,0.247-2.375,0.741
	c-0.602,0.494-0.963,1.152-1.084,1.976L252.91,192.973z"/>
<path fill="#FFECC0" d="M254.432,196.896c-0.633,0.739-1.328,1.26-2.081,1.555c-0.754,0.295-1.629,0.443-2.625,0.445
	c-0.83,0-1.576-0.133-2.238-0.398c-0.666-0.266-1.229-0.627-1.688-1.078c-0.461-0.451-0.816-0.984-1.066-1.602
	c-0.248-0.617-0.373-1.273-0.375-1.971c0-0.74,0.135-1.423,0.404-2.048c0.271-0.623,0.648-1.157,1.129-1.604
	c0.482-0.445,1.057-0.791,1.719-1.039c0.664-0.246,1.387-0.369,2.172-0.371c0.738-0.002,1.418,0.109,2.037,0.336
	c0.617,0.225,1.151,0.553,1.596,0.984c0.445,0.431,0.789,0.957,1.031,1.578c0.242,0.625,0.363,1.334,0.363,2.127l0.002,0.515
	l-8.554,0.012c0.031,0.41,0.141,0.806,0.33,1.183s0.434,0.703,0.736,0.983c0.303,0.283,0.656,0.502,1.064,0.668
	c0.408,0.162,0.852,0.244,1.334,0.244c0.77-0.002,1.418-0.125,1.945-0.371c0.529-0.248,1.004-0.61,1.426-1.094L254.432,196.896z
	 M252.91,192.973c-0.031-0.822-0.326-1.479-0.885-1.974c-0.559-0.492-1.328-0.735-2.309-0.735c-0.98,0.002-1.771,0.247-2.375,0.741
	c-0.602,0.494-0.963,1.152-1.084,1.976L252.91,192.973z"/>
<path fill="#FFECC0" d="M257.184,190.255c0.543-0.507,1.187-0.882,1.933-1.122c0.747-0.24,1.504-0.361,2.272-0.361
	c1.568-0.002,2.701,0.332,3.396,1.002c0.693,0.67,1.041,1.69,1.043,3.061l0.006,4.131c0,0.273,0.016,0.559,0.047,0.854
	c0.029,0.296,0.068,0.564,0.113,0.812l-1.697,0.002c-0.061-0.219-0.096-0.463-0.102-0.73c-0.008-0.268-0.014-0.504-0.014-0.709
	h-0.045c-0.347,0.494-0.812,0.898-1.392,1.216c-0.578,0.313-1.277,0.475-2.093,0.475c-0.543,0.002-1.051-0.061-1.526-0.184
	s-0.892-0.304-1.244-0.543c-0.354-0.238-0.639-0.537-0.85-0.894c-0.212-0.355-0.316-0.768-0.318-1.231
	c0-0.796,0.226-1.421,0.677-1.871c0.452-0.453,1.014-0.789,1.686-1.011c0.67-0.219,1.395-0.356,2.17-0.414
	c0.777-0.055,1.49-0.084,2.139-0.084h0.68v-0.288c-0.002-0.697-0.231-1.226-0.692-1.58c-0.461-0.357-1.104-0.533-1.935-0.533
	c-0.573,0.002-1.137,0.088-1.686,0.26c-0.551,0.173-1.037,0.437-1.459,0.794L257.184,190.255z M262.301,194.009
	c-1.131,0.002-2.029,0.146-2.691,0.437c-0.664,0.289-0.996,0.762-0.993,1.418c0,0.604,0.225,1.031,0.668,1.285
	c0.444,0.252,1,0.379,1.664,0.379c0.514-0.002,0.961-0.082,1.346-0.238c0.386-0.158,0.705-0.369,0.961-0.629
	c0.257-0.26,0.451-0.566,0.588-0.916c0.136-0.35,0.21-0.723,0.226-1.119v-0.617L262.301,194.009z"/>
<path fill="#FFECC0" d="M257.184,190.255c0.543-0.507,1.187-0.882,1.933-1.122c0.747-0.24,1.504-0.361,2.272-0.361
	c1.568-0.002,2.701,0.332,3.396,1.002c0.693,0.67,1.041,1.69,1.043,3.061l0.006,4.131c0,0.273,0.016,0.559,0.047,0.854
	c0.029,0.296,0.068,0.564,0.113,0.812l-1.697,0.002c-0.061-0.219-0.096-0.463-0.102-0.73c-0.008-0.268-0.014-0.504-0.014-0.709
	h-0.045c-0.347,0.494-0.812,0.898-1.392,1.216c-0.578,0.313-1.277,0.475-2.093,0.475c-0.543,0.002-1.051-0.061-1.526-0.184
	s-0.892-0.304-1.244-0.543c-0.354-0.238-0.639-0.537-0.85-0.894c-0.212-0.355-0.316-0.768-0.318-1.231
	c0-0.796,0.226-1.421,0.677-1.871c0.452-0.453,1.014-0.789,1.686-1.011c0.67-0.219,1.395-0.356,2.17-0.414
	c0.777-0.055,1.49-0.084,2.139-0.084h0.68v-0.288c-0.002-0.697-0.231-1.226-0.692-1.58c-0.461-0.357-1.104-0.533-1.935-0.533
	c-0.573,0.002-1.137,0.088-1.686,0.26c-0.551,0.173-1.037,0.437-1.459,0.794L257.184,190.255z M262.301,194.009
	c-1.131,0.002-2.029,0.146-2.691,0.437c-0.664,0.289-0.996,0.762-0.993,1.418c0,0.604,0.225,1.031,0.668,1.285
	c0.444,0.252,1,0.379,1.664,0.379c0.514-0.002,0.961-0.082,1.346-0.238c0.386-0.158,0.705-0.369,0.961-0.629
	c0.257-0.26,0.451-0.566,0.588-0.916c0.136-0.35,0.21-0.723,0.226-1.119v-0.617L262.301,194.009z"/>
<path fill="#FFECC0" d="M277.641,196.909h-0.045c-0.33,0.549-0.854,1.012-1.57,1.389c-0.717,0.379-1.549,0.568-2.498,0.568
	c-0.737,0.002-1.432-0.125-2.082-0.377c-0.647-0.253-1.211-0.605-1.686-1.058c-0.477-0.451-0.85-0.986-1.121-1.602
	c-0.272-0.615-0.41-1.287-0.41-2.014c-0.002-0.728,0.133-1.398,0.404-2.017c0.271-0.614,0.646-1.149,1.131-1.604
	c0.48-0.451,1.064-0.803,1.752-1.06c0.687-0.254,1.441-0.381,2.271-0.383c0.768,0,1.473,0.144,2.115,0.431
	c0.641,0.286,1.203,0.688,1.688,1.209l0.045-0.002l-0.01-7.314l1.766-0.002l0.019,15.535l-1.767,0.002L277.641,196.909z
	 M277.639,193.807c-0.002-0.507-0.088-0.976-0.262-1.406c-0.174-0.432-0.428-0.81-0.76-1.129c-0.332-0.322-0.729-0.576-1.188-0.761
	c-0.462-0.186-0.979-0.276-1.55-0.274c-0.573,0-1.092,0.092-1.551,0.279c-0.461,0.184-0.854,0.438-1.188,0.762
	c-0.33,0.322-0.582,0.699-0.756,1.131c-0.172,0.432-0.26,0.902-0.258,1.408c0,0.508,0.088,0.975,0.262,1.406
	c0.174,0.43,0.426,0.809,0.76,1.131c0.33,0.319,0.728,0.573,1.188,0.758c0.461,0.186,0.978,0.277,1.552,0.274
	c0.569,0,1.088-0.092,1.547-0.278c0.461-0.185,0.854-0.439,1.188-0.76c0.332-0.324,0.584-0.701,0.756-1.134
	C277.553,194.782,277.639,194.312,277.639,193.807"/>
<path fill="#FFECC0" d="M277.641,196.909h-0.045c-0.33,0.549-0.854,1.012-1.57,1.389c-0.717,0.379-1.549,0.568-2.498,0.568
	c-0.737,0.002-1.432-0.125-2.082-0.377c-0.647-0.253-1.211-0.605-1.686-1.058c-0.477-0.451-0.85-0.986-1.121-1.602
	c-0.272-0.615-0.41-1.287-0.41-2.014c-0.002-0.728,0.133-1.398,0.404-2.017c0.271-0.614,0.646-1.149,1.131-1.604
	c0.48-0.451,1.064-0.803,1.752-1.06c0.687-0.254,1.441-0.381,2.271-0.383c0.768,0,1.473,0.144,2.115,0.431
	c0.641,0.286,1.203,0.688,1.688,1.209l0.045-0.002l-0.01-7.314l1.766-0.002l0.019,15.535l-1.767,0.002L277.641,196.909z
	 M277.639,193.807c-0.002-0.507-0.088-0.976-0.262-1.406c-0.174-0.432-0.428-0.81-0.76-1.129c-0.332-0.322-0.729-0.576-1.188-0.761
	c-0.462-0.186-0.979-0.276-1.55-0.274c-0.573,0-1.092,0.092-1.551,0.279c-0.461,0.184-0.854,0.438-1.188,0.762
	c-0.33,0.322-0.582,0.699-0.756,1.131c-0.172,0.432-0.26,0.902-0.258,1.408c0,0.508,0.088,0.975,0.262,1.406
	c0.174,0.43,0.426,0.809,0.76,1.131c0.33,0.319,0.728,0.573,1.188,0.758c0.461,0.186,0.978,0.277,1.552,0.274
	c0.569,0,1.088-0.092,1.547-0.278c0.461-0.185,0.854-0.439,1.188-0.76c0.332-0.324,0.584-0.701,0.756-1.134
	C277.553,194.782,277.639,194.312,277.639,193.807z"/>
<path fill="#FFECC0" d="M282.197,185.232c0-0.316,0.125-0.59,0.373-0.822c0.248-0.234,0.555-0.352,0.916-0.352
	c0.363,0,0.668,0.116,0.916,0.348c0.25,0.234,0.375,0.508,0.375,0.822c0,0.344-0.121,0.623-0.359,0.844
	c-0.242,0.219-0.553,0.328-0.93,0.328c-0.377,0.002-0.687-0.107-0.926-0.326C282.318,185.855,282.199,185.574,282.197,185.232
	 M282.609,188.992l1.766-0.002l0.012,9.615l-1.766,0.002L282.609,188.992z"/>
<path fill="#FFECC0" d="M282.197,185.232c0-0.316,0.125-0.59,0.373-0.822c0.248-0.234,0.555-0.352,0.916-0.352
	c0.363,0,0.668,0.116,0.916,0.348c0.25,0.234,0.375,0.508,0.375,0.822c0,0.344-0.121,0.623-0.359,0.844
	c-0.242,0.219-0.553,0.328-0.93,0.328c-0.377,0.002-0.687-0.107-0.926-0.326C282.318,185.855,282.199,185.574,282.197,185.232z
	 M282.609,188.992l1.766-0.002l0.012,9.615l-1.766,0.002L282.609,188.992z"/>
<path fill="#FFECC0" d="M287.658,191.268c0-0.438-0.018-0.851-0.047-1.233c-0.031-0.384-0.047-0.732-0.047-1.048l1.674-0.002
	c0.002,0.263,0.008,0.521,0.023,0.781c0.016,0.26,0.022,0.526,0.022,0.801h0.047c0.119-0.232,0.289-0.459,0.508-0.678
	c0.218-0.221,0.479-0.416,0.779-0.588s0.641-0.309,1.019-0.412c0.377-0.102,0.782-0.154,1.223-0.154
	c0.69-0.002,1.293,0.097,1.799,0.285c0.504,0.191,0.924,0.457,1.256,0.799c0.332,0.345,0.578,0.758,0.736,1.242
	c0.158,0.485,0.238,1.02,0.24,1.594l0.006,5.938l-1.765,0.002l-0.008-5.774c0-0.81-0.196-1.445-0.59-1.91
	c-0.396-0.465-1.004-0.697-1.834-0.697c-0.572,0.002-1.066,0.092-1.479,0.27c-0.416,0.181-0.755,0.433-1.019,0.763
	c-0.265,0.33-0.459,0.721-0.589,1.172c-0.127,0.453-0.19,0.953-0.188,1.5l0.005,4.687l-1.765,0.002L287.658,191.268z"/>
<path fill="#FFECC0" d="M287.658,191.268c0-0.438-0.018-0.851-0.047-1.233c-0.031-0.384-0.047-0.732-0.047-1.048l1.674-0.002
	c0.002,0.263,0.008,0.521,0.023,0.781c0.016,0.26,0.022,0.526,0.022,0.801h0.047c0.119-0.232,0.289-0.459,0.508-0.678
	c0.218-0.221,0.479-0.416,0.779-0.588s0.641-0.309,1.019-0.412c0.377-0.102,0.782-0.154,1.223-0.154
	c0.69-0.002,1.293,0.097,1.799,0.285c0.504,0.191,0.924,0.457,1.256,0.799c0.332,0.345,0.578,0.758,0.736,1.242
	c0.158,0.485,0.238,1.02,0.24,1.594l0.006,5.938l-1.765,0.002l-0.008-5.774c0-0.81-0.196-1.445-0.59-1.91
	c-0.396-0.465-1.004-0.697-1.834-0.697c-0.572,0.002-1.066,0.092-1.479,0.27c-0.416,0.181-0.755,0.433-1.019,0.763
	c-0.265,0.33-0.459,0.721-0.589,1.172c-0.127,0.453-0.19,0.953-0.188,1.5l0.005,4.687l-1.765,0.002L287.658,191.268z"/>
<path fill="#FFECC0" d="M310.584,198.146c0.002,1.754-0.49,3.086-1.477,3.998c-0.987,0.912-2.416,1.369-4.285,1.373
	c-1.041,0-1.98-0.138-2.818-0.408c-0.838-0.273-1.633-0.746-2.387-1.416l1.264-1.316c0.559,0.549,1.152,0.961,1.777,1.24
	c0.627,0.279,1.348,0.422,2.162,0.42c0.783,0,1.436-0.107,1.957-0.32c0.52-0.213,0.93-0.502,1.229-0.865
	c0.3-0.362,0.513-0.778,0.633-1.244c0.119-0.467,0.181-0.953,0.181-1.459l-0.002-1.233h-0.045c-0.423,0.617-0.974,1.069-1.65,1.358
	s-1.373,0.435-2.082,0.435c-0.828,0-1.59-0.121-2.285-0.367c-0.693-0.246-1.289-0.588-1.787-1.024
	c-0.498-0.438-0.885-0.959-1.156-1.562c-0.271-0.603-0.407-1.26-0.407-1.973c-0.003-0.781,0.133-1.486,0.401-2.117
	c0.271-0.631,0.652-1.162,1.144-1.593c0.487-0.432,1.08-0.766,1.772-1c0.693-0.232,1.463-0.35,2.31-0.353
	c0.36,0,0.723,0.037,1.086,0.111c0.361,0.076,0.713,0.19,1.051,0.351c0.34,0.155,0.646,0.354,0.918,0.594
	c0.271,0.24,0.498,0.517,0.68,0.83h0.046l-0.003-1.644l1.767-0.002L310.584,198.146z M301.303,193.777
	c0,0.494,0.1,0.949,0.295,1.367c0.197,0.416,0.465,0.779,0.808,1.088c0.338,0.308,0.733,0.552,1.188,0.728
	c0.453,0.181,0.937,0.269,1.449,0.267c0.603,0,1.137-0.097,1.605-0.289c0.467-0.191,0.862-0.449,1.188-0.771
	s0.568-0.693,0.734-1.111c0.164-0.418,0.246-0.858,0.246-1.326c-0.002-0.52-0.093-0.996-0.273-1.428
	c-0.18-0.432-0.438-0.803-0.771-1.119c-0.332-0.313-0.73-0.557-1.199-0.727c-0.469-0.172-0.98-0.256-1.537-0.256
	c-0.561,0-1.068,0.094-1.527,0.279c-0.461,0.186-0.852,0.438-1.176,0.762c-0.324,0.322-0.576,0.699-0.756,1.131
	C301.393,192.802,301.303,193.271,301.303,193.777"/>
<path fill="#FFECC0" d="M310.584,198.146c0.002,1.754-0.49,3.086-1.477,3.998c-0.987,0.912-2.416,1.369-4.285,1.373
	c-1.041,0-1.98-0.138-2.818-0.408c-0.838-0.273-1.633-0.746-2.387-1.416l1.264-1.316c0.559,0.549,1.152,0.961,1.777,1.24
	c0.627,0.279,1.348,0.422,2.162,0.42c0.783,0,1.436-0.107,1.957-0.32c0.52-0.213,0.93-0.502,1.229-0.865
	c0.3-0.362,0.513-0.778,0.633-1.244c0.119-0.467,0.181-0.953,0.181-1.459l-0.002-1.233h-0.045c-0.423,0.617-0.974,1.069-1.65,1.358
	s-1.373,0.435-2.082,0.435c-0.828,0-1.59-0.121-2.285-0.367c-0.693-0.246-1.289-0.588-1.787-1.024
	c-0.498-0.438-0.885-0.959-1.156-1.562c-0.271-0.603-0.407-1.26-0.407-1.973c-0.003-0.781,0.133-1.486,0.401-2.117
	c0.271-0.631,0.652-1.162,1.144-1.593c0.487-0.432,1.08-0.766,1.772-1c0.693-0.232,1.463-0.35,2.31-0.353
	c0.36,0,0.723,0.037,1.086,0.111c0.361,0.076,0.713,0.19,1.051,0.351c0.34,0.155,0.646,0.354,0.918,0.594
	c0.271,0.24,0.498,0.517,0.68,0.83h0.046l-0.003-1.644l1.767-0.002L310.584,198.146z M301.303,193.777
	c0,0.494,0.1,0.949,0.295,1.367c0.197,0.416,0.465,0.779,0.808,1.088c0.338,0.308,0.733,0.552,1.188,0.728
	c0.453,0.181,0.937,0.269,1.449,0.267c0.603,0,1.137-0.097,1.605-0.289c0.467-0.191,0.862-0.449,1.188-0.771
	s0.568-0.693,0.734-1.111c0.164-0.418,0.246-0.858,0.246-1.326c-0.002-0.52-0.093-0.996-0.273-1.428
	c-0.18-0.432-0.438-0.803-0.771-1.119c-0.332-0.313-0.73-0.557-1.199-0.727c-0.469-0.172-0.98-0.256-1.537-0.256
	c-0.561,0-1.068,0.094-1.527,0.279c-0.461,0.186-0.852,0.438-1.176,0.762c-0.324,0.322-0.576,0.699-0.756,1.131
	C301.393,192.802,301.303,193.271,301.303,193.777z"/>
<path fill="#FFECC0" d="M319.572,183.029l1.764-0.002l0.01,7.314h0.045c0.482-0.521,1.043-0.925,1.685-1.214
	c0.641-0.287,1.346-0.433,2.115-0.435c0.827,0,1.586,0.125,2.272,0.377c0.688,0.255,1.271,0.605,1.756,1.058
	c0.482,0.452,0.859,0.985,1.133,1.601c0.271,0.615,0.408,1.287,0.41,2.015c0,0.728-0.135,1.397-0.405,2.016
	c-0.271,0.615-0.644,1.15-1.117,1.604c-0.475,0.453-1.037,0.807-1.685,1.061c-0.649,0.254-1.344,0.383-2.082,0.383
	c-0.95,0.002-1.784-0.186-2.5-0.562c-0.719-0.375-1.243-0.838-1.575-1.386h-0.046l0.003,1.705l-1.765,0.002L319.572,183.029z
	 M321.35,193.755c0,0.509,0.086,0.978,0.263,1.406c0.174,0.432,0.426,0.81,0.76,1.131c0.332,0.319,0.727,0.574,1.188,0.758
	c0.459,0.185,0.978,0.277,1.55,0.275c0.573,0,1.09-0.093,1.551-0.279c0.459-0.185,0.854-0.438,1.188-0.76
	c0.33-0.324,0.584-0.701,0.756-1.134c0.175-0.432,0.261-0.899,0.261-1.405c-0.002-0.508-0.09-0.978-0.265-1.408
	c-0.174-0.431-0.426-0.81-0.758-1.129c-0.332-0.321-0.729-0.576-1.188-0.76c-0.461-0.187-0.978-0.277-1.552-0.275
	c-0.571,0-1.09,0.093-1.549,0.279s-0.854,0.438-1.186,0.762c-0.332,0.322-0.584,0.699-0.758,1.132
	C321.435,192.779,321.348,193.249,321.35,193.755"/>
<path fill="#FFECC0" d="M319.572,183.029l1.764-0.002l0.01,7.314h0.045c0.482-0.521,1.043-0.925,1.685-1.214
	c0.641-0.287,1.346-0.433,2.115-0.435c0.827,0,1.586,0.125,2.272,0.377c0.688,0.255,1.271,0.605,1.756,1.058
	c0.482,0.452,0.859,0.985,1.133,1.601c0.271,0.615,0.408,1.287,0.41,2.015c0,0.728-0.135,1.397-0.405,2.016
	c-0.271,0.615-0.644,1.15-1.117,1.604c-0.475,0.453-1.037,0.807-1.685,1.061c-0.649,0.254-1.344,0.383-2.082,0.383
	c-0.95,0.002-1.784-0.186-2.5-0.562c-0.719-0.375-1.243-0.838-1.575-1.386h-0.046l0.003,1.705l-1.765,0.002L319.572,183.029z
	 M321.35,193.755c0,0.509,0.086,0.978,0.263,1.406c0.174,0.432,0.426,0.81,0.76,1.131c0.332,0.319,0.727,0.574,1.188,0.758
	c0.459,0.185,0.978,0.277,1.55,0.275c0.573,0,1.09-0.093,1.551-0.279c0.459-0.185,0.854-0.438,1.188-0.76
	c0.33-0.324,0.584-0.701,0.756-1.134c0.175-0.432,0.261-0.899,0.261-1.405c-0.002-0.508-0.09-0.978-0.265-1.408
	c-0.174-0.431-0.426-0.81-0.758-1.129c-0.332-0.321-0.729-0.576-1.188-0.76c-0.461-0.187-0.978-0.277-1.552-0.275
	c-0.571,0-1.09,0.093-1.549,0.279s-0.854,0.438-1.186,0.762c-0.332,0.322-0.584,0.699-0.758,1.132
	C321.435,192.779,321.348,193.249,321.35,193.755z"/>
<path fill="#FFECC0" d="M337.172,200.745c-0.182,0.41-0.365,0.782-0.553,1.119c-0.189,0.336-0.414,0.625-0.678,0.864
	c-0.265,0.238-0.58,0.424-0.949,0.556c-0.371,0.131-0.818,0.196-1.349,0.196c-0.256,0-0.522-0.014-0.803-0.039
	c-0.279-0.028-0.539-0.098-0.781-0.205l0.226-1.397c0.182,0.068,0.371,0.113,0.565,0.136c0.195,0.02,0.423,0.028,0.681,0.028
	c0.571-0.002,0.994-0.146,1.266-0.435c0.271-0.288,0.504-0.672,0.701-1.151l0.721-1.81l-4.399-9.674h2.059l3.289,7.535l0.045-0.002
	l3.137-7.544l1.922-0.002L337.172,200.745z"/>
<path fill="#FFECC0" d="M337.172,200.745c-0.182,0.41-0.365,0.782-0.553,1.119c-0.189,0.336-0.414,0.625-0.678,0.864
	c-0.265,0.238-0.58,0.424-0.949,0.556c-0.371,0.131-0.818,0.196-1.349,0.196c-0.256,0-0.522-0.014-0.803-0.039
	c-0.279-0.028-0.539-0.098-0.781-0.205l0.226-1.397c0.182,0.068,0.371,0.113,0.565,0.136c0.195,0.02,0.423,0.028,0.681,0.028
	c0.571-0.002,0.994-0.146,1.266-0.435c0.271-0.288,0.504-0.672,0.701-1.151l0.721-1.81l-4.399-9.674h2.059l3.289,7.535l0.045-0.002
	l3.137-7.544l1.922-0.002L337.172,200.745z"/>
<path fill="#FFECC0" d="M358.818,196.812h-0.045c-0.332,0.549-0.854,1.013-1.57,1.39c-0.717,0.379-1.551,0.567-2.5,0.567
	c-0.74,0.002-1.435-0.125-2.082-0.377c-0.648-0.252-1.211-0.604-1.687-1.057c-0.477-0.453-0.85-0.986-1.123-1.602
	c-0.271-0.615-0.407-1.287-0.409-2.015c0-0.727,0.135-1.397,0.405-2.016c0.271-0.615,0.646-1.149,1.129-1.603
	s1.066-0.806,1.753-1.062c0.686-0.254,1.442-0.381,2.272-0.383c0.771,0,1.476,0.143,2.115,0.428c0.643,0.289,1.205,0.69,1.688,1.21
	h0.045l-0.008-7.314l1.765-0.002l0.02,15.535l-1.766,0.002L358.818,196.812z M358.814,193.71c0-0.506-0.089-0.978-0.263-1.405
	c-0.174-0.433-0.426-0.81-0.758-1.13c-0.334-0.321-0.729-0.575-1.188-0.76c-0.462-0.187-0.978-0.276-1.552-0.274
	c-0.571,0-1.09,0.092-1.549,0.278c-0.461,0.185-0.854,0.438-1.188,0.763c-0.33,0.321-0.584,0.698-0.757,1.131
	c-0.174,0.432-0.26,0.899-0.26,1.407c0.002,0.507,0.088,0.976,0.262,1.406c0.175,0.431,0.429,0.81,0.761,1.131
	c0.332,0.32,0.729,0.574,1.188,0.759c0.459,0.186,0.978,0.276,1.551,0.274c0.572,0,1.089-0.092,1.55-0.279
	c0.459-0.186,0.854-0.438,1.186-0.76c0.332-0.324,0.584-0.701,0.758-1.133C358.729,194.688,358.816,194.218,358.814,193.71"/>
<path fill="#FFECC0" d="M358.818,196.812h-0.045c-0.332,0.549-0.854,1.013-1.57,1.39c-0.717,0.379-1.551,0.567-2.5,0.567
	c-0.74,0.002-1.435-0.125-2.082-0.377c-0.648-0.252-1.211-0.604-1.687-1.057c-0.477-0.453-0.85-0.986-1.123-1.602
	c-0.271-0.615-0.407-1.287-0.409-2.015c0-0.727,0.135-1.397,0.405-2.016c0.271-0.615,0.646-1.149,1.129-1.603
	s1.066-0.806,1.753-1.062c0.686-0.254,1.442-0.381,2.272-0.383c0.771,0,1.476,0.143,2.115,0.428c0.643,0.289,1.205,0.69,1.688,1.21
	h0.045l-0.008-7.314l1.765-0.002l0.02,15.535l-1.766,0.002L358.818,196.812z M358.814,193.71c0-0.506-0.089-0.978-0.263-1.405
	c-0.174-0.433-0.426-0.81-0.758-1.13c-0.334-0.321-0.729-0.575-1.188-0.76c-0.462-0.187-0.978-0.276-1.552-0.274
	c-0.571,0-1.09,0.092-1.549,0.278c-0.461,0.185-0.854,0.438-1.188,0.763c-0.33,0.321-0.584,0.698-0.757,1.131
	c-0.174,0.432-0.26,0.899-0.26,1.407c0.002,0.507,0.088,0.976,0.262,1.406c0.175,0.431,0.429,0.81,0.761,1.131
	c0.332,0.32,0.729,0.574,1.188,0.759c0.459,0.186,0.978,0.276,1.551,0.274c0.572,0,1.089-0.092,1.55-0.279
	c0.459-0.186,0.854-0.438,1.186-0.76c0.332-0.324,0.584-0.701,0.758-1.133C358.729,194.688,358.816,194.218,358.814,193.71z"/>
<path fill="#FFECC0" d="M373.072,196.755c-0.633,0.742-1.326,1.261-2.08,1.558c-0.752,0.295-1.629,0.442-2.623,0.442
	c-0.83,0.002-1.578-0.131-2.24-0.397c-0.664-0.267-1.227-0.625-1.688-1.076c-0.461-0.453-0.816-0.986-1.064-1.602
	c-0.25-0.617-0.375-1.275-0.377-1.974c0-0.74,0.135-1.422,0.406-2.045c0.27-0.625,0.646-1.16,1.129-1.604
	c0.479-0.445,1.055-0.793,1.719-1.041c0.662-0.244,1.387-0.369,2.17-0.369c0.74-0.002,1.418,0.109,2.037,0.334
	c0.619,0.228,1.15,0.556,1.598,0.984c0.443,0.432,0.787,0.958,1.031,1.581c0.24,0.623,0.361,1.332,0.363,2.127v0.515l-8.551,0.01
	c0.028,0.412,0.141,0.805,0.328,1.182c0.188,0.377,0.436,0.705,0.735,0.986c0.304,0.281,0.658,0.502,1.064,0.666
	c0.408,0.164,0.854,0.244,1.336,0.244c0.77,0,1.416-0.125,1.944-0.371c0.527-0.248,1.003-0.611,1.425-1.092L373.072,196.755z
	 M371.551,192.833c-0.031-0.822-0.326-1.479-0.883-1.974c-0.561-0.491-1.33-0.736-2.309-0.734c-0.982,0-1.773,0.247-2.375,0.741
	c-0.604,0.491-0.966,1.151-1.084,1.975L371.551,192.833z"/>
<path fill="#FFECC0" d="M373.072,196.755c-0.633,0.742-1.326,1.261-2.08,1.558c-0.752,0.295-1.629,0.442-2.623,0.442
	c-0.83,0.002-1.578-0.131-2.24-0.397c-0.664-0.267-1.227-0.625-1.688-1.076c-0.461-0.453-0.816-0.986-1.064-1.602
	c-0.25-0.617-0.375-1.275-0.377-1.974c0-0.74,0.135-1.422,0.406-2.045c0.27-0.625,0.646-1.16,1.129-1.604
	c0.479-0.445,1.055-0.793,1.719-1.041c0.662-0.244,1.387-0.369,2.17-0.369c0.74-0.002,1.418,0.109,2.037,0.334
	c0.619,0.228,1.15,0.556,1.598,0.984c0.443,0.432,0.787,0.958,1.031,1.581c0.24,0.623,0.361,1.332,0.363,2.127v0.515l-8.551,0.01
	c0.028,0.412,0.141,0.805,0.328,1.182c0.188,0.377,0.436,0.705,0.735,0.986c0.304,0.281,0.658,0.502,1.064,0.666
	c0.408,0.164,0.854,0.244,1.336,0.244c0.77,0,1.416-0.125,1.944-0.371c0.527-0.248,1.003-0.611,1.425-1.092L373.072,196.755z
	 M371.551,192.833c-0.031-0.822-0.326-1.479-0.883-1.974c-0.561-0.491-1.33-0.736-2.309-0.734c-0.982,0-1.773,0.247-2.375,0.741
	c-0.604,0.491-0.966,1.151-1.084,1.975L371.551,192.833z"/>
<path fill="#FFECC0" d="M376.193,195.97c0.346,0.398,0.729,0.714,1.143,0.945c0.416,0.231,0.941,0.349,1.574,0.349
	c0.271,0,0.547-0.029,0.824-0.084c0.278-0.056,0.53-0.146,0.758-0.269c0.227-0.123,0.408-0.277,0.543-0.461
	c0.137-0.188,0.203-0.41,0.203-0.67c-0.002-0.261-0.064-0.474-0.191-0.638c-0.131-0.164-0.301-0.305-0.512-0.422
	c-0.211-0.115-0.453-0.207-0.726-0.274c-0.271-0.068-0.551-0.13-0.836-0.185c-0.498-0.096-0.973-0.205-1.426-0.328
	s-0.85-0.283-1.188-0.479c-0.341-0.199-0.611-0.455-0.814-0.771c-0.205-0.314-0.307-0.718-0.307-1.211
	c-0.002-0.466,0.11-0.877,0.338-1.234c0.225-0.354,0.524-0.649,0.902-0.885c0.377-0.231,0.801-0.412,1.268-0.535
	c0.467-0.122,0.949-0.186,1.447-0.186c0.754-0.002,1.45,0.135,2.094,0.406c0.641,0.273,1.143,0.719,1.506,1.333l-1.471,0.887
	c-0.228-0.342-0.523-0.618-0.896-0.832c-0.369-0.211-0.817-0.315-1.346-0.315c-0.242,0-0.486,0.027-0.734,0.084
	c-0.25,0.055-0.473,0.137-0.668,0.246c-0.196,0.11-0.356,0.252-0.485,0.422c-0.127,0.172-0.191,0.367-0.191,0.588
	c0,0.203,0.072,0.379,0.215,0.521c0.146,0.145,0.342,0.271,0.59,0.381c0.248,0.109,0.535,0.205,0.859,0.285
	c0.324,0.081,0.66,0.151,1.008,0.204c0.467,0.082,0.912,0.189,1.336,0.318c0.422,0.129,0.791,0.303,1.107,0.521
	c0.317,0.219,0.565,0.494,0.748,0.82c0.182,0.33,0.272,0.734,0.272,1.213c0,0.549-0.119,1.014-0.36,1.398
	c-0.24,0.385-0.562,0.695-0.959,0.938c-0.4,0.238-0.854,0.414-1.357,0.523c-0.506,0.111-1.021,0.166-1.551,0.168
	c-0.904,0-1.687-0.125-2.342-0.377c-0.656-0.254-1.248-0.723-1.777-1.406L376.193,195.97z"/>
<path fill="#FFECC0" d="M376.193,195.97c0.346,0.398,0.729,0.714,1.143,0.945c0.416,0.231,0.941,0.349,1.574,0.349
	c0.271,0,0.547-0.029,0.824-0.084c0.278-0.056,0.53-0.146,0.758-0.269c0.227-0.123,0.408-0.277,0.543-0.461
	c0.137-0.188,0.203-0.41,0.203-0.67c-0.002-0.261-0.064-0.474-0.191-0.638c-0.131-0.164-0.301-0.305-0.512-0.422
	c-0.211-0.115-0.453-0.207-0.726-0.274c-0.271-0.068-0.551-0.13-0.836-0.185c-0.498-0.096-0.973-0.205-1.426-0.328
	s-0.85-0.283-1.188-0.479c-0.341-0.199-0.611-0.455-0.814-0.771c-0.205-0.314-0.307-0.718-0.307-1.211
	c-0.002-0.466,0.11-0.877,0.338-1.234c0.225-0.354,0.524-0.649,0.902-0.885c0.377-0.231,0.801-0.412,1.268-0.535
	c0.467-0.122,0.949-0.186,1.447-0.186c0.754-0.002,1.45,0.135,2.094,0.406c0.641,0.273,1.143,0.719,1.506,1.333l-1.471,0.887
	c-0.228-0.342-0.523-0.618-0.896-0.832c-0.369-0.211-0.817-0.315-1.346-0.315c-0.242,0-0.486,0.027-0.734,0.084
	c-0.25,0.055-0.473,0.137-0.668,0.246c-0.196,0.11-0.356,0.252-0.485,0.422c-0.127,0.172-0.191,0.367-0.191,0.588
	c0,0.203,0.072,0.379,0.215,0.521c0.146,0.145,0.342,0.271,0.59,0.381c0.248,0.109,0.535,0.205,0.859,0.285
	c0.324,0.081,0.66,0.151,1.008,0.204c0.467,0.082,0.912,0.189,1.336,0.318c0.422,0.129,0.791,0.303,1.107,0.521
	c0.317,0.219,0.565,0.494,0.748,0.82c0.182,0.33,0.272,0.734,0.272,1.213c0,0.549-0.119,1.014-0.36,1.398
	c-0.24,0.385-0.562,0.695-0.959,0.938c-0.4,0.238-0.854,0.414-1.357,0.523c-0.506,0.111-1.021,0.166-1.551,0.168
	c-0.904,0-1.687-0.125-2.342-0.377c-0.656-0.254-1.248-0.723-1.777-1.406L376.193,195.97z"/>
<path fill="#FFECC0" d="M385.117,185.111c0-0.316,0.123-0.59,0.373-0.824c0.248-0.232,0.553-0.35,0.914-0.35
	c0.362,0,0.67,0.114,0.918,0.348c0.248,0.234,0.375,0.506,0.375,0.822c0,0.342-0.121,0.623-0.361,0.844
	c-0.242,0.219-0.551,0.328-0.928,0.328s-0.688-0.107-0.928-0.326C385.238,185.732,385.117,185.453,385.117,185.111 M385.529,188.871
	l1.764-0.002l0.012,9.615l-1.764,0.002L385.529,188.871z"/>
<path fill="#FFECC0" d="M385.117,185.111c0-0.316,0.123-0.59,0.373-0.824c0.248-0.232,0.553-0.35,0.914-0.35
	c0.362,0,0.67,0.114,0.918,0.348c0.248,0.234,0.375,0.506,0.375,0.822c0,0.342-0.121,0.623-0.361,0.844
	c-0.242,0.219-0.551,0.328-0.928,0.328s-0.688-0.107-0.928-0.326C385.238,185.732,385.117,185.453,385.117,185.111z
	 M385.529,188.871l1.764-0.002l0.012,9.615l-1.764,0.002L385.529,188.871z"/>
<path fill="#FFECC0" d="M401.15,198.038c0.002,1.754-0.49,3.086-1.479,3.998c-0.986,0.912-2.414,1.371-4.285,1.373
	c-1.039,0-1.979-0.136-2.815-0.408s-1.634-0.744-2.39-1.416l1.267-1.315c0.559,0.547,1.149,0.961,1.776,1.241
	c0.625,0.279,1.347,0.421,2.16,0.419c0.785,0,1.438-0.107,1.957-0.32c0.521-0.213,0.93-0.502,1.232-0.865
	c0.301-0.363,0.512-0.777,0.631-1.244c0.121-0.467,0.182-0.953,0.182-1.459l-0.002-1.234h-0.047
	c-0.42,0.619-0.971,1.072-1.647,1.359c-0.681,0.289-1.373,0.434-2.082,0.434c-0.83,0.002-1.593-0.121-2.285-0.367
	c-0.695-0.243-1.291-0.588-1.789-1.024s-0.883-0.957-1.154-1.562c-0.273-0.602-0.41-1.26-0.41-1.971
	c-0.002-0.781,0.133-1.488,0.404-2.119c0.271-0.629,0.65-1.162,1.143-1.593c0.488-0.432,1.08-0.764,1.773-0.998
	c0.693-0.233,1.461-0.352,2.309-0.352c0.359,0,0.724,0.034,1.084,0.11c0.361,0.074,0.713,0.191,1.054,0.349
	c0.34,0.157,0.645,0.354,0.916,0.594c0.272,0.24,0.5,0.517,0.68,0.831h0.047l-0.002-1.645l1.766-0.002L401.15,198.038z
	 M391.869,193.671c0,0.494,0.098,0.949,0.295,1.367s0.465,0.778,0.805,1.088s0.736,0.551,1.189,0.729
	c0.451,0.178,0.934,0.266,1.447,0.266c0.604-0.002,1.139-0.098,1.606-0.291c0.467-0.191,0.863-0.449,1.187-0.771
	s0.567-0.69,0.733-1.108c0.166-0.42,0.248-0.861,0.248-1.328c0-0.521-0.092-0.996-0.272-1.429c-0.183-0.43-0.439-0.803-0.771-1.116
	c-0.332-0.315-0.732-0.56-1.199-0.729c-0.469-0.17-0.979-0.255-1.539-0.255c-0.559,0.003-1.065,0.093-1.526,0.278
	c-0.459,0.186-0.853,0.439-1.177,0.762c-0.321,0.322-0.575,0.699-0.754,1.131C391.959,192.693,391.869,193.165,391.869,193.671"/>
<path fill="#FFECC0" d="M401.15,198.038c0.002,1.754-0.49,3.086-1.479,3.998c-0.986,0.912-2.414,1.371-4.285,1.373
	c-1.039,0-1.979-0.136-2.815-0.408s-1.634-0.744-2.39-1.416l1.267-1.315c0.559,0.547,1.149,0.961,1.776,1.241
	c0.625,0.279,1.347,0.421,2.16,0.419c0.785,0,1.438-0.107,1.957-0.32c0.521-0.213,0.93-0.502,1.232-0.865
	c0.301-0.363,0.512-0.777,0.631-1.244c0.121-0.467,0.182-0.953,0.182-1.459l-0.002-1.234h-0.047
	c-0.42,0.619-0.971,1.072-1.647,1.359c-0.681,0.289-1.373,0.434-2.082,0.434c-0.83,0.002-1.593-0.121-2.285-0.367
	c-0.695-0.243-1.291-0.588-1.789-1.024s-0.883-0.957-1.154-1.562c-0.273-0.602-0.41-1.26-0.41-1.971
	c-0.002-0.781,0.133-1.488,0.404-2.119c0.271-0.629,0.65-1.162,1.143-1.593c0.488-0.432,1.08-0.764,1.773-0.998
	c0.693-0.233,1.461-0.352,2.309-0.352c0.359,0,0.724,0.034,1.084,0.11c0.361,0.074,0.713,0.191,1.054,0.349
	c0.34,0.157,0.645,0.354,0.916,0.594c0.272,0.24,0.5,0.517,0.68,0.831h0.047l-0.002-1.645l1.766-0.002L401.15,198.038z
	 M391.869,193.671c0,0.494,0.098,0.949,0.295,1.367s0.465,0.778,0.805,1.088s0.736,0.551,1.189,0.729
	c0.451,0.178,0.934,0.266,1.447,0.266c0.604-0.002,1.139-0.098,1.606-0.291c0.467-0.191,0.863-0.449,1.187-0.771
	s0.567-0.69,0.733-1.108c0.166-0.42,0.248-0.861,0.248-1.328c0-0.521-0.092-0.996-0.272-1.429c-0.183-0.43-0.439-0.803-0.771-1.116
	c-0.332-0.315-0.732-0.56-1.199-0.729c-0.469-0.17-0.979-0.255-1.539-0.255c-0.559,0.003-1.065,0.093-1.526,0.278
	c-0.459,0.186-0.853,0.439-1.177,0.762c-0.321,0.322-0.575,0.699-0.754,1.131C391.959,192.693,391.869,193.165,391.869,193.671z"/>
<path fill="#FFECC0" d="M404.174,191.13c0-0.438-0.016-0.85-0.047-1.233c-0.031-0.383-0.045-0.731-0.047-1.047l1.674-0.002
	c0.002,0.26,0.01,0.521,0.023,0.781c0.018,0.26,0.022,0.527,0.022,0.801h0.047c0.119-0.234,0.289-0.459,0.509-0.68
	c0.219-0.219,0.479-0.414,0.778-0.586c0.304-0.172,0.644-0.309,1.019-0.412c0.377-0.104,0.785-0.154,1.223-0.156
	c0.693,0,1.293,0.096,1.799,0.285c0.506,0.193,0.924,0.459,1.256,0.801s0.578,0.756,0.738,1.241
	c0.158,0.486,0.238,1.019,0.238,1.593l0.008,5.938l-1.766,0.004l-0.007-5.774c-0.002-0.81-0.196-1.445-0.592-1.912
	c-0.393-0.465-1.004-0.696-1.832-0.694c-0.573,0-1.065,0.09-1.481,0.267c-0.416,0.18-0.752,0.432-1.019,0.764
	c-0.264,0.328-0.459,0.72-0.586,1.173c-0.129,0.45-0.19,0.95-0.19,1.5l0.006,4.686l-1.767,0.002L404.174,191.13z"/>
<path fill="#FFECC0" d="M404.174,191.13c0-0.438-0.016-0.85-0.047-1.233c-0.031-0.383-0.045-0.731-0.047-1.047l1.674-0.002
	c0.002,0.26,0.01,0.521,0.023,0.781c0.018,0.26,0.022,0.527,0.022,0.801h0.047c0.119-0.234,0.289-0.459,0.509-0.68
	c0.219-0.219,0.479-0.414,0.778-0.586c0.304-0.172,0.644-0.309,1.019-0.412c0.377-0.104,0.785-0.154,1.223-0.156
	c0.693,0,1.293,0.096,1.799,0.285c0.506,0.193,0.924,0.459,1.256,0.801s0.578,0.756,0.738,1.241
	c0.158,0.486,0.238,1.019,0.238,1.593l0.008,5.938l-1.766,0.004l-0.007-5.774c-0.002-0.81-0.196-1.445-0.592-1.912
	c-0.393-0.465-1.004-0.696-1.832-0.694c-0.573,0-1.065,0.09-1.481,0.267c-0.416,0.18-0.752,0.432-1.019,0.764
	c-0.264,0.328-0.459,0.72-0.586,1.173c-0.129,0.45-0.19,0.95-0.19,1.5l0.006,4.686l-1.767,0.002L404.174,191.13z"/>
<path fill="#FFECC0" d="M326.871,179.311H212.187c-0.091,0-0.165-0.074-0.165-0.166c0-0.09,0.074-0.164,0.165-0.164h114.685
	c0.092,0,0.166,0.074,0.166,0.164C327.037,179.236,326.963,179.311,326.871,179.311"/>
<path fill="#FFECC0" d="M447.4,179.311h-95.468c-0.09,0-0.164-0.074-0.164-0.166c0-0.09,0.074-0.164,0.164-0.164H447.4
	c0.092,0,0.166,0.074,0.166,0.164C447.566,179.236,447.492,179.311,447.4,179.311"/>
</svg>
